<?xml version="1.0" encoding="UTF-8" standalone="no"?>
<svg
   version="1.1"
   viewBox="0 0 40 40"
   id="svg10"
   sodipodi:docname="basic_icon.svg"
   inkscape:version="1.1.2 (b8e25be833, 2022-02-05)"
   xmlns:inkscape="http://www.inkscape.org/namespaces/inkscape"
   xmlns:sodipodi="http://sodipodi.sourceforge.net/DTD/sodipodi-0.dtd"
   xmlns="http://www.w3.org/2000/svg"
   xmlns:svg="http://www.w3.org/2000/svg">
  <defs
     id="defs14" />
  <sodipodi:namedview
     id="namedview12"
     pagecolor="#ffffff"
     bordercolor="#666666"
     borderopacity="1.0"
     inkscape:pageshadow="2"
     inkscape:pageopacity="0.0"
     inkscape:pagecheckerboard="0"
     showgrid="false"
     inkscape:snap-bbox="true"
     inkscape:bbox-paths="true"
     inkscape:bbox-nodes="true"
     inkscape:snap-bbox-edge-midpoints="true"
     inkscape:snap-bbox-midpoints="true"
     inkscape:zoom="7.1417785"
     inkscape:cx="12.881945"
     inkscape:cy="4.1306238"
     inkscape:window-width="1920"
     inkscape:window-height="1001"
     inkscape:window-x="-9"
     inkscape:window-y="-9"
     inkscape:window-maximized="1"
     inkscape:current-layer="svg10" />
  <path
     id="path1662-2"
     style="fill:#000000;stroke-width:0.0664077"
     d="M 16.506825,3.7414647 C 14.113314,3.7235411 11.827065,4.8313321 10.316379,6.8547513 9.6744039,7.7146119 9.1036432,8.9893659 8.9520584,9.8979094 8.9094828,10.153099 8.8870557,10.179953 8.7607984,10.142297 8.4241831,10.041902 7.5957836,9.9128147 7.2795966,9.9106604 6.8572783,9.9078314 6.0645769,10.054334 5.6645127,10.2103 4.5566993,10.642185 3.4918834,11.659606 3.0591274,12.70093 l -0.136007,0.327267 H 2.5788525 c -1.82180255,0 -3.25760085,1.955465 -2.82214645,3.844325 0.2155149,0.934849 0.9734872,1.786809 1.87009705,2.161237 a 6.7586942,6.7586942 0 0 1 4.8133749,-2.071983 6.7586942,6.7586942 0 0 1 0.1402572,0 5.1469709,5.1469709 0 0 1 5.0067598,-4.003707 5.1469709,5.1469709 0 0 1 0.425022,0.02337 11.229908,11.229908 0 0 1 9.295233,-4.9621287 11.229908,11.229908 0 0 1 7.80978,3.1600387 9.6931752,9.6931752 0 0 1 1.217688,-0.08501 9.6931752,9.6931752 0 0 1 2.949653,0.461149 c 8.08e-4,-0.71305 -0.07076,-1.448144 -0.21251,-1.9848463 C 32.302976,6.658858 30.067429,4.5038332 27.17913,3.8880973 26.495973,3.7424612 24.832642,3.7231349 24.223101,3.8540953 23.223769,4.0688121 22.058451,4.5546581 21.377579,5.0399068 L 21.054562,5.2715439 20.778297,5.0739086 C 20.294949,4.7296684 19.527035,4.3467452 18.912451,4.1431105 18.115554,3.8790663 17.304663,3.7474372 16.506825,3.7414647 Z" />
  <path
     id="path1662-2-7"
     style="fill:#ff5555;stroke-width:0.0610333"
     d="m -28.888158,-20.295267 c -2.199805,-0.01647 -4.301154,1.002527 -5.68958,2.862191 -0.59002,0.790272 -1.115369,1.960478 -1.254686,2.795493 -0.03913,0.234537 -0.05892,0.259834 -0.174959,0.225225 -0.309373,-0.09227 -1.071384,-0.211646 -1.361982,-0.213626 -0.38814,-0.0026 -1.117055,0.133112 -1.484742,0.276456 -1.018158,0.396932 -1.996609,1.331928 -2.394342,2.288978 l -0.124698,0.301589 h -0.316089 c -1.674364,0 -2.993678,1.7970361 -2.593465,3.5330301 0.23057,1.000154 1.135804,1.900238 2.132383,2.120784 0.258177,0.05711 2.900616,0.07114 11.443926,0.06089 11.052943,-0.01324 11.110977,-0.01335 11.657552,-0.141122 2.82694,-0.660892 4.884752,-2.762286 5.464355,-5.5784191 0.183687,-0.892476 0.148316,-2.311825 -0.07926,-3.173443 -0.706842,-2.676133 -2.761475,-4.657763 -5.416024,-5.223667 -0.627869,-0.13385 -2.156017,-0.151299 -2.716228,-0.03094 -0.918456,0.19734 -1.989931,0.64438 -2.6157,1.090358 l -0.297721,0.211692 -0.252291,-0.179793 c -0.44423,-0.316381 -1.151888,-0.669279 -1.716734,-0.856433 -0.732404,-0.242676 -1.476446,-0.363765 -2.209715,-0.369254 z" />
  <path
     d="m 21.336423,9.677426 a 10.321071,10.321071 0 0 0 -8.54389,4.559937 4.7304262,4.7304262 0 0 0 -0.3907,-0.02073 4.7304262,4.7304262 0 0 0 -4.6008754,3.680804 6.2117126,6.2117126 0 0 0 -0.1285146,0 6.2117126,6.2117126 0 0 0 -6.215081,6.210158 6.2117126,6.2117126 0 0 0 6.215081,6.215081 h 21.961231 a 8.9087058,8.9087058 0 0 0 8.908965,-8.908964 8.9087058,8.9087058 0 0 0 -8.908965,-8.908965 8.9087058,8.9087058 0 0 0 -1.120668,0.07711 10.321071,10.321071 0 0 0 -7.176609,-2.904534 z"
     style="stroke-width:3.22789"
     id="path8" />
  <path
     id="path1662"
     style="fill:#000000;stroke-width:0.064663"
     d="m 18.650522,52.8059 c -0.410961,0 -0.558536,0.173374 -1.355929,1.588403 -0.438864,0.778794 -0.473212,1.031216 -0.178196,1.326229 0.261211,0.261202 0.65036,0.266121 0.901222,0.01126 0.294138,-0.298817 1.237131,-2.031883 1.237131,-2.273536 0,-0.2673 -0.356261,-0.652362 -0.604228,-0.652362 z m 12.381554,0.191509 c -0.180219,-0.0214 -0.369866,0.03163 -0.516154,0.180245 -0.09627,0.0978 -0.414437,0.602283 -0.70664,1.120382 -0.619997,1.0993 -0.662994,1.307777 -0.330789,1.618102 0.237086,0.221472 0.514112,0.24472 0.801882,0.06759 0.285781,-0.175903 1.325205,-2.028371 1.325205,-2.36161 0,-0.347086 -0.273138,-0.589035 -0.573504,-0.624711 z m -5.894808,0.0092 c -0.11392,0.0044 -0.231601,0.03812 -0.343078,0.106508 -0.237588,0.145756 -1.335447,2.035101 -1.335447,2.298115 0,0.225261 0.09935,0.429946 0.281632,0.577601 0.180257,0.146015 0.477688,0.144 0.719953,-0.0051 0.285781,-0.175903 1.326229,-2.028371 1.326229,-2.361611 0,-0.376664 -0.307529,-0.628575 -0.649289,-0.615493 z m -9.972835,0.70152 c -0.118251,0.01316 -0.234232,0.06012 -0.333861,0.148496 -0.09021,0.08002 -0.411851,0.579596 -0.714833,1.110141 -0.643017,1.12598 -0.67495,1.284182 -0.330789,1.628344 0.230682,0.230679 0.432793,0.274101 0.698446,0.150545 0.195862,-0.0911 0.293145,-0.229177 0.89815,-1.275024 0.396594,-0.685576 0.511033,-0.939355 0.511033,-1.132671 0,-0.400621 -0.373391,-0.669311 -0.728146,-0.629831 z M 21.1934,54.38302 c -0.196978,0.01884 -0.391275,0.136942 -0.534588,0.349224 -0.262793,0.389264 -1.010539,1.725352 -1.084538,1.937626 -0.09641,0.276563 0.05089,0.605699 0.334886,0.747604 0.484501,0.242088 0.708058,0.05656 1.421472,-1.182853 0.636752,-1.106233 0.683468,-1.286478 0.414766,-1.605813 -0.154639,-0.183779 -0.35502,-0.264631 -0.551998,-0.245788 z m 6.361804,0.16898 c -0.368223,4.85e-4 -0.548528,0.195924 -1.138816,1.238155 -0.651256,1.14988 -0.697616,1.355733 -0.376874,1.676477 0.243189,0.243185 0.627919,0.262933 0.870498,0.04404 0.274015,-0.247262 1.268879,-2.051551 1.268879,-2.301188 0,-0.285709 -0.352949,-0.657713 -0.623687,-0.657481 z m 3.390846,2.269439 c -0.162827,0.0011 -0.32079,0.07458 -0.456755,0.221209 -0.08254,0.08901 -0.388064,0.577478 -0.680013,1.085562 -0.614222,1.068934 -0.660179,1.283592 -0.342054,1.601717 0.146856,0.146857 0.247604,0.188437 0.451634,0.188437 0.375112,0 0.548921,-0.193179 1.163395,-1.29141 0.598142,-1.069039 0.652172,-1.311587 0.351272,-1.590451 -0.156105,-0.144672 -0.324652,-0.216156 -0.487479,-0.215064 z m -13.964836,0.705616 c -0.401344,4.5e-4 -0.56849,0.175897 -1.16954,1.237131 -0.65743,1.160784 -0.701142,1.364132 -0.364585,1.678525 0.234312,0.21888 0.513126,0.244596 0.791641,0.07374 0.282001,-0.173003 1.335446,-2.03767 1.335446,-2.363658 10e-7,-0.330736 -0.280244,-0.625965 -0.592962,-0.625734 z m 7.088926,0.322596 c -0.200351,0 -0.328805,0.04192 -0.44549,0.145424 -0.263717,0.233921 -1.265807,2.040314 -1.265807,2.281729 0,0.228527 0.202352,0.528034 0.413743,0.613446 0.293055,0.118407 0.572941,0.03407 0.769111,-0.231451 0.06364,-0.08614 0.34684,-0.557292 0.629831,-1.046645 0.584477,-1.010695 0.63284,-1.225547 0.348198,-1.563825 -0.139747,-0.166082 -0.214487,-0.198678 -0.449586,-0.198678 z m -10.624172,0.553022 c -0.36547,0 -0.497971,0.145859 -1.142913,1.259662 -0.619039,1.06907 -0.666556,1.270513 -0.380971,1.609909 0.138874,0.165041 0.214051,0.198678 0.443442,0.198678 0.176391,0 0.334877,-0.0454 0.437297,-0.125966 0.08831,-0.06946 0.412253,-0.563313 0.719953,-1.096827 0.639705,-1.109176 0.68062,-1.290855 0.371754,-1.636536 -0.152853,-0.171071 -0.235139,-0.20892 -0.448562,-0.20892 z m 14.109236,0.677965 c -0.40069,0.005 -0.514574,0.132937 -1.208456,1.359 -0.576417,1.01851 -0.62068,1.240134 -0.307234,1.553583 0.261213,0.261202 0.650358,0.266121 0.901221,0.01126 0.294139,-0.298816 1.238156,-2.032907 1.238156,-2.27456 0,-0.281167 -0.35681,-0.652592 -0.623687,-0.649289 z m -7.456583,0.0051 c -0.149442,-0.0095 -0.304401,0.03667 -0.437298,0.148497 -0.23956,0.201575 -1.310867,2.072487 -1.310867,2.288898 0,0.194241 0.107989,0.404174 0.281632,0.544829 0.216512,0.175383 0.586617,0.146395 0.814171,-0.06349 0.181334,-0.167256 1.094015,-1.69255 1.235084,-2.063592 0.04398,-0.115635 0.0428,-0.236829 -0.0041,-0.378923 -0.09518,-0.288404 -0.329556,-0.460401 -0.578625,-0.476214 z" />
</svg>
