<svg version="1.1" viewBox="0 0 40 40" xmlns="http://www.w3.org/2000/svg">
 <path d="m17.487 3.7415c-2.3935-0.017924-4.6798 1.0899-6.1904 3.1133-0.64198 0.85986-1.2127 2.1346-1.3643 3.0432-0.042576 0.25519-0.065003 0.28204-0.19126 0.24439-0.33662-0.1004-1.165-0.22948-1.4812-0.23164-0.42232-0.002829-1.215 0.14367-1.6151 0.29964-1.1078 0.43188-2.1726 1.4493-2.6054 2.4906l-0.13601 0.32727h-0.34427c-1.8218 0-3.2576 1.9555-2.8221 3.8443 0.21551 0.93485 0.97349 1.7868 1.8701 2.1612a6.7587 6.7587 0 0 1 4.8134-2.072 6.7587 6.7587 0 0 1 0.14026 0 5.147 5.147 0 0 1 5.0068-4.0037 5.147 5.147 0 0 1 0.42502 0.02337 11.23 11.23 0 0 1 9.2952-4.9621 11.23 11.23 0 0 1 7.8098 3.16 9.6932 9.6932 0 0 1 1.2177-0.08501 9.6932 9.6932 0 0 1 2.9497 0.46115c8.08e-4 -0.71305-0.07076-1.4481-0.21251-1.9848-0.76908-2.9118-3.0046-5.0668-5.8929-5.6825-0.68316-0.14564-2.3465-0.16496-2.956-0.034002-0.99933 0.21472-2.1646 0.70056-2.8455 1.1858l-0.32302 0.23164-0.27626-0.19764c-0.48335-0.34424-1.2513-0.72716-1.8658-0.9308-0.7969-0.26404-1.6078-0.39567-2.4056-0.40165z" style="stroke-width:.066408"/>
 <path d="m22.317 9.6774a10.321 10.321 0 0 0-8.5439 4.5599 4.7304 4.7304 0 0 0-0.3907-0.02073 4.7304 4.7304 0 0 0-4.6009 3.6808 6.2117 6.2117 0 0 0-0.12851 0 6.2117 6.2117 0 0 0-6.2151 6.2102 6.2117 6.2117 0 0 0 6.2151 6.2151h21.961a8.9087 8.9087 0 0 0 8.909-8.909 8.9087 8.9087 0 0 0-8.909-8.909 8.9087 8.9087 0 0 0-1.1207 0.07711 10.321 10.321 0 0 0-7.1766-2.9045z" style="stroke-width:3.2279"/>
</svg>
