<svg version="1.1" viewBox="0 0 40 40" xmlns="http://www.w3.org/2000/svg">
 <path d="m22.137 6.5263a9.6111 9.6111 0 0 0-7.957 4.2461 4.405 4.405 0 0 0-0.36328-0.01758 4.405 4.405 0 0 0-4.2852 3.4277 5.7844 5.7844 0 0 0-0.11914 0 5.7844 5.7844 0 0 0-5.7871 5.7812 5.7844 5.7844 0 0 0 5.7871 5.7891h20.451a8.2959 8.2959 0 0 0 8.2949-8.2969 8.2959 8.2959 0 0 0-8.2949-8.2969 8.2959 8.2959 0 0 0-1.0449 0.07227 9.6111 9.6111 0 0 0-6.6816-2.7051zm-0.2207 3.0703a8.2984 7.1363 0 0 1 5.7715 2.0078 7.1628 6.1597 0 0 1 0.90039-0.05274 7.1628 6.1597 0 0 1 7.1641 6.1602 7.1628 6.1597 0 0 1-7.1641 6.1582h-17.658a4.9944 4.2949 0 0 1-4.9961-4.2969 4.9944 4.2949 0 0 1 4.9961-4.293 4.9944 4.2949 0 0 1 0.10352 0 3.8034 3.2707 0 0 1 3.6992-2.5449 3.8034 3.2707 0 0 1 0.31445 0.01367 8.2984 7.1363 0 0 1 6.8691-3.1523z" style="stroke-width:3.0059"/>
</svg>
