<svg version="1.1" viewBox="0 0 40 40" xmlns="http://www.w3.org/2000/svg">
 <path d="m19.912 37.421c-0.24834-0.13126-0.25254-0.16826-0.26905-2.3655-0.0084-1.1167-9.14e-4 -2.1851 0.01646-2.3743 0.02854-0.31032 0.04706-0.35943 0.18954-0.50191 0.14342-0.14342 0.17675-0.1558 0.36286-0.13484 0.1337 0.01515 0.26041 0.06923 0.36457 0.15584l0.15966 0.13272 0.0023 2.1688c0.0028 2.2825-0.02301 2.7011-0.17408 2.8521-0.1142 0.1142-0.49003 0.15285-0.65226 0.06709zm-6.4002-3.5403c-0.1877-0.11444-0.30816-0.34049-0.268-0.50288 0.09766-0.39495 0.92092-2.1562 1.0977-2.3484 0.11732-0.12754 0.43895-0.14198 0.63131-0.02835 0.14591 0.0862 0.2787 0.28768 0.2787 0.42286 0 0.25364-1.0053 2.3164-1.1946 2.4512-0.16856 0.12002-0.35419 0.1219-0.54507 0.0057zm12.764-0.09335c-0.17757-0.18666-0.62628-1.0524-0.93784-1.8094-0.20734-0.50378-0.21452-0.71286-0.03123-0.90908 0.11498-0.12309 0.16618-0.14331 0.36293-0.14331 0.15786 0 0.2649 0.02822 0.34439 0.09073 0.13401 0.10542 0.62084 1.0758 0.93326 1.8602 0.24835 0.6236 0.24803 0.73399-0.0028 0.95419-0.23727 0.20833-0.44193 0.19505-0.66876-0.0434zm-19.316-2.1216c-0.28008-0.17078-0.36469-0.4941-0.1993-0.7617 0.11205-0.18127 2.4944-2.3477 3.2905-2.9923 0.29549-0.23924 0.45569-0.27153 0.6825-0.13755 0.14702 0.08685 0.2732 0.31158 0.2732 0.48659 0 0.18474-0.22701 0.44578-1.0227 1.1761-1.5756 1.4461-2.6207 2.3193-2.7753 2.3191-0.0556-9.5e-5 -0.16757-0.0407-0.24882-0.09026zm26.081 0.04793c-0.26198-0.11395-3.2909-2.8192-3.538-3.1599-0.1567-0.21609-0.16878-0.42802-0.03415-0.59918 0.22043-0.28023 0.52625-0.31912 0.81782-0.10401 0.25281 0.18653 2.7384 2.4488 3.0888 2.8113 0.27153 0.28091 0.33455 0.37354 0.33455 0.49175 0 0.37769-0.37214 0.68916-0.66909 0.56zm-13.52-1.8799c-1.4956-0.12117-2.6153-0.41545-3.83-1.0066-1.151-0.56018-2.0575-1.2207-2.9413-2.143-3.7506-3.9141-3.9134-9.8238-0.38374-13.927 1.5963-1.8558 3.7194-3.039 6.2373-3.4761 1.1393-0.19779 2.704-0.13307 3.9633 0.16394 3.3632 0.79323 6.1505 3.2429 7.3318 6.4437 0.49304 1.336 0.59534 1.9439 0.60082 3.5702 0.0044 1.3632-0.03172 1.7382-0.24965 2.5759-0.92771 3.5667-3.5763 6.3207-7.1313 7.4149-1.1128 0.34254-2.4061 0.48066-3.5971 0.38418zm1.7294-1.1495c3.4242-0.39842 6.3367-2.6703 7.5928-5.9226 0.62555-1.6198 0.75156-3.5986 0.34107-5.3564-0.47553-2.0363-1.7107-3.9501-3.3645-5.213-1.0748-0.82078-2.4489-1.4567-3.6898-1.7075-0.99971-0.20208-2.5527-0.24539-3.4233-0.09545-3.4013 0.58573-6.2097 2.9832-7.2845 6.2188-0.25953 0.78128-0.35857 1.2642-0.41906 2.0431-0.09267 1.1932 0.0047 2.3567 0.27832 3.3286 1.2304 4.3691 5.4796 7.2268 9.9691 6.7044zm-15.625-3.1542c-0.30719-0.18731-0.3094-0.68616-0.0037-0.87218 0.36219-0.22051 2.2058-0.93083 2.416-0.93083 0.16233 0 0.52481 0.35761 0.52481 0.51776 0 0.18462-0.18862 0.40942-0.46144 0.54995-0.31099 0.16018-1.5458 0.65128-1.8887 0.75119-0.3232 0.09415-0.41015 0.09178-0.58674-0.01589zm28.108-0.13523c-0.7626-0.26259-1.5437-0.6059-1.7036-0.74874-0.12199-0.109-0.14218-0.15896-0.14218-0.35203 0-0.29261 0.10725-0.45477 0.34864-0.52709 0.21829-0.0654 0.24981-0.0563 1.3844 0.39929 1.114 0.44734 1.2556 0.52575 1.3244 0.73358 0.07259 0.21896 0.0079 0.4992-0.13894 0.60206-0.16949 0.11872-0.5181 0.08394-1.0728-0.10706zm-0.66749-5.3273c-0.18356-0.06324-0.37084-0.3102-0.37058-0.48873 2.33e-4 -0.1695 0.16151-0.41359 0.31073-0.47032 0.1774-0.06747 3.2352-0.10675 4.157-0.05342 0.71662 0.04142 0.75901 0.04927 0.87026 0.16051 0.17215 0.17215 0.1947 0.47061 0.05148 0.68138-0.06796 0.10003-0.16158 0.17248-0.24633 0.19065-0.26678 0.0572-4.6012 0.03894-4.7726-0.02009zm-29.752-0.029149c-0.82846-0.02556-0.84297-0.02776-0.96093-0.1458-0.22896-0.22912-0.18346-0.68361 0.08371-0.83627 0.08027-0.04586 0.63425-0.05904 2.4818-0.05904 2.6616 0 2.5602-0.01246 2.7035 0.33055 0.08432 0.20181 0.03165 0.38884-0.17005 0.60386l-0.14069 0.14997-1.5781-0.0086c-0.86795-0.0047-1.9566-0.02038-2.4193-0.03464zm4.0712-4.8662c-0.55278-0.20244-1.3971-0.55146-1.6764-0.69298-0.3729-0.18896-0.43443-0.56244-0.14099-0.85587 0.23535-0.23536 0.28612-0.22975 1.2552 0.13855 1.1161 0.42421 1.3171 0.51353 1.4977 0.66544 0.37402 0.31472 0.1383 0.90563-0.35866 0.89908-0.08884-0.0014-0.34839-0.07057-0.5768-0.15422zm24.819 0.11196c-0.05444-0.02254-0.15575-0.11543-0.22512-0.20639-0.10256-0.13447-0.1211-0.19654-0.09912-0.33201 0.03677-0.2266 0.13346-0.3205 0.53857-0.52301 0.38007-0.19 1.5765-0.65884 1.9065-0.7471 0.1935-0.05176 0.22044-0.04767 0.37363 0.0566 0.27497 0.18716 0.36865 0.47636 0.23686 0.7312-0.08972 0.17353-0.5562 0.39532-1.6864 0.80181-0.63029 0.22669-0.89316 0.28176-1.0449 0.21889zm-21.935-4.0601c-0.31924-0.17042-2.0153-1.6574-3.0802-2.7005-0.47134-0.46169-0.51917-0.52386-0.51912-0.67476 9.2e-5 -0.24253 0.16794-0.46625 0.40699-0.54242 0.18668-0.05948 0.2056-0.05662 0.37747 0.05712 0.23457 0.15523 0.64797 0.50956 1.7535 1.503 1.6922 1.5205 1.8736 1.7379 1.7537 2.101-0.06035 0.18289-0.26255 0.34783-0.42268 0.34482-0.05952-9.14e-4 -0.18092-0.04083-0.26974-0.08827zm19.369 0.0094c-0.14357-0.08903-0.26559-0.31402-0.26559-0.48973 0-0.19646 0.3774-0.57944 2.0732-2.1039 1.4579-1.3106 1.4956-1.34 1.7184-1.34 0.1564 0 0.21741 0.02981 0.36676 0.17915 0.15062 0.15063 0.17914 0.20968 0.17914 0.37094 0 0.1591-0.02949 0.22226-0.17305 0.3705-0.45595 0.47087-3.1 2.8322-3.3736 3.0129-0.1536 0.10143-0.36182 0.10146-0.52533 9.6e-5zm-15.26-3.1771c-0.22004-0.18516-1.1562-2.162-1.1562-2.4415 0-0.13462 0.13875-0.34307 0.27536-0.41371 0.19531-0.10099 0.48868-0.09041 0.60076 0.02168 0.19134 0.19134 1.1545 2.2386 1.1539 2.4527-3.22e-4 0.12276-0.12434 0.3306-0.25719 0.43113-0.14857 0.11242-0.45276 0.0876-0.61665-0.0503zm11.076 0.0619c-0.16837-0.08653-0.30016-0.29244-0.29504-0.46093 0.0092-0.30229 0.93981-2.2649 1.1537-2.4331 0.3486-0.27421 0.90253 0.06365 0.8212 0.50087-0.07835 0.42113-0.853 2.0206-1.113 2.298-0.15743 0.168-0.35927 0.20189-0.5669 0.09518zm-5.6304-1.3105-0.19762-0.16915 0.01912-2.3572c0.02072-2.553 0.02067-2.5528 0.27389-2.6837 0.20627-0.10666 0.43372-0.08325 0.59552 0.06133 0.1214 0.10847 0.1483 0.17436 0.1838 0.4499 0.02287 0.17755 0.04223 1.2814 0.04307 2.453l0.0014 2.1302-0.19367 0.14242c-0.27272 0.20055-0.46855 0.19334-0.72564-0.0267z" style="stroke-width:.046144"/>
</svg>
