<svg version="1.1" viewBox="0 0 40 40" xmlns="http://www.w3.org/2000/svg">
 <path d="m18.989 29.581c-1.879-0.39643-3.7804-1.4382-5.1651-2.8299-1.321-1.3277-2.2016-2.8724-2.6924-4.7227-0.23379-0.88141-0.26873-1.2107-0.26873-2.5329 0-1.3126 0.03565-1.6537 0.26166-2.5031 0.50646-1.9033 1.3824-3.4322 2.7498-4.7996 1.811-1.811 3.9954-2.8163 6.4137-2.9516 1.5495-0.08673 1.6936 0.16657 0.83684 1.4716-0.95906 1.4609-1.4369 3.0699-1.4497 4.8821-0.03498 4.921 3.6294 8.7939 8.6882 9.1828 0.72777 0.05593 0.90331 0.10344 1.0251 0.27734 0.23492 0.3354 0.17861 0.51445-0.36728 1.1678-1.3742 1.6446-3.5303 2.9141-5.7153 3.365-1.2028 0.24826-3.1221 0.24522-4.3168-0.0069zm3.6352-1.1227c1.5653-0.25402 3.3304-1.0659 4.3999-2.0239l0.53498-0.47916-0.45564-0.07137c-0.85242-0.13351-2.1757-0.58112-3.0392-1.028-2.6726-1.3833-4.5644-3.7528-5.3312-6.6775-0.22206-0.847-0.26711-1.2457-0.2747-2.4316-0.01193-1.8754 0.26343-3.1376 1.0116-4.6351 0.18789-0.37613 0.30405-0.68387 0.25812-0.68387-0.26567 0-1.7112 0.44507-2.2922 0.70575-1.3873 0.62244-2.9237 1.9111-3.804 3.1906-0.45656 0.66359-1.069 2.0081-1.2695 2.7868-0.54556 2.1191-0.3504 4.2564 0.56401 6.1766 1.3075 2.7456 3.8342 4.6775 6.7643 5.172 0.6971 0.11763 2.205 0.11701 2.9335-0.0012zm-2.3257-0.90845c-3.386-0.58689-6.0478-3.0139-6.8837-6.2766-0.16797-0.65565-0.17433-0.77425-0.0482-0.90036 0.2565-0.2565 0.4337-0.05446 0.62039 0.70739 0.09973 0.40693 0.37699 1.1287 0.61615 1.6038 0.7932 1.576 1.946 2.7187 3.5342 3.5034 1.0346 0.51113 1.8143 0.73126 2.9571 0.83486 0.75763 0.06869 0.79154 0.0826 0.79154 0.32504 0 0.23758-0.03457 0.25425-0.55723 0.26887-0.30648 0.0085-0.7701-0.02132-1.0303-0.06641zm-7.0146-7.7308c-0.1281-0.09367-0.16742-0.23876-0.14366-0.53018 0.02866-0.3517 0.06397-0.40122 0.286-0.40122 0.2239 0 0.2568 0.04804 0.28363 0.41402 0.03629 0.49513-0.14886 0.72001-0.42597 0.51738zm11.567-2.0026c-0.09682-0.05642-0.22545-0.19486-0.28582-0.30766-0.15037-0.28097 0.12267-0.69807 0.45697-0.69807 0.52892 0 0.76122 0.65958 0.33696 0.95674-0.26169 0.18329-0.27533 0.1846-0.50812 0.04898zm-2.4377-2.3377c-0.31474-0.17614-0.4066-0.4791-0.22794-0.75176 0.2909-0.44396 0.96735-0.23029 0.96735 0.30557 0 0.35993-0.42994 0.61938-0.73941 0.44619zm3.5413-2.8046c-0.34618-0.38252-0.12518-0.92918 0.37566-0.92918 0.42385 0 0.61776 0.64522 0.28454 0.94678-0.24081 0.21793-0.45214 0.2123-0.66019-0.0176z" style="stroke-width:.10132"/>
</svg>
