<svg version="1.1" viewBox="0 0 40 40" xmlns="http://www.w3.org/2000/svg">
 <path d="m19.246 33.119c-1.4629-0.12804-2.7115-0.51936-4.0961-1.2837-1.045-0.57682-2.2178-1.6561-3.0186-2.778-0.89947-1.26-1.4639-2.7172-1.7001-4.3893-0.05981-0.42332-0.05105-1.5856 0.01514-2.0053 0.11998-0.76097 0.35716-1.5523 0.75136-2.5067 0.23491-0.56872 1.0014-2.123 1.3951-2.829 1.3006-2.3323 3.1983-5.1386 5.3247-7.8736 0.59356-0.76348 2.0644-2.6025 2.0815-2.6025 0.01252 0 1.2981 1.6077 1.8224 2.2791 2.4289 3.1103 4.4138 6.0317 5.6395 8.3002 0.41109 0.76086 1.046 2.0357 1.2694 2.5488 0.39886 0.91624 0.70407 1.9269 0.82481 2.7313 0.0737 0.49085 0.07268 1.5399-0.0021 2.0499-0.26037 1.7798-0.9322 3.3675-1.9876 4.6968-1.3634 1.7174-3.184 2.8938-5.2856 3.4155-0.95937 0.23815-2.0837 0.32938-3.0338 0.24621zm-0.76997-2.8746c0-0.0076-0.21829-0.15745-0.48509-0.33325-0.65326-0.43052-1.0487-0.75107-1.5642-1.2678-0.5113-0.51258-0.74755-0.80122-1.1489-1.4036-0.63902-0.95926-1.0553-1.9608-1.2952-3.1162-0.14383-0.69257-0.17254-1.029-0.17184-2.0118 8.18e-4 -1.1563 0.08969-1.8784 0.38276-3.1106 0.06849-0.28797 0.13174-0.55474 0.14059-0.59286 0.02737-0.11852-0.02912-0.0772-0.1871 0.13695-0.85288 1.1555-1.4127 2.5562-1.6348 4.0902-0.07533 0.5205-0.07574 1.7459-8.18e-4 2.3486 0.17801 1.4307 0.6742 2.4825 1.6281 3.4511 1.067 1.0835 2.4393 1.6747 4.1823 1.802 0.07621 0.0058 0.14205 0.01252 0.1463 0.01543 0.0041 0.0029 0.0079-8.18e-4 0.0079-0.0084z" style="stroke-width:.030798"/>
</svg>
