<svg version="1.1" viewBox="0 0 40 40" xmlns="http://www.w3.org/2000/svg">
 <path d="m11.959 0.76562c-0.11614-9.0638e-4 -0.24902 0.0033562-0.39844 0.011719-1.8655 0.10442-3.5503 0.88034-4.9473 2.2773-1.0548 1.0548-1.7304 2.2349-2.1211 3.7031-0.17434 0.65518-0.20117 0.91713-0.20117 1.9297 0 1.0199 0.026688 1.2752 0.20703 1.9551 0.37859 1.4273 1.0572 2.6184 2.0762 3.6426 0.22585 0.22699 0.47291 0.43797 0.73047 0.63867a5.0916 5.0916 0 0 1 0.55664-0.79492c-0.82296-0.66784-1.505-1.5213-1.9785-2.5156-0.70537-1.4812-0.85639-3.131-0.43555-4.7656 0.15466-0.60072 0.62828-1.6365 0.98047-2.1484 0.67907-0.98699 1.8634-1.9808 2.9336-2.4609 0.44819-0.20109 1.5626-0.54492 1.7676-0.54492 0.035432 0-0.054278 0.2372-0.19922 0.52734-0.5771 1.1552-0.7885 2.1295-0.7793 3.5762 0.005856 0.91473 0.039638 1.2216 0.21094 1.875 0.4059 1.5483 1.2218 2.8942 2.3594 3.9316a11.109 11.109 0 0 1 0.60352-0.7207c-1.4072-1.2855-2.2511-3.1224-2.2363-5.2031 0.009924-1.3979 0.37932-2.6406 1.1191-3.7676 0.57828-0.88087 0.56495-1.1401-0.24805-1.1465zm4.2637 1.9434c-0.38634 0-0.55805 0.42172-0.29102 0.7168 0.16049 0.17735 0.324 0.18178 0.50976 0.013672 0.25705-0.23262 0.10821-0.73047-0.21875-0.73047zm-2.8633 2.1152c-0.1246-6.054e-4 -0.24984 0.057119-0.33398 0.18555-0.13782 0.21033-0.067007 0.44421 0.17578 0.58008 0.23872 0.13359 0.57031-0.066103 0.57031-0.34375 0-0.25835-0.20445-0.42087-0.41211-0.42188zm1.8535 1.793c-0.25788 0-0.46756 0.32233-0.35156 0.53906 0.046569 0.08701 0.14601 0.19281 0.2207 0.23633 0.17957 0.10462 0.18876 0.10428 0.39062-0.037109 0.32727-0.22923 0.14824-0.73828-0.25976-0.73828zm-8.9453 1.6016c-0.17127 0-0.19859 0.039247-0.2207 0.31055-0.018334 0.2248 0.012508 0.33594 0.11133 0.4082 0.21376 0.15631 0.35611-0.016496 0.32812-0.39844-0.020694-0.28231-0.046036-0.32031-0.21875-0.32031zm0.091797 1.0645c-0.042889 0.0040305-0.087253 0.032566-0.13672 0.082031-0.097294 0.097278-0.092464 0.18759 0.037109 0.69336 0.35635 1.3909 1.1435 2.5848 2.2168 3.4512a5.0916 5.0916 0 0 1 0.42188-0.27734c-0.72377-0.54424-1.2929-1.2301-1.7227-2.084-0.18449-0.36656-0.39768-0.92438-0.47461-1.2383-0.10801-0.44077-0.21313-0.63904-0.3418-0.62695z" style="stroke-width:.078154"/>
 <path d="m21.437 9.8862a9.6111 9.6111 0 0 0-7.957 4.2461 4.405 4.405 0 0 0-0.36328-0.01758 4.405 4.405 0 0 0-4.2852 3.4277 5.7844 5.7844 0 0 0-0.11914 0 5.7844 5.7844 0 0 0-5.7871 5.7812 5.7844 5.7844 0 0 0 5.7871 5.7891h20.451a8.2959 8.2959 0 0 0 8.2949-8.2969 8.2959 8.2959 0 0 0-8.2949-8.2969 8.2959 8.2959 0 0 0-1.0449 0.07227 9.6111 9.6111 0 0 0-6.6816-2.7051zm-0.2207 3.0703a8.2984 7.1363 0 0 1 5.7715 2.0078 7.1628 6.1597 0 0 1 0.90039-0.05274 7.1628 6.1597 0 0 1 7.1641 6.1602 7.1628 6.1597 0 0 1-7.1641 6.1582h-17.658a4.9944 4.2949 0 0 1-4.9961-4.2969 4.9944 4.2949 0 0 1 4.9961-4.293 4.9944 4.2949 0 0 1 0.10352 0 3.8034 3.2707 0 0 1 3.6992-2.5449 3.8034 3.2707 0 0 1 0.31445 0.01367 8.2984 7.1363 0 0 1 6.8691-3.1523z" style="stroke-width:3.0059"/>
</svg>
