<svg width="100" height="100" version="1.1" viewBox="0 0 26.458 26.458" xmlns="http://www.w3.org/2000/svg">
 <path d="m13.517 0.7865c-1.916-0.02815-3.848 0.38851-5.6439 1.2759-5.3387 2.6379-8.1352 8.5902-6.7602 14.389 0.11798 0.49754 0.56956 1.6542 1.0034 2.5705 1.5309 3.233 5.0333 5.9907 8.5744 6.7513 5.5559 1.1933 11.45-1.5926 13.883-6.5618 1.0565-2.1575 1.4052-3.592 1.4016-5.7674-0.0058-3.5513-1.1969-6.4141-3.7154-8.9298-2.4008-2.3982-5.5499-3.6806-8.7432-3.7275zm-0.36434 1.2182c1.4067-0.0078 2.906 0.18505 3.9514 0.55096 3.2501 1.1375 5.9359 3.833 7.1438 7.1696 0.52132 1.4401 0.6967 4.3162 0.36721 6.0223-0.82326 4.2629-4.4915 7.9581-8.809 8.8733-3.8679 0.81989-7.6751-0.32061-10.51-3.1481-4.5127-4.5012-4.5212-11.512-0.019235-16.077 1.5875-1.6098 3.4253-2.6521 5.5618-3.1544 0.65919-0.15497 1.4698-0.23164 2.3138-0.23629zm4.9732 2.3356c-0.26125-0.01177-0.43594 0.1131-0.57823 0.37898-0.17798 0.33256-0.11761 0.49249 0.37008 0.98018 0.6438 0.6438 0.95091 0.71066 1.4815 0.32271 0.48156-0.35212 0.24986-1.0304-0.4809-1.4083-0.33375-0.17259-0.58922-0.26446-0.79241-0.27361zm-10.767 0.77978c-0.086132 0-0.17216 0.07426-0.3207 0.22279-0.17644 0.17644-0.26738 0.45985-0.20212 0.62991 0.065251 0.17006 0.30046 0.30921 0.52282 0.30921 0.53758 0 0.7217-0.53841 0.32098-0.93912-0.14853-0.14853-0.23485-0.22279-0.32098-0.22279zm13.114 0.37783c-0.09122 0-0.11516 0.1323-0.05311 0.294 0.06205 0.1617 0.24662 0.294 0.40999 0.294 0.2418 0 0.25146-0.05467 0.05282-0.294-0.1342-0.1617-0.31848-0.294-0.4097-0.294zm-8.0657 0.443c-0.2036 0.0065-0.41067 0.07571-0.61498 0.20959-0.25499 0.16708-0.63802 0.25818-0.85127 0.20241-0.37958-0.09926-1.0342 0.36084-1.0342 0.72695 0 0.1001 0.1763 0.35861 0.3919 0.57421 0.2156 0.2156 0.39219 0.46054 0.39219 0.54435 0 0.08381 0.1371 0.34841 0.30491 0.58799 0.38349 0.54751 1.1479 0.56407 2.002 0.04335 0.98374-0.59979 1.1691-1.1902 0.64168-2.0436-0.35256-0.57046-0.78433-0.85957-1.2323-0.84524zm4.3838 1.1499c-0.34776-0.01021-0.75457 0.15484-1.3615 0.50674-1.1379 0.65984-1.3926 0.97423-1.4005 1.7278-0.0096 0.91761 0.50074 1.5137 1.1702 1.3666 0.3094-0.06795 0.60633-0.03024 0.67843 0.08642 0.25456 0.41189 0.68329 0.12401 1.5587-1.0471 0.70268-0.94001 0.74926-1.7984 0.12518-2.3037-0.26532-0.21484-0.50011-0.32887-0.77059-0.33678zm-9.9077 0.19581c-0.28776 0.0038-0.57954 0.08904-0.85127 0.27935-0.69844 0.48921-0.92278 1.0542-0.53201 1.3399 0.1953 0.1428 0.30065 0.43407 0.2604 0.7192-0.056516 0.40043-0.18019 0.48115-0.75365 0.49325-0.68088 0.01437-0.68552 0.02076-0.63335 0.83318 0.065287 1.0167-0.22129 1.0529-0.78408 0.09905l-0.42463-0.71949-0.15245 0.57019c-0.30639 1.1456-0.4174 2.8286-0.18662 2.8286 0.87107 0 1.4274 2.0822 0.61326 2.2951-0.48658 0.12724-0.48583 0.16865 0.02326 1.499 0.30323 0.79238 0.52769 1.1009 0.83289 1.1444 0.25601 0.03652 0.44156 0.22526 0.47889 0.4875 0.041534 0.29172 0.2442 0.46846 0.6368 0.55469 0.31683 0.06959 0.57622 0.2342 0.57622 0.36577 0 0.13157 0.098988 0.33814 0.21992 0.45908 0.35316 0.35316 0.80651 0.0584 0.70743-0.45994-0.076448-0.3999-0.027838-0.44412 0.37812-0.34223 0.6699 0.16813 1.6056-0.28341 1.9443-0.93826 0.23655-0.45744 0.3585-0.52798 0.64656-0.37381 0.25214 0.13494 0.47722 0.10446 0.77719-0.10566 0.54292-0.38028 0.53908-0.95351-0.0089-1.3373-0.38246-0.26789-0.48129-0.26923-0.8751-0.01117-0.40563 0.26578-0.46205 0.25711-0.65374-0.10107-0.16521-0.3087-0.149-0.3919 0.076088-0.3919 0.47201 0 1.4685-1.146 1.5983-1.838 0.26533-1.4143-0.97311-2.8638-2.4484-2.8653-0.52593-5.71e-4 -0.62392-0.05307-0.44099-0.236 0.12936-0.12936 0.23801-0.4601 0.24146-0.73499 0.003484-0.27489 0.13573-0.67102 0.294-0.88027 0.85895-1.1356-0.3129-2.6494-1.5598-2.6328zm13.422 0.04709c-0.14706-0.0085-0.30022 0.04552-0.53402 0.15762-1.0888 0.52206-1.2084 1.9897-0.20183 2.476 0.55648 0.26886 0.60475 0.27063 1.2056 0.04221 1.0209-0.38813 1.0371-1.7981 0.02842-2.4591-0.20997-0.13758-0.35107-0.20832-0.49813-0.21676zm-8.5371 3.0643c-0.52946 0-0.77238 0.2762-0.61154 0.69537 0.14092 0.36726 0.7894 0.3667 1.0944-8.6e-4 0.31431-0.37873 0.09469-0.69451-0.48291-0.69451zm7.546 1.3721c-0.49866 0-0.71556 0.49188-0.38989 0.88428 0.13306 0.16033 0.30849 0.2917 0.38989 0.2917 0.28551 0 0.63056-0.5862 0.51794-0.87969-0.06257-0.16307-0.29558-0.29629-0.51794-0.29629zm-13.475 0.58799c0.52739 0 0.7419 0.07659 0.68532 0.2449-0.045295 0.13475 0.1759 0.35441 0.49152 0.48808 0.31562 0.13367 0.61806 0.412 0.67211 0.61871 0.054053 0.20671 0.26605 0.41981 0.47114 0.47344 0.48693 0.12734 0.67831 0.65094 0.37266 1.0192-0.30657 0.36938-0.91051 0.37656-1.1151 0.0132-0.086204-0.15308-0.46536-0.30752-0.84265-0.34309-0.60589-0.0571-0.71566-0.15562-0.94027-0.84352-0.13987-0.42836-0.38266-0.9206-0.53947-1.0939-0.38082-0.4208-0.17897-0.57708 0.74475-0.57708zm0.66551 3.9265c0.14551 0.0013 0.28869 0.06857 0.37496 0.20815 0.073012 0.11814 0.012015 0.33546-0.13551 0.48291-0.34001 0.3399-0.86189 0.05158-0.69479-0.38386 0.077482-0.20192 0.26827-0.30899 0.45535-0.3072zm6.2173 0.77748c-0.60561 0-1.6399 0.98482-1.6399 1.5616 0 0.22879 0.21659 0.63261 0.48119 0.8972 0.58642 0.58642 1.6287 0.64199 2.2719 0.12116 0.95563-0.77382 0.17634-2.5799-1.1131-2.5799zm-2.7726 3.2489c-0.072076-0.0047-0.1453 0.0017-0.2182 0.02068-0.34374 0.08989-0.77381 0.77887-0.57794 0.92592 0.036788 0.02762 0.28576 0.19817 0.55325 0.37869 0.58535 0.39504 0.79637 0.34731 1.0092-0.22796 0.18212-0.49231-0.26175-1.0642-0.76628-1.0973zm6.0327 0.08297c-0.1078 0-0.19609 0.0883-0.19609 0.19609s0.0883 0.1958 0.19609 0.1958c0.1078 0 0.19581-0.08801 0.19581-0.1958 0-0.10779-0.08801-0.19609-0.19581-0.19609zm-4.722 2.9664c-0.04048 0.0012-0.08308 0.0043-0.12776 0.0095-0.71776 0.08256-0.6891 0.42173 0.04766 0.56244 0.70451 0.13455 0.77098 0.10135 0.61354-0.30893-0.07012-0.18274-0.25009-0.27127-0.53344-0.26299z" style="stroke-width:.196"/>
</svg>
