<?xml version="1.0" encoding="UTF-8" standalone="no"?>
<!-- Created with Inkscape (http://www.inkscape.org/) -->

<svg
   width="100"
   height="100"
   viewBox="0 0 26.458333 26.458334"
   version="1.1"
   id="svg5"
   inkscape:version="1.1.2 (b8e25be833, 2022-02-05)"
   sodipodi:docname="moon.svg"
   xmlns:inkscape="http://www.inkscape.org/namespaces/inkscape"
   xmlns:sodipodi="http://sodipodi.sourceforge.net/DTD/sodipodi-0.dtd"
   xmlns="http://www.w3.org/2000/svg"
   xmlns:svg="http://www.w3.org/2000/svg">
  <sodipodi:namedview
     id="namedview7"
     pagecolor="#ffffff"
     bordercolor="#666666"
     borderopacity="1.0"
     inkscape:pageshadow="2"
     inkscape:pageopacity="0.0"
     inkscape:pagecheckerboard="0"
     inkscape:document-units="mm"
     showgrid="false"
     units="px"
     inkscape:snap-bbox="true"
     inkscape:bbox-paths="true"
     inkscape:bbox-nodes="true"
     inkscape:snap-bbox-midpoints="true"
     inkscape:zoom="2.8792368"
     inkscape:cx="44.108911"
     inkscape:cy="29.348055"
     inkscape:window-width="1920"
     inkscape:window-height="1001"
     inkscape:window-x="-9"
     inkscape:window-y="-9"
     inkscape:window-maximized="1"
     inkscape:current-layer="layer1" />
  <defs
     id="defs2" />
  <g
     inkscape:label="Слой 1"
     inkscape:groupmode="layer"
     id="layer1">
    <path
       id="path834"
       style="fill:#000000;stroke-width:0.195996"
       d="M 13.51703,0.78649629 C 11.601037,0.75834629 9.6690456,1.1750043 7.8731103,2.0623943 2.5343766,4.7003113 -0.26212195,10.652576 1.1129255,16.451258 c 0.1179825,0.497536 0.5695551,1.654168 1.0034338,2.570456 1.5308564,3.232952 5.0332758,5.990738 8.5744047,6.751284 5.555875,1.193262 11.45001,-1.592595 13.883273,-6.561795 1.056472,-2.157525 1.405204,-3.59199 1.401648,-5.767376 C 25.969885,9.8924853 24.778822,7.0297663 22.260254,4.5139873 19.859419,2.1158093 16.710351,0.83340429 13.51703,0.78649629 Z M 13.152693,2.0046843 c 1.40666,-0.0078 2.905992,0.185051 3.951433,0.550956 3.250092,1.137533 5.935931,3.832987 7.14376,7.169598 0.521322,1.4401467 0.696699,4.3161897 0.367206,6.0223247 -0.823259,4.262903 -4.491466,7.958085 -8.80897,8.873281 C 11.938226,25.440736 8.1310594,24.30023 5.2963393,21.472734 0.78360415,16.971501 0.77512795,9.9604323 5.2771043,5.3954003 c 1.5875192,-1.609755 3.4252753,-2.652139 5.5618077,-3.154428 0.65919,-0.154972 1.469787,-0.231635 2.313784,-0.236288 z m 4.973241,2.335604 c -0.261251,-0.01177 -0.435939,0.113105 -0.57823,0.378979 -0.17798,0.33256 -0.11761,0.492489 0.37008,0.980178 0.6438,0.6438 0.950906,0.71066 1.481463,0.322706 0.481555,-0.352121 0.249856,-1.030364 -0.480901,-1.408252 -0.333754,-0.172592 -0.589216,-0.264463 -0.792412,-0.273611 z M 7.3586178,5.1200663 c -0.086132,0 -0.1721643,0.07426 -0.3206973,0.222794 -0.1764354,0.176438 -0.2673793,0.459853 -0.2021225,0.629909 0.065251,0.170057 0.3004565,0.309213 0.5228198,0.309213 0.5375844,0 0.7216972,-0.53841 0.3209832,-0.939122 C 7.5310693,5.1943273 7.4447498,5.1200663 7.3586178,5.1200663 Z m 13.1141182,0.377831 c -0.09122,0 -0.115164,0.132298 -0.05311,0.293996 0.06205,0.161699 0.246624,0.293996 0.409986,0.293996 0.241799,0 0.251459,-0.05467 0.05282,-0.293996 -0.134196,-0.161698 -0.318484,-0.293996 -0.409696,-0.293996 z m -8.065655,0.443004 c -0.203602,0.0065 -0.410668,0.07571 -0.614981,0.209587 -0.254992,0.167076 -0.638022,0.258175 -0.851267,0.202409 -0.379577,-0.09926 -1.0341542,0.360837 -1.0341542,0.72695 0,0.100105 0.1763022,0.358614 0.3918992,0.574212 0.215597,0.215597 0.392186,0.460539 0.392186,0.544352 0,0.08381 0.137097,0.34841 0.304906,0.587993 0.383488,0.547507 1.147928,0.564074 2.001986,0.04335 0.98374,-0.599788 1.169113,-1.190211 0.641681,-2.043616 -0.352562,-0.570457 -0.784334,-0.859567 -1.232256,-0.845238 z m 4.383812,1.149857 c -0.347759,-0.01021 -0.754567,0.154837 -1.361453,0.506742 -1.13794,0.659837 -1.392584,0.97423 -1.4005,1.7278 -0.0096,0.9176117 0.500742,1.5136687 1.170241,1.3666217 0.309403,-0.06795 0.606329,-0.03024 0.67843,0.08642 0.254564,0.411893 0.683293,0.124006 1.558695,-1.0470727 0.702679,-0.940012 0.749256,-1.798388 0.125179,-2.303734 -0.265315,-0.21484 -0.500112,-0.328866 -0.770592,-0.336775 z M 6.88317,7.2865643 c -0.2877559,0.0038 -0.5795438,0.08904 -0.8512676,0.279353 -0.6984419,0.489209 -0.9227768,1.054181 -0.5320061,1.339922 0.1953007,0.142804 0.3006511,0.434072 0.2604049,0.719199 -0.056516,0.4004317 -0.1801936,0.4811527 -0.7536522,0.4932457 -0.6808754,0.01437 -0.6855178,0.02076 -0.6333544,0.833181 0.065287,1.016745 -0.2212941,1.052911 -0.784085,0.09905 L 3.1645808,10.331029 3.0121275,10.90122 c -0.3063892,1.145631 -0.4173961,2.828564 -0.186619,2.828564 0.8710664,0 1.4274307,2.082211 0.6132579,2.295121 -0.4865781,0.127243 -0.485832,0.168649 0.02326,1.498977 0.3032269,0.792382 0.5276856,1.100873 0.8328914,1.144403 0.2560064,0.03652 0.4415633,0.225255 0.4788923,0.487504 0.041534,0.291723 0.244201,0.46846 0.6368003,0.554688 0.3168322,0.06959 0.5762207,0.2342 0.5762207,0.365774 0,0.131571 0.098988,0.338144 0.2199232,0.45908 0.3531581,0.353158 0.8065136,0.0584 0.7074275,-0.459942 -0.076448,-0.3999 -0.027838,-0.444119 0.3781182,-0.342231 0.669899,0.168133 1.6056431,-0.283414 1.944278,-0.93826 0.2365494,-0.457436 0.3585042,-0.527975 0.6465615,-0.373811 0.2521405,0.134943 0.4772185,0.104455 0.7771945,-0.105655 0.54292,-0.38028 0.539085,-0.953514 -0.0089,-1.337336 -0.382465,-0.267887 -0.481294,-0.269226 -0.8750975,-0.01117 -0.4056269,0.265778 -0.4620543,0.257106 -0.6537398,-0.101066 -0.1652091,-0.308697 -0.1489968,-0.3919 0.076088,-0.3919 0.4720064,0 1.4684914,-1.146021 1.5983164,-1.838048 C 11.062329,13.221596 9.8238868,11.772155 8.3485655,11.770599 7.82264,11.770028 7.7246412,11.717529 7.9075717,11.534598 8.0369296,11.40524 8.1455828,11.074494 8.1490273,10.799608 8.1525113,10.524722 8.2847541,10.128593 8.4430236,9.9193423 9.3019745,8.7837083 8.1301273,7.2699483 6.8831787,7.2865863 Z m 13.42247,0.04709 c -0.147059,-0.0085 -0.300222,0.04552 -0.534017,0.157622 -1.0888,0.522064 -1.208436,1.989659 -0.201834,2.475997 0.556478,0.2688587 0.60475,0.2706317 1.205555,0.04221 1.020852,-0.3881277 1.037144,-1.7981177 0.02842,-2.4590587 -0.209973,-0.137579 -0.35107,-0.208322 -0.498127,-0.216765 z m -8.537082,3.0642767 c -0.529464,0 -0.772384,0.276202 -0.611535,0.695369 0.140922,0.367261 0.789395,0.366704 1.094446,-8.6e-4 0.314313,-0.378726 0.09469,-0.694509 -0.482911,-0.694509 z m 7.545993,1.372077 c -0.498659,0 -0.715557,0.49188 -0.389889,0.884285 0.133059,0.160326 0.308489,0.291699 0.389889,0.291699 0.285509,0 0.630561,-0.586195 0.517939,-0.87969 -0.06257,-0.163071 -0.295576,-0.296294 -0.517939,-0.296294 z M 5.83983,12.357998 c 0.5273853,0 0.741902,0.07659 0.6853209,0.2449 -0.045295,0.134749 0.1759044,0.354412 0.4915244,0.48808 0.3156199,0.133669 0.6180551,0.412002 0.6721132,0.618713 0.054053,0.206708 0.2660541,0.419806 0.4711406,0.473436 0.4869252,0.127335 0.6783104,0.650944 0.3726625,1.019225 -0.3065659,0.36938 -0.9105064,0.376564 -1.1151171,0.0132 C 7.3312704,15.062469 6.9521153,14.908027 6.5748201,14.872464 5.968932,14.815364 5.8591578,14.716844 5.6345489,14.028947 5.494682,13.600586 5.2518928,13.108352 5.0950782,12.935076 4.7142567,12.514273 4.9161077,12.357994 5.83983,12.357994 Z m 0.6655102,3.926454 c 0.1455053,0.0013 0.288693,0.06857 0.3749596,0.208151 0.073012,0.118139 0.012015,0.335457 -0.1355141,0.482912 -0.3400082,0.339897 -0.8618872,0.05158 -0.6947943,-0.38386 0.077482,-0.201918 0.2682708,-0.30899 0.4553488,-0.307203 z m 6.2172688,0.777481 c -0.605614,0 -1.639946,0.984818 -1.639946,1.561567 0,0.22879 0.216592,0.632608 0.481188,0.897205 0.58642,0.586422 1.628672,0.641986 2.271866,0.121158 0.95563,-0.773821 0.176341,-2.57993 -1.113108,-2.57993 z M 9.9500317,20.31082 c -0.072076,-0.0047 -0.1452969,0.0017 -0.2182002,0.02068 -0.3437371,0.08989 -0.7738134,0.778868 -0.5779432,0.925916 0.036788,0.02762 0.2857644,0.19817 0.5532522,0.37869 0.5853515,0.395042 0.7963695,0.347311 1.0091755,-0.22796 0.182119,-0.492311 -0.261746,-1.064236 -0.7662843,-1.097317 z m 6.0326603,0.08297 c -0.107799,0 -0.196093,0.0883 -0.196093,0.196094 0,0.107794 0.0883,0.195805 0.196093,0.195805 0.107799,0 0.195806,-0.08801 0.195806,-0.195805 0,-0.107794 -0.08801,-0.196094 -0.195806,-0.196094 z m -4.722024,2.966375 c -0.04048,0.0012 -0.08308,0.0043 -0.127762,0.0095 -0.717758,0.08256 -0.689102,0.421727 0.04766,0.56244 0.70451,0.134551 0.770985,0.101354 0.613545,-0.308926 -0.07012,-0.182736 -0.250088,-0.271268 -0.533442,-0.262988 z" />
  </g>
</svg>
