<?xml version="1.0" encoding="UTF-8" standalone="no"?>
<svg
   width="100"
   height="100"
   version="1.1"
   viewBox="0 0 26.458 26.458"
   id="svg4"
   sodipodi:docname="moon_phases_source.svg"
   inkscape:version="1.1.2 (b8e25be833, 2022-02-05)"
   xmlns:inkscape="http://www.inkscape.org/namespaces/inkscape"
   xmlns:sodipodi="http://sodipodi.sourceforge.net/DTD/sodipodi-0.dtd"
   xmlns="http://www.w3.org/2000/svg"
   xmlns:svg="http://www.w3.org/2000/svg">
  <defs
     id="defs8" />
  <sodipodi:namedview
     id="namedview6"
     pagecolor="#ffffff"
     bordercolor="#666666"
     borderopacity="1.0"
     inkscape:pageshadow="2"
     inkscape:pageopacity="0.0"
     inkscape:pagecheckerboard="0"
     showgrid="false"
     inkscape:snap-bbox="true"
     inkscape:snap-bbox-midpoints="true"
     inkscape:bbox-paths="true"
     inkscape:bbox-nodes="true"
     inkscape:snap-bbox-edge-midpoints="true"
     inkscape:zoom="2.8567114"
     inkscape:cx="-263.93986"
     inkscape:cy="246.26219"
     inkscape:window-width="1920"
     inkscape:window-height="1001"
     inkscape:window-x="-9"
     inkscape:window-y="-9"
     inkscape:window-maximized="1"
     inkscape:current-layer="svg4" />
  <path
     d="M 13.456292,0.14894745 C 11.460852,0.11963031 9.4487476,0.55356558 7.5783876,1.4777479 2.0183379,4.2250189 -0.8941087,10.42411 0.53790063,16.463336 c 0.12287155,0.518168 0.59317467,1.722785 1.04500227,2.677076 1.5943732,3.367044 5.2419875,6.239082 8.9299061,7.031218 5.786255,1.242776 11.924732,-1.658632 14.458608,-6.833861 1.100303,-2.246953 1.463462,-3.740929 1.459712,-6.006525 C 26.425074,9.6327028 25.184604,6.6512072 22.561683,4.0312029 20.061344,1.5335703 16.781678,0.19800028 13.455979,0.14915574 Z M 13.076845,1.4176557 c 1.465024,-0.00812 3.026487,0.1927223 4.115231,0.5738035 3.384853,1.1846623 6.18201,3.9919214 7.439991,7.4668615 0.542935,1.4998073 0.725586,4.4951553 0.382436,6.2719923 -0.857394,4.439646 -4.677725,8.288054 -9.174234,9.241199 C 11.812001,25.825395 7.8469492,24.637609 4.8945104,21.692887 0.19470783,17.005062 0.18585542,9.7035844 4.874478,4.9493136 6.5277978,3.2727691 8.4417955,2.1872539 10.666877,1.6641279 11.353399,1.5027327 12.197617,1.4228838 13.076611,1.418041 Z m 5.179395,2.4324371 c -0.272081,-0.012258 -0.454014,0.1177892 -0.602203,0.3946931 -0.185359,0.3463483 -0.122487,0.5129092 0.385423,1.0208195 0.670493,0.6704928 0.990337,0.740125 1.542926,0.33609 0.501526,-0.3667194 0.260219,-1.0731218 -0.50084,-1.46669 C 18.733959,3.9552596 18.467897,3.8595805 18.256282,3.8500511 Z M 7.0428265,4.6622035 c -0.089703,0 -0.179298,0.077339 -0.3339967,0.2320272 -0.1837554,0.1837554 -0.2784659,0.478916 -0.2105001,0.6560269 0.067956,0.177111 0.3129174,0.3220303 0.5444968,0.3220303 0.5598688,0 0.7516227,-0.5607333 0.3342883,-0.9780572 C 7.2224266,4.7395424 7.1325276,4.6622035 7.0428265,4.6622035 Z M 20.70055,5.0556988 c -0.095,0 -0.119934,0.1377854 -0.05532,0.3061897 0.06463,0.1684043 0.256846,0.3061896 0.426989,0.3061896 0.251826,0 0.261886,-0.056937 0.05501,-0.3061896 C 20.987467,5.1934842 20.795546,5.0556988 20.700544,5.0556988 Z m -8.400114,0.4613675 c -0.212042,0.00677 -0.427697,0.078849 -0.640478,0.2182799 -0.265562,0.1740073 -0.664473,0.2688844 -0.886565,0.2108021 -0.395318,-0.1033754 -1.077079,0.375801 -1.077079,0.7570903 0,0.1042503 0.1836091,0.3734785 0.408149,0.5980175 0.224538,0.2245392 0.40845,0.4796347 0.40845,0.5669195 0,0.087285 0.142785,0.3628556 0.317552,0.6123689 0.39939,0.5702105 1.195494,0.5874571 2.085006,0.045147 1.024527,-0.6246582 1.217573,-1.2395473 0.668285,-2.1283304 -0.367177,-0.5941121 -0.81685,-0.895209 -1.283393,-0.8802848 z m 4.565558,1.1975763 c -0.362178,-0.010633 -0.785856,0.1612599 -1.41795,0.5277502 -1.185079,0.6871978 -1.450339,1.0146229 -1.458566,1.7994369 -0.01,0.9556554 0.521501,1.5764593 1.218718,1.4232613 0.322228,-0.07077 0.631469,-0.03149 0.706559,0.09001 0.265114,0.428968 0.71162,0.129152 1.623325,-1.0905141 C 18.269894,8.4855954 18.318406,7.5916154 17.668451,7.065365 17.39213,6.8416176 17.147605,6.7228598 16.86591,6.7146219 Z M 6.5475075,6.9185712 C 6.2478165,6.9225288 5.943939,7.0113029 5.6609427,7.2095034 4.9335445,7.7189967 4.699903,8.307412 5.1068748,8.6049575 5.3102723,8.7536781 5.4199902,9.0570247 5.3780714,9.3539765 5.3192119,9.7710089 5.1904105,9.8550758 4.5931741,9.8676775 3.8840638,9.8826455 3.8792315,9.8892957 3.9335645,10.735402 c 0.067994,1.058854 -0.230465,1.096555 -0.816589,0.103157 L 2.6747398,10.089237 2.515969,10.683069 c -0.3190934,1.193098 -0.434706,2.945877 -0.1943575,2.945877 0.9071857,0 1.4865818,2.168531 0.6386865,2.390258 -0.5067542,0.132515 -0.5059731,0.175643 0.024225,1.561151 0.3158024,0.825232 0.5495688,1.146544 0.8674227,1.191848 0.2666246,0.03804 0.4598677,0.2346 0.4987455,0.507713 0.043256,0.303814 0.2543249,0.487882 0.6632026,0.577688 0.3299661,0.07248 0.6001108,0.24391 0.6001108,0.380935 0,0.137025 0.1030922,0.35216 0.2290382,0.478114 0.3678025,0.367802 0.839949,0.06082 0.7367611,-0.47901 -0.079618,-0.41648 -0.028993,-0.462534 0.3937969,-0.356419 0.6976751,0.175101 1.6721704,-0.29516 2.0249133,-0.977162 0.2463577,-0.476406 0.373364,-0.54987 0.6733671,-0.389308 0.262594,0.140535 0.4970068,0.10879 0.8094138,-0.110041 0.56543,-0.396047 0.561431,-0.993044 -0.0092,-1.392746 -0.398317,-0.278997 -0.5012448,-0.280393 -0.9113827,-0.01163 -0.4224476,0.2768 -0.4812069,0.26777 -0.6808446,-0.10526 -0.1720598,-0.321499 -0.1551777,-0.408149 0.079243,-0.408149 0.4915799,0 1.5293853,-1.193515 1.6645673,-1.914206 0.276292,-1.47294 -1.0134949,-2.982537 -2.5499526,-2.9841 C 7.5259584,11.588025 7.4239056,11.533353 7.6144201,11.342835 7.7491435,11.208111 7.8622983,10.863658 7.8658914,10.577371 7.8695198,10.291083 8.0072489,9.8785293 8.172081,9.660603 9.0666442,8.4779201 7.8462077,6.9013558 6.5476096,6.9186441 Z m 13.9784935,0.049042 c -0.153156,-0.00885 -0.312667,0.047407 -0.556161,0.1641551 -1.133942,0.5437053 -1.258501,2.0721957 -0.210198,2.5786579 0.579552,0.2800077 0.629824,0.2818509 1.255587,0.043961 1.063227,-0.4042224 1.080099,-1.8726517 0.0296,-2.5610576 C 20.82615,7.0500453 20.679201,6.9763723 20.526043,6.9675823 Z m -8.891059,3.1913498 c -0.551412,0 -0.804404,0.287652 -0.636895,0.724201 0.146763,0.382487 0.822129,0.381905 1.139775,-8.95e-4 0.327341,-0.394433 0.09861,-0.723306 -0.502933,-0.723306 z m 7.858867,1.428989 c -0.519335,0 -0.745228,0.512275 -0.406055,0.920944 0.138577,0.166977 0.321281,0.303795 0.406055,0.303795 0.297348,0 0.656704,-0.610505 0.539415,-0.916164 -0.06516,-0.169831 -0.307835,-0.308575 -0.539415,-0.308575 z M 5.4601177,12.200321 c 0.5492563,0 0.7726602,0.07976 0.7137343,0.255054 -0.047173,0.140337 0.1831931,0.369104 0.511899,0.508317 0.3287061,0.139212 0.6436857,0.429082 0.6999767,0.644363 0.056294,0.21528 0.2770807,0.437215 0.4906741,0.493069 0.5071188,0.13262 0.7064336,0.677929 0.3881109,1.061457 -0.3192808,0.384695 -0.9482609,0.392173 -1.1613335,0.01375 C 7.0134011,15.016901 6.6185248,14.856058 6.2255918,14.819013 5.5945808,14.759546 5.4802595,14.656941 5.2463369,13.94052 5.1006678,13.494399 4.8478113,12.981751 4.6844998,12.801265 4.2878904,12.363019 4.4981094,12.200259 5.4601281,12.200259 Z m 0.6931029,4.089298 c 0.1515431,0.0014 0.3006596,0.07142 0.3905064,0.21678 0.076039,0.123039 0.012513,0.349369 -0.1411284,0.502933 -0.3541073,0.353993 -0.8976252,0.05372 -0.723597,-0.399776 0.080694,-0.210291 0.2793929,-0.321801 0.4742294,-0.319937 z m 6.4750784,0.809716 c -0.630721,0 -1.707893,1.025652 -1.707893,1.626346 0,0.238276 0.22557,0.658839 0.501141,0.934399 0.610734,0.610734 1.696228,0.668608 2.366095,0.126184 0.995253,-0.805905 0.183652,-2.686866 -1.15925,-2.686866 z m -2.8875564,3.383603 c -0.075068,-0.0049 -0.1513246,0.0018 -0.2272465,0.02154 -0.3579923,0.09362 -0.8058936,0.811163 -0.6019025,0.96431 0.038313,0.02876 0.297608,0.206386 0.5761889,0.394391 0.6096195,0.411418 0.8293875,0.36171 1.0510415,-0.237411 0.189672,-0.512723 -0.272602,-1.108324 -0.7980506,-1.142796 z m 6.2828244,0.08641 c -0.11227,0 -0.204221,0.09196 -0.204221,0.20422 0,0.112259 0.09196,0.203918 0.204221,0.203918 0.112268,0 0.203928,-0.09166 0.203928,-0.203918 0,-0.112259 -0.09166,-0.20422 -0.203928,-0.20422 z m -4.917781,3.089391 c -0.04215,0.0013 -0.08652,0.0045 -0.133058,0.0099 -0.747519,0.08599 -0.71767,0.439216 0.04964,0.58576 0.733719,0.140129 0.802945,0.105552 0.638978,-0.321739 -0.07302,-0.190316 -0.26046,-0.282517 -0.555557,-0.273894 z"
     style="stroke-width:0.204126"
     id="path2" />
  <path
     id="path1623"
     style="fill:#0000ff;fill-opacity:0.704286;stroke-width:0.32737"
     d="m 13.303529,0.25635417 a 13.046158,13.046158 0 0 1 1.997269,0.155544 A 13.046158,13.046158 0 0 0 3.3445732,13.411458 13.046158,13.046158 0 0 0 14.383553,26.300432 13.046158,13.046158 0 0 1 13.303529,26.349002 13.046158,13.046158 0 0 1 0.2574612,13.302934 13.046158,13.046158 0 0 1 13.303529,0.25634917 Z" />
  <path
     id="path1623-2-3"
     style="fill:#0000ff;fill-opacity:0.704286;stroke-width:0.32737"
     d="m 13.303529,0.25635017 a 13.046158,13.046158 0 0 0 -0.997343,0.03927 13.046158,13.046158 0 0 1 0.997343,-0.03927 z m 0,0 a 13.046158,13.046158 0 0 1 0.928614,0.03462 13.046158,13.046158 0 0 0 -0.928614,-0.03462 z m -1.006645,0.03979 A 13.046158,13.046158 0 0 0 11.30626,0.41189317 13.046158,13.046158 0 0 1 23.262485,13.411452 13.046158,13.046158 0 0 1 12.228156,26.299392 13.046158,13.046158 0 0 1 0.2574612,13.302932 13.046158,13.046158 0 0 1 12.296884,0.29614017 Z m 2.296472,0.03204 a 13.046158,13.046158 0 0 1 0.566884,0.06408 13.046158,13.046158 0 0 0 -0.566884,-0.06408 z m 0.953419,0.130223 a 13.046158,13.046158 0 0 1 0.540528,0.102319 13.046158,13.046158 0 0 0 -0.540528,-0.102319 z m 0.940499,0.199986 a 13.046158,13.046158 0 0 1 0.49402,0.13229 13.046158,13.046158 0 0 0 -0.49402,-0.13229 z m 0.913627,0.265097 A 13.046158,13.046158 0 0 1 17.876835,1.0903982 13.046158,13.046158 0 0 0 17.400901,0.92348617 Z m 0.869187,0.32194003 a 13.046158,13.046158 0 0 1 0.479035,0.209287 13.046158,13.046158 0 0 0 -0.479035,-0.209287 z m 0.855234,0.388085 a 13.046158,13.046158 0 0 1 0.457848,0.241843 13.046158,13.046158 0 0 0 -0.457848,-0.241843 z m 0.827329,0.449579 a 13.046158,13.046158 0 0 1 0.446996,0.281116 13.046158,13.046158 0 0 0 -0.446996,-0.281116 z m 0.782372,0.500739 a 13.046158,13.046158 0 0 1 0.454747,0.335892 13.046158,13.046158 0 0 0 -0.454747,-0.335892 z m 0.753433,0.562749 a 13.046158,13.046158 0 0 1 0.507973,0.437177 13.046158,13.046158 0 0 0 -0.507973,-0.437177 z m 0.703824,0.607707 a 13.046158,13.046158 0 0 1 0.6599,0.6599 13.046158,13.046158 0 0 0 -0.6599,-0.6599 z m 0.81131,0.833014 a 13.046158,13.046158 0 0 1 0.462498,0.538461 13.046158,13.046158 0 0 0 -0.462498,-0.538461 z m 0.665067,0.805625 a 13.046158,13.046158 0 0 1 0.353979,0.47955 13.046158,13.046158 0 0 0 -0.353979,-0.47955 z m 0.5643,0.79994 a 13.046158,13.046158 0 0 1 0.293518,0.466632 13.046158,13.046158 0 0 0 -0.293518,-0.466632 z m 0.496604,0.827847 a 13.046158,13.046158 0 0 1 0.242876,0.460431 13.046158,13.046158 0 0 0 -0.242876,-0.460431 z m 0.420124,0.83198 a 13.046158,13.046158 0 0 1 0.212904,0.488853 13.046158,13.046158 0 0 0 -0.212904,-0.488853 z m 0.364314,0.872287 a 13.046158,13.046158 0 0 1 0.171564,0.49092 13.046158,13.046158 0 0 0 -0.171564,-0.49092 z m 0.298169,0.888306 A 13.046158,13.046158 0 0 1 25.95221,10.137275 13.046158,13.046158 0 0 0 25.812168,9.6132842 Z m 0.232025,0.9022588 a 13.046158,13.046158 0 0 1 0.106969,0.563783 13.046158,13.046158 0 0 0 -0.106969,-0.563783 z m 0.168463,0.920862 a 13.046158,13.046158 0 0 1 0.07183,0.638196 13.046158,13.046158 0 0 0 -0.07183,-0.638196 z m 0.101801,0.929648 a 13.046158,13.046158 0 0 1 0.03514,0.936881 13.046158,13.046158 0 0 0 -0.03514,-0.936881 z m 0.03514,0.936881 a 13.046158,13.046158 0 0 1 -0.03514,0.936365 13.046158,13.046158 0 0 0 0.03514,-0.936365 z m -0.06511,1.227816 a 13.046158,13.046158 0 0 1 -0.07183,0.638196 13.046158,13.046158 0 0 0 0.07183,-0.638196 z m -0.13384,0.996826 a 13.046158,13.046158 0 0 1 -0.105936,0.560683 13.046158,13.046158 0 0 0 0.105936,-0.560683 z m -0.197918,0.938432 a 13.046158,13.046158 0 0 1 -0.143142,0.534328 13.046158,13.046158 0 0 0 0.143142,-0.534328 z m -0.26303,0.911561 a 13.046158,13.046158 0 0 1 -0.176731,0.505389 13.046158,13.046158 0 0 0 0.176731,-0.505389 z m -0.327625,0.88779 a 13.046158,13.046158 0 0 1 -0.21032,0.482652 13.046158,13.046158 0 0 0 0.21032,-0.482652 z m -0.391702,0.863502 a 13.046158,13.046158 0 0 1 -0.239776,0.453714 13.046158,13.046158 0 0 0 0.239776,-0.453714 z m -0.443895,0.816995 a 13.046158,13.046158 0 0 1 -0.297136,0.472316 13.046158,13.046158 0 0 0 0.297136,-0.472316 z m -0.500738,0.783404 a 13.046158,13.046158 0 0 1 -0.363281,0.491954 13.046158,13.046158 0 0 0 0.363281,-0.491954 z m -0.559132,0.750333 a 13.046158,13.046158 0 0 1 -0.463015,0.538461 13.046158,13.046158 0 0 0 0.463015,-0.538461 z m -0.614425,0.711575 a 13.046158,13.046158 0 0 1 -0.6599,0.6599 13.046158,13.046158 0 0 0 0.6599,-0.6599 z m -0.855751,0.83043 a 13.046158,13.046158 0 0 1 -0.507973,0.437177 13.046158,13.046158 0 0 0 0.507973,-0.437177 z m -0.800975,0.6599 a 13.046158,13.046158 0 0 1 -0.464565,0.34261 13.046158,13.046158 0 0 0 0.464565,-0.34261 z m -0.781854,0.550347 a 13.046158,13.046158 0 0 1 -0.468183,0.294552 13.046158,13.046158 0 0 0 0.468183,-0.294552 z m -0.819578,0.491953 a 13.046158,13.046158 0 0 1 -0.47025,0.249078 13.046158,13.046158 0 0 0 0.47025,-0.249078 z m -0.843349,0.426327 a 13.046158,13.046158 0 0 1 -0.484719,0.211353 13.046158,13.046158 0 0 0 0.484719,-0.211353 z m -0.86712,0.362246 a 13.046158,13.046158 0 0 1 -0.505389,0.176731 13.046158,13.046158 0 0 0 0.505389,-0.176731 z m -0.882622,0.296619 a 13.046158,13.046158 0 0 1 -0.534328,0.143142 13.046158,13.046158 0 0 0 0.534328,-0.143142 z m -0.912078,0.235124 a 13.046158,13.046158 0 0 1 -0.556548,0.105419 13.046158,13.046158 0 0 0 0.556548,-0.105419 z m -0.920345,0.167947 a 13.046158,13.046158 0 0 1 -0.634579,0.07131 13.046158,13.046158 0 0 0 0.634579,-0.07131 z m -2.908313,0.09095 a 13.046158,13.046158 0 0 0 0.338476,0.0217 13.046158,13.046158 0 0 1 -0.338476,-0.0217 z m 1.980216,0.01085 a 13.046158,13.046158 0 0 1 -0.936882,0.03514 13.046158,13.046158 0 0 0 0.936882,-0.03514 z" />
  <circle
     style="fill:#0000ff;fill-opacity:0.704286;stroke-width:0.327369"
     id="path1623-2"
     cx="-84.06871"
     cy="61.455322"
     r="13.046158" />
  <path
     id="path1623-2-4"
     style="fill:#0000ff;fill-opacity:0.704286;stroke-width:0.32737"
     d="M 13.303529,0.25635017 V 26.349002 A 13.046158,13.046158 0 0 1 0.2574622,13.302933 13.046158,13.046158 0 0 1 13.303529,0.25635017 Z" />
  <path
     id="path1623-2-48"
     style="fill:#0000ff;fill-opacity:0.704286;stroke-width:0.32737"
     d="m 13.303529,0.25633417 a 13.046158,13.046158 0 0 1 0.249594,0.0093 16.827484,16.827484 0 0 1 6.182491,13.03056483 16.827484,16.827484 0 0 1 -6.205745,13.044518 13.046158,13.046158 0 0 1 -0.22634,0.0083 A 13.046158,13.046158 0 0 1 0.25746121,13.302918 13.046158,13.046158 0 0 1 13.303529,0.25633417 Z m 0.88469,0.03307 a 13.046158,13.046158 0 0 1 0.101801,0.0052 13.046158,13.046158 0 0 0 -0.101801,-0.0052 z m 0.09612,26.02237383 a 13.046158,13.046158 0 0 1 -0.07028,0.0031 13.046158,13.046158 0 0 0 0.07028,-0.0031 z" />
  <path
     id="path1623-2-6"
     style="fill:#0000ff;fill-opacity:0.704286;stroke-width:0.32737"
     d="M 13.211805,0.25996717 A 16.827484,16.827484 0 0 0 7.0225972,13.296217 16.827484,16.827484 0 0 0 13.234025,26.345385 13.046158,13.046158 0 0 1 0.3269657,13.304485 13.046158,13.046158 0 0 1 13.211805,0.25996717 Z" />
  <path
     id="path1623-9"
     style="fill:#ff0000;fill-opacity:0.704286;stroke-width:0.32737"
     d="M 13.212579,0.25633909 A 13.046158,13.046158 0 0 0 11.21531,0.41188308 13.046158,13.046158 0 0 1 23.171535,13.411442 13.046158,13.046158 0 0 1 12.132555,26.300414 13.046158,13.046158 0 0 0 13.212579,26.349014 13.046158,13.046158 0 0 0 26.258647,13.302948 13.046158,13.046158 0 0 0 13.212579,0.25636409 Z" />
  <path
     id="path1623-2-3-5"
     style="fill:#ff0000;fill-opacity:0.704286;stroke-width:0.32737"
     d="m 13.212579,0.25632109 a 13.046158,13.046158 0 0 1 0.997343,0.03927 13.046158,13.046158 0 0 0 -0.997343,-0.03927 z m 0,0 a 13.046158,13.046158 0 0 0 -0.928614,0.03462 13.046158,13.046158 0 0 1 0.928614,-0.03462 z m 1.006645,0.03979 a 13.046158,13.046158 0 0 1 0.990624,0.115753 A 13.046158,13.046158 0 0 0 3.2536235,13.411423 13.046158,13.046158 0 0 0 14.287952,26.29936 13.046158,13.046158 0 0 0 26.258647,13.302903 13.046158,13.046158 0 0 0 14.219224,0.29611109 Z m -2.296472,0.03204 a 13.046158,13.046158 0 0 0 -0.566884,0.06408 13.046158,13.046158 0 0 1 0.566884,-0.06408 z m -0.953419,0.130223 a 13.046158,13.046158 0 0 0 -0.540528,0.102319 13.046158,13.046158 0 0 1 0.540528,-0.102319 z m -0.940499,0.199986 a 13.046158,13.046158 0 0 0 -0.4940195,0.13229 13.046158,13.046158 0 0 1 0.4940195,-0.13229 z m -0.9136265,0.265097 A 13.046158,13.046158 0 0 0 8.6392735,1.0903691 13.046158,13.046158 0 0 1 9.1152075,0.92345709 Z M 8.2460205,1.2453971 a 13.046158,13.046158 0 0 0 -0.479035,0.209287 13.046158,13.046158 0 0 1 0.479035,-0.209287 z m -0.855234,0.388085 a 13.046158,13.046158 0 0 0 -0.457848,0.241843 13.046158,13.046158 0 0 1 0.457848,-0.241843 z m -0.827329,0.449579 a 13.046158,13.046158 0 0 0 -0.446996,0.281116 13.046158,13.046158 0 0 1 0.446996,-0.281116 z m -0.782372,0.500739 a 13.046158,13.046158 0 0 0 -0.454747,0.335892 13.046158,13.046158 0 0 1 0.454747,-0.335892 z m -0.753433,0.562749 a 13.046158,13.046158 0 0 0 -0.507973,0.437177 13.046158,13.046158 0 0 1 0.507973,-0.437177 z m -0.703824,0.607707 a 13.046158,13.046158 0 0 0 -0.6599,0.6599 13.046158,13.046158 0 0 1 0.6599,-0.6599 z m -0.81131,0.833014 a 13.046158,13.046158 0 0 0 -0.462498,0.538461 13.046158,13.046158 0 0 1 0.462498,-0.538461 z m -0.665067,0.805625 a 13.046158,13.046158 0 0 0 -0.353979,0.47955 13.046158,13.046158 0 0 1 0.353979,-0.47955 z m -0.5643,0.79994 a 13.046158,13.046158 0 0 0 -0.293518,0.466632 13.046158,13.046158 0 0 1 0.293518,-0.466632 z m -0.496604,0.827847 a 13.046158,13.046158 0 0 0 -0.242876,0.460431 13.046158,13.046158 0 0 1 0.242876,-0.460431 z m -0.420124,0.83198 a 13.046158,13.046158 0 0 0 -0.212904,0.488853 13.046158,13.046158 0 0 1 0.212904,-0.488853 z m -0.364314,0.872287 a 13.046158,13.046158 0 0 0 -0.171564,0.49092 13.046158,13.046158 0 0 1 0.171564,-0.49092 z m -0.298169,0.888306 a 13.046158,13.046158 0 0 0 -0.140042,0.5239909 13.046158,13.046158 0 0 1 0.140042,-0.5239909 z m -0.232025,0.9022589 a 13.046158,13.046158 0 0 0 -0.106969,0.563783 13.046158,13.046158 0 0 1 0.106969,-0.563783 z m -0.168463,0.920862 a 13.046158,13.046158 0 0 0 -0.07183,0.638196 13.046158,13.046158 0 0 1 0.07183,-0.638196 z m -0.101801,0.929648 a 13.046158,13.046158 0 0 0 -0.03514,0.936881 13.046158,13.046158 0 0 1 0.03514,-0.936881 z m -0.03514,0.936881 a 13.046158,13.046158 0 0 0 0.03514,0.936365 13.046158,13.046158 0 0 1 -0.03514,-0.936365 z m 0.06511,1.227816 a 13.046158,13.046158 0 0 0 0.07183,0.638196 13.046158,13.046158 0 0 1 -0.07183,-0.638196 z m 0.13384,0.996826 a 13.046158,13.046158 0 0 0 0.105936,0.560683 13.046158,13.046158 0 0 1 -0.105936,-0.560683 z m 0.197918,0.938432 a 13.046158,13.046158 0 0 0 0.143142,0.534328 13.046158,13.046158 0 0 1 -0.143142,-0.534328 z m 0.26303,0.911561 a 13.046158,13.046158 0 0 0 0.176731,0.505389 13.046158,13.046158 0 0 1 -0.176731,-0.505389 z m 0.327625,0.88779 a 13.046158,13.046158 0 0 0 0.21032,0.482652 13.046158,13.046158 0 0 1 -0.21032,-0.482652 z m 0.391702,0.863502 a 13.046158,13.046158 0 0 0 0.239776,0.453714 13.046158,13.046158 0 0 1 -0.239776,-0.453714 z m 0.443895,0.816995 a 13.046158,13.046158 0 0 0 0.297136,0.472316 13.046158,13.046158 0 0 1 -0.297136,-0.472316 z m 0.500738,0.783404 a 13.046158,13.046158 0 0 0 0.363281,0.491954 13.046158,13.046158 0 0 1 -0.363281,-0.491954 z m 0.559132,0.750333 a 13.046158,13.046158 0 0 0 0.463015,0.538461 13.046158,13.046158 0 0 1 -0.463015,-0.538461 z m 0.614425,0.711575 a 13.046158,13.046158 0 0 0 0.6599,0.6599 13.046158,13.046158 0 0 1 -0.6599,-0.6599 z m 0.855751,0.83043 a 13.046158,13.046158 0 0 0 0.507973,0.437177 13.046158,13.046158 0 0 1 -0.507973,-0.437177 z m 0.800975,0.6599 a 13.046158,13.046158 0 0 0 0.464565,0.34261 13.046158,13.046158 0 0 1 -0.464565,-0.34261 z m 0.781854,0.550347 a 13.046158,13.046158 0 0 0 0.468183,0.294552 13.046158,13.046158 0 0 1 -0.468183,-0.294552 z m 0.819578,0.491953 a 13.046158,13.046158 0 0 0 0.47025,0.249081 13.046158,13.046158 0 0 1 -0.47025,-0.249081 z m 0.843349,0.426331 a 13.046158,13.046158 0 0 0 0.484719,0.21135 13.046158,13.046158 0 0 1 -0.484719,-0.21135 z m 0.86712,0.36224 a 13.046158,13.046158 0 0 0 0.505389,0.17673 13.046158,13.046158 0 0 1 -0.505389,-0.17673 z m 0.882622,0.29662 A 13.046158,13.046158 0 0 0 10.049503,25.9521 13.046158,13.046158 0 0 1 9.5151755,25.80896 Z m 0.9120775,0.23512 a 13.046158,13.046158 0 0 0 0.556548,0.10542 13.046158,13.046158 0 0 1 -0.556548,-0.10542 z m 0.920345,0.16795 a 13.046158,13.046158 0 0 0 0.634579,0.0713 13.046158,13.046158 0 0 1 -0.634579,-0.0713 z m 2.908313,0.091 a 13.046158,13.046158 0 0 1 -0.338476,0.0217 13.046158,13.046158 0 0 0 0.338476,-0.0217 z m -1.980216,0.0109 a 13.046158,13.046158 0 0 0 0.936882,0.0351 13.046158,13.046158 0 0 1 -0.936882,-0.0351 z" />
  <path
     id="path1623-2-4-8"
     style="fill:#ff0000;fill-opacity:0.704286;stroke-width:0.32737"
     d="M 13.21258,0.25635209 V 26.348999 A 13.046158,13.046158 0 0 0 26.258647,13.302934 13.046158,13.046158 0 0 0 13.21258,0.25635209 Z" />
  <path
     id="path1623-2-48-0"
     style="fill:#ff0000;fill-opacity:0.704286;stroke-width:0.32737"
     d="m 13.212579,0.25648308 a 13.046158,13.046158 0 0 0 -0.249594,0.0093 16.827484,16.827484 0 0 0 -6.1824905,13.03056491 16.827484,16.827484 0 0 0 6.2057445,13.044521 13.046158,13.046158 0 0 0 0.22634,0.008 A 13.046158,13.046158 0 0 0 26.258647,13.303067 13.046158,13.046158 0 0 0 13.212579,0.25648308 Z m -0.88469,0.03307 a 13.046158,13.046158 0 0 0 -0.101801,0.0052 13.046158,13.046158 0 0 1 0.101801,-0.0052 z M 12.231769,26.311929 a 13.046158,13.046158 0 0 0 0.07028,0.003 13.046158,13.046158 0 0 1 -0.07028,-0.003 z" />
  <path
     id="path1623-2-6-8"
     style="fill:#ff0000;fill-opacity:0.704286;stroke-width:0.32737"
     d="M 13.373807,0.25997008 A 16.827484,16.827484 0 0 1 19.563015,13.29622 16.827484,16.827484 0 0 1 13.351587,26.345383 13.046158,13.046158 0 0 0 26.258647,13.304488 13.046158,13.046158 0 0 0 13.373807,0.25997008 Z" />
  <circle
     style="fill:#0000ff;fill-opacity:0.704286;stroke-width:0.422254"
     id="path1623-2-3-8"
     cx="-87.850037"
     cy="91.328964"
     r="16.827484" />
</svg>
