<svg width="100" height="100" version="1.1" viewBox="0 0 26.458 26.458" xmlns="http://www.w3.org/2000/svg">
 <path d="m13.456 0.14895c-1.9954-0.029317-4.0075 0.40462-5.8779 1.3288-5.56 2.7473-8.4725 8.9464-7.0405 14.986 0.12287 0.51817 0.59317 1.7228 1.045 2.6771 1.5944 3.367 5.242 6.2391 8.9299 7.0312 5.7863 1.2428 11.925-1.6586 14.459-6.8339 1.1003-2.247 1.4635-3.7409 1.4597-6.0065-0.006055-3.6985-1.2465-6.68-3.8694-9.3-2.5003-2.4976-5.78-3.8332-9.1057-3.882zm-0.37945 1.2687c1.465-0.00812 3.0265 0.19272 4.1152 0.5738 3.3849 1.1847 6.182 3.9919 7.44 7.4669 0.54294 1.4998 0.72559 4.4952 0.38244 6.272-0.85739 4.4396-4.6777 8.2881-9.1742 9.2412-4.0283 0.85388-7.9933-0.3339-10.946-3.2786-4.6998-4.6878-4.7087-11.989-0.020032-16.744 1.6533-1.6765 3.5673-2.7621 5.7924-3.2852 0.68652-0.1614 1.5307-0.24124 2.4097-0.24609zm5.1794 2.4324c-0.27208-0.012258-0.45401 0.11779-0.6022 0.39469-0.18536 0.34635-0.12249 0.51291 0.38542 1.0208 0.67049 0.67049 0.99034 0.74012 1.5429 0.33609 0.50153-0.36672 0.26022-1.0731-0.50084-1.4667-0.34759-0.17975-0.61365-0.27542-0.82526-0.28495zm-11.213 0.81211c-0.089703 0-0.1793 0.077339-0.334 0.23203-0.18376 0.18376-0.27847 0.47892-0.2105 0.65603 0.067956 0.17711 0.31292 0.32203 0.5445 0.32203 0.55987 0 0.75162-0.56073 0.33429-0.97806-0.15469-0.15469-0.24459-0.23203-0.33429-0.23203zm13.658 0.3935c-0.095 0-0.11993 0.13779-0.05532 0.30619 0.06463 0.1684 0.25685 0.30619 0.42699 0.30619 0.25183 0 0.26189-0.056937 0.05501-0.30619-0.13976-0.1684-0.33168-0.30619-0.42668-0.30619zm-8.4001 0.46137c-0.21204 0.00677-0.4277 0.078849-0.64048 0.21828-0.26556 0.17401-0.66447 0.26888-0.88656 0.2108-0.39532-0.10338-1.0771 0.3758-1.0771 0.75709 0 0.10425 0.18361 0.37348 0.40815 0.59802 0.22454 0.22454 0.40845 0.47963 0.40845 0.56692 0 0.087285 0.14278 0.36286 0.31755 0.61237 0.39939 0.57021 1.1955 0.58746 2.085 0.045147 1.0245-0.62466 1.2176-1.2395 0.66828-2.1283-0.36718-0.59411-0.81685-0.89521-1.2834-0.88028zm4.5656 1.1976c-0.36218-0.010633-0.78586 0.16126-1.418 0.52775-1.1851 0.6872-1.4503 1.0146-1.4586 1.7994-0.01 0.95566 0.5215 1.5765 1.2187 1.4233 0.32223-0.07077 0.63147-0.03149 0.70656 0.09001 0.26511 0.42897 0.71162 0.12915 1.6233-1.0905 0.73181-0.97899 0.78033-1.873 0.13037-2.3992-0.27632-0.22375-0.52085-0.34251-0.80254-0.35074zm-10.318 0.20393c-0.29969 0.0039576-0.60357 0.092732-0.88656 0.29093-0.7274 0.50949-0.96104 1.0979-0.55407 1.3955 0.2034 0.14872 0.31312 0.45207 0.2712 0.74902-0.05886 0.41703-0.18766 0.5011-0.7849 0.5137-0.70911 0.014968-0.71394 0.021618-0.65961 0.86772 0.067994 1.0589-0.23046 1.0966-0.81659 0.10316l-0.44224-0.74932-0.15877 0.59383c-0.31909 1.1931-0.43471 2.9459-0.19436 2.9459 0.90719 0 1.4866 2.1685 0.63869 2.3903-0.50675 0.13252-0.50597 0.17564 0.024225 1.5612 0.3158 0.82523 0.54957 1.1465 0.86742 1.1918 0.26662 0.03804 0.45987 0.2346 0.49875 0.50771 0.043256 0.30381 0.25432 0.48788 0.6632 0.57769 0.32997 0.07248 0.60011 0.24391 0.60011 0.38094s0.10309 0.35216 0.22904 0.47811c0.3678 0.3678 0.83995 0.06082 0.73676-0.47901-0.079618-0.41648-0.028993-0.46253 0.3938-0.35642 0.69768 0.1751 1.6722-0.29516 2.0249-0.97716 0.24636-0.47641 0.37336-0.54987 0.67337-0.38931 0.26259 0.14054 0.49701 0.10879 0.80941-0.11004 0.56543-0.39605 0.56143-0.99304-0.0092-1.3927-0.39832-0.279-0.50124-0.28039-0.91138-0.01163-0.42245 0.2768-0.48121 0.26777-0.68084-0.10526-0.17206-0.3215-0.15518-0.40815 0.079243-0.40815 0.49158 0 1.5294-1.1935 1.6646-1.9142 0.27629-1.4729-1.0135-2.9825-2.55-2.9841-0.54777-5.97e-4 -0.64982-0.055269-0.45931-0.24579 0.13472-0.13472 0.24788-0.47918 0.25147-0.76546 0.0036284-0.28629 0.14136-0.69884 0.30619-0.91677 0.89456-1.1827-0.32587-2.7592-1.6245-2.742zm13.978 0.049042c-0.15316-0.00885-0.31267 0.047407-0.55616 0.16416-1.1339 0.54371-1.2585 2.0722-0.2102 2.5787 0.57955 0.28001 0.62982 0.28185 1.2556 0.043961 1.0632-0.40422 1.0801-1.8727 0.0296-2.5611-0.21868-0.14328-0.36563-0.21696-0.51879-0.22575zm-8.8911 3.1913c-0.55141 0-0.8044 0.28765-0.6369 0.7242 0.14676 0.38249 0.82213 0.3819 1.1398-8.95e-4 0.32734-0.39443 0.09861-0.72331-0.50293-0.72331zm7.8589 1.429c-0.51934 0-0.74523 0.51228-0.40606 0.92094 0.13858 0.16698 0.32128 0.3038 0.40606 0.3038 0.29735 0 0.6567-0.6105 0.53942-0.91616-0.06516-0.16983-0.30784-0.30858-0.53942-0.30858zm-14.034 0.61237c0.54926 0 0.77266 0.07976 0.71373 0.25505-0.047173 0.14034 0.18319 0.3691 0.5119 0.50832 0.32871 0.13921 0.64369 0.42908 0.69998 0.64436 0.056294 0.21528 0.27708 0.43722 0.49067 0.49307 0.50712 0.13262 0.70643 0.67793 0.38811 1.0615-0.31928 0.3847-0.94826 0.39217-1.1613 0.01375-0.089778-0.15943-0.48465-0.32027-0.87759-0.35732-0.63101-0.059467-0.74533-0.16207-0.97925-0.87849-0.14567-0.44612-0.39853-0.95877-0.56184-1.1393-0.39661-0.43825-0.18639-0.60101 0.77563-0.60101zm0.6931 4.0893c0.15154 0.0014 0.30066 0.07142 0.39051 0.21678 0.076039 0.12304 0.012513 0.34937-0.14113 0.50293-0.35411 0.35399-0.89763 0.05372-0.7236-0.39978 0.080694-0.21029 0.27939-0.3218 0.47423-0.31994zm6.4751 0.80972c-0.63072 0-1.7079 1.0257-1.7079 1.6263 0 0.23828 0.22557 0.65884 0.50114 0.9344 0.61073 0.61073 1.6962 0.66861 2.3661 0.12618 0.99525-0.8059 0.18365-2.6869-1.1592-2.6869zm-2.8876 3.3836c-0.075068-0.0049-0.15132 0.0018-0.22725 0.02154-0.35799 0.09362-0.80589 0.81116-0.6019 0.96431 0.038313 0.02876 0.29761 0.20639 0.57619 0.39439 0.60962 0.41142 0.82939 0.36171 1.051-0.23741 0.18967-0.51272-0.2726-1.1083-0.79805-1.1428zm6.2828 0.08641c-0.11227 0-0.20422 0.09196-0.20422 0.20422 0 0.11226 0.09196 0.20392 0.20422 0.20392 0.11227 0 0.20393-0.09166 0.20393-0.20392 0-0.11226-0.09166-0.20422-0.20393-0.20422zm-4.9178 3.0894c-0.04215 0.0013-0.08652 0.0045-0.13306 0.0099-0.74752 0.08599-0.71767 0.43922 0.04964 0.58576 0.73372 0.14013 0.80294 0.10555 0.63898-0.32174-0.07302-0.19032-0.26046-0.28252-0.55556-0.27389z" style="stroke-width:.20413"/>
 <path d="m13.304 0.25635a13.046 13.046 0 0 0-13.046 13.047 13.046 13.046 0 0 0 13.046 13.046 13.046 13.046 0 0 0 13.046-13.046 13.046 13.046 0 0 0-13.046-13.047z" style="fill:#00f;stroke-width:.32737"/>
</svg>
