<?xml version="1.0" encoding="UTF-8" standalone="no"?>
<!-- Created with Inkscape (http://www.inkscape.org/) -->

<svg
   width="100"
   height="100"
   viewBox="0 0 26.458333 26.458334"
   version="1.1"
   id="svg5"
   inkscape:version="1.1.2 (b8e25be833, 2022-02-05)"
   sodipodi:docname="parason_logo.svg"
   xmlns:inkscape="http://www.inkscape.org/namespaces/inkscape"
   xmlns:sodipodi="http://sodipodi.sourceforge.net/DTD/sodipodi-0.dtd"
   xmlns="http://www.w3.org/2000/svg"
   xmlns:svg="http://www.w3.org/2000/svg">
  <sodipodi:namedview
     id="namedview7"
     pagecolor="#ffffff"
     bordercolor="#666666"
     borderopacity="1.0"
     inkscape:pageshadow="2"
     inkscape:pageopacity="0.0"
     inkscape:pagecheckerboard="0"
     inkscape:document-units="mm"
     showgrid="false"
     units="px"
     inkscape:snap-bbox="true"
     inkscape:bbox-paths="true"
     inkscape:bbox-nodes="true"
     inkscape:snap-bbox-edge-midpoints="true"
     inkscape:snap-bbox-midpoints="true"
     inkscape:zoom="4.0718557"
     inkscape:cx="27.014709"
     inkscape:cy="59.309567"
     inkscape:window-width="1920"
     inkscape:window-height="1001"
     inkscape:window-x="-9"
     inkscape:window-y="-9"
     inkscape:window-maximized="1"
     inkscape:current-layer="layer1" />
  <defs
     id="defs2" />
  <g
     inkscape:label="Слой 1"
     inkscape:groupmode="layer"
     id="layer1">
    <path
       id="path2912"
       style="fill:#d40000;stroke-width:0.210225"
       d="M 12.881909,1.3317891 4.9417448,4.6533335 12.881909,12.593497 Z m 0.609767,0.032704 V 12.593497 L 21.454521,4.630652 Z M 4.4881115,5.0616035 1.2219526,13.024448 H 12.450957 Z m 17.3741515,0.023209 -7.939636,7.9396355 h 11.261181 z m -20.6724867,8.5494025 3.321017,7.940164 7.9401637,-7.940164 z m 12.7328507,0 7.962845,7.962846 3.265632,-7.962846 z m -1.040718,0.430952 -7.962846,7.962845 7.962846,3.266159 z m 0.609767,0 V 25.32582 l 7.939636,-3.321017 z" />
    <rect
       style="fill:#d40000;stroke-width:0.224436"
       id="rect4604-1"
       width="0.59995091"
       height="0.79674029"
       x="13.034265"
       y="-25.947845"
       ry="0.22973391"
       rx="0.22973391"
       transform="rotate(90)" />
    <path
       sodipodi:type="star"
       style="fill:#d40000"
       id="path2912-9"
       inkscape:flatsided="true"
       sodipodi:sides="8"
       sodipodi:cx="7.244854"
       sodipodi:cy="10.560296"
       sodipodi:r1="57.590973"
       sodipodi:r2="53.207123"
       sodipodi:arg1="1.1443453"
       sodipodi:arg2="1.5370444"
       inkscape:rounded="0"
       inkscape:randomized="0"
       transform="matrix(0.010507,-0.00398384,0.00398384,0.010507,13.0686,13.24671)"
       d="m 31.066916,62.993392 -44.053118,1.487443 -32.20204,-30.098477 -1.487443,-44.053118 30.098477,-32.20204 44.053118,-1.487443 32.20204,30.098477 1.487443,44.053118 z" />
    <rect
       style="fill:#d40000;stroke-width:0.224436"
       id="rect4604"
       width="0.59995091"
       height="0.79674029"
       x="12.886817"
       y="0.5350489"
       ry="0.22973391"
       rx="0.22973391" />
    <rect
       style="fill:#d40000;stroke-width:0.224436"
       id="rect4604-8"
       width="0.59995091"
       height="0.79674029"
       x="12.886817"
       y="25.325821"
       ry="0.22973391"
       rx="0.22973391" />
    <rect
       style="fill:#d40000;stroke-width:0.224436"
       id="rect4604-2"
       width="0.59995091"
       height="0.79674029"
       x="-0.40551987"
       y="30.71397"
       ry="0.22973391"
       rx="0.22973391"
       transform="rotate(-45)" />
    <rect
       style="fill:#d40000;stroke-width:0.224436"
       id="rect4604-0"
       width="0.59995091"
       height="0.79674029"
       x="18.445004"
       y="12.065777"
       ry="0.22973391"
       rx="0.22973391"
       transform="rotate(45)" />
    <rect
       style="fill:#d40000;stroke-width:0.224436"
       id="rect4604-5"
       width="0.59995091"
       height="0.79674029"
       x="-0.39601332"
       y="5.9880047"
       ry="0.22973391"
       rx="0.22973391"
       transform="rotate(-45)" />
    <rect
       style="fill:#d40000;stroke-width:0.224436"
       id="rect4604-56"
       width="0.59995091"
       height="0.79674029"
       x="18.454508"
       y="-12.660189"
       ry="0.22973391"
       rx="0.22973391"
       transform="rotate(45)" />
    <rect
       style="fill:#d40000;stroke-width:0.224436"
       id="rect4604-7"
       width="0.59995091"
       height="0.79674029"
       x="13.034265"
       y="-1.1897763"
       ry="0.22973391"
       rx="0.22973391"
       transform="rotate(90)" />
  </g>
</svg>
