<?xml version="1.0" encoding="UTF-8" standalone="no"?>
<!-- Created with Inkscape (http://www.inkscape.org/) -->

<svg
   width="100"
   height="100"
   viewBox="0 0 26.458333 26.458334"
   version="1.1"
   id="svg5"
   inkscape:version="1.1.2 (b8e25be833, 2022-02-05)"
   sodipodi:docname="press_o2.svg"
   xmlns:inkscape="http://www.inkscape.org/namespaces/inkscape"
   xmlns:sodipodi="http://sodipodi.sourceforge.net/DTD/sodipodi-0.dtd"
   xmlns="http://www.w3.org/2000/svg"
   xmlns:svg="http://www.w3.org/2000/svg">
  <sodipodi:namedview
     id="namedview7"
     pagecolor="#ffffff"
     bordercolor="#666666"
     borderopacity="1.0"
     inkscape:pageshadow="2"
     inkscape:pageopacity="0.0"
     inkscape:pagecheckerboard="0"
     inkscape:document-units="mm"
     showgrid="false"
     units="px"
     inkscape:snap-bbox="true"
     inkscape:bbox-paths="true"
     inkscape:bbox-nodes="true"
     inkscape:snap-bbox-midpoints="true"
     inkscape:zoom="4.0718557"
     inkscape:cx="5.4029419"
     inkscape:cy="77.974275"
     inkscape:window-width="1920"
     inkscape:window-height="1001"
     inkscape:window-x="-9"
     inkscape:window-y="-9"
     inkscape:window-maximized="1"
     inkscape:current-layer="layer1" />
  <defs
     id="defs2" />
  <g
     inkscape:label="Слой 1"
     inkscape:groupmode="layer"
     id="layer1">
    <path
       style="fill:#000000;stroke-width:0.116378"
       d="m 14.922529,26.193296 c 1.886648,-0.244841 3.938716,-1.002405 5.510308,-2.034245 1.095417,-0.719204 3.036872,-2.660658 3.756076,-3.756076 2.825375,-4.303317 2.825375,-10.051259 0,-14.3545769 -0.719204,-1.095418 -2.660659,-3.03687 -3.756076,-3.756075 C 15.92754,-0.66566289 9.8330981,-0.51225289 5.5664421,2.6665391 1.1752541,5.9381151 -0.73330891,11.313255 0.62359309,16.587223 2.2272961,22.820452 8.4904001,27.028025 14.922529,26.193296 Z M 10.520643,23.993489 C 6.6030171,22.989243 3.5365591,19.926851 2.4770781,15.960591 c -0.38061,-1.424855 -0.38061,-4.044954 0,-5.46981 1.058552,-3.9627819 4.080782,-6.9850119 8.0435649,-8.0435629 0.819957,-0.219031 1.287921,-0.264244 2.734904,-0.264244 1.446985,0 1.914949,0.04521 2.734906,0.264244 3.962027,1.058348 6.974997,4.070419 8.045968,8.0435629 0.381297,1.414557 0.379839,4.032944 -0.003,5.46981 -1.16248,4.36248 -4.665278,7.528839 -9.148519,8.269822 -1.004132,0.165961 -3.273049,0.04278 -4.364211,-0.236924 z m -4.2788489,-5.734377 0.783636,-0.453266 -0.221724,-0.428015 c -0.121951,-0.235411 -0.29565,-0.526594 -0.386005,-0.647076 -0.159495,-0.212674 -0.17373,-0.212864 -0.488735,-0.0064 -0.315869,0.206963 -0.328845,0.2066 -0.490205,-0.01371 -0.09116,-0.124463 -0.2812,-0.592889 -0.422312,-1.040948 -0.373749,-1.186739 -0.37163,-3.713645 0.0041,-4.887914 0.374502,-1.1704209 0.409963,-1.2097589 0.860955,-0.9550739 0.414268,0.2339459 0.414506,0.2337989 0.848609,-0.522254 l 0.313669,-0.546301 -0.42371,-0.217377 -0.423709,-0.217376 0.529873,-0.650476 c 1.203485,-1.477406 3.2822709,-2.637346 5.2782489,-2.945208 l 0.49461,-0.07628 v 0.475743 0.475745 h 0.756463 0.756463 v -0.465515 c 0,-0.256033 0.04275,-0.465516 0.095,-0.465516 0.215025,0 1.468449,0.25773 1.721708,0.354018 0.26491,0.10072 0.222136,0.180784 -1.463303,2.73896 -1.635087,2.4817519 -1.768922,2.6503739 -2.298312,2.8956409 -1.184722,0.548891 -1.721035,1.402675 -1.721035,2.739802 0,0.741464 0.04791,0.954339 0.318295,1.41429 1.010839,1.719528 3.434145,1.98024 4.726363,0.508487 0.789559,-0.899261 0.961144,-2.123075 0.453217,-3.232536 l -0.281686,-0.615279 0.326633,-3.1398399 c 0.179647,-1.72691 0.328362,-3.153589 0.330474,-3.170395 0.01221,-0.09707 1.684591,0.842526 2.277522,1.279574 0.648349,0.477895 1.892476,1.787607 1.787048,1.881251 -0.02511,0.02231 -0.211354,0.124783 -0.413877,0.227734 l -0.368223,0.187182 0.35098,0.648018 c 0.193042,0.35641 0.384927,0.6306589 0.426414,0.609443 0.7159,-0.366119 0.730521,-0.369582 0.840755,-0.199058 0.327628,0.5068089 0.600263,1.7648729 0.654299,3.0192339 0.06258,1.452744 -0.107451,2.583483 -0.533227,3.54602 l -0.233206,0.527186 -0.384798,-0.225621 -0.384797,-0.225622 -0.369731,0.627936 -0.36973,0.627936 0.745111,0.470578 c 0.409808,0.258818 0.792669,0.470579 0.850798,0.470579 0.191786,0 1.179912,-2.135361 1.427122,-3.084042 0.339974,-1.304664 0.337837,-3.365826 -0.0048,-4.655158 -0.955451,-3.5950469 -3.76495,-6.2717729 -7.399416,-7.0497309 -1.076084,-0.230336 -3.084765,-0.173956 -4.189643,0.117594 -3.4415959,0.908153 -6.0279089,3.494853 -6.9311019,6.9321369 -0.311718,1.186306 -0.342288,3.240812 -0.06551,4.402488 0.232268,0.97486 0.777769,2.303023 1.206617,2.937826 l 0.320185,0.473954 z m 6.1409119,-3.684915 c -0.749214,-0.51435 -0.863169,-1.553742 -0.246068,-2.244397 0.270006,-0.302188 0.429083,-0.370657 0.964285,-0.415041 0.589375,-0.04888 0.674552,-0.02364 1.058785,0.313723 1.403315,1.232129 -0.239762,3.401059 -1.777002,2.345715 z"
       id="path1349" />
  </g>
</svg>
