<svg version="1.1" viewBox="0 0 40 40" xmlns="http://www.w3.org/2000/svg">
 <path d="m22.137 6.5254a9.6111 9.6111 0 0 0-7.957 4.2461 4.405 4.405 0 0 0-0.36328-0.017578 4.405 4.405 0 0 0-4.2852 3.4277 5.7844 5.7844 0 0 0-0.11914 0 5.7844 5.7844 0 0 0-5.7871 5.7812 5.7844 5.7844 0 0 0 5.7871 5.7891h20.451a8.2959 8.2959 0 0 0 8.2949-8.2969 8.2959 8.2959 0 0 0-8.2949-8.2969 8.2959 8.2959 0 0 0-1.0449 0.072266 9.6111 9.6111 0 0 0-6.6816-2.7051zm-0.2207 3.0703a8.2984 7.1363 0 0 1 5.7715 2.0078 7.1628 6.1597 0 0 1 0.90039-0.052735 7.1628 6.1597 0 0 1 7.1641 6.1602 7.1628 6.1597 0 0 1-7.1641 6.1582h-17.658a4.9944 4.2949 0 0 1-4.9961-4.2969 4.9944 4.2949 0 0 1 4.9961-4.293 4.9944 4.2949 0 0 1 0.10352 0 3.8034 3.2707 0 0 1 3.6992-2.5449 3.8034 3.2707 0 0 1 0.31445 0.013672 8.2984 7.1363 0 0 1 6.8691-3.1523z" style="stroke-width:3.0059"/>
 <rect transform="scale(-1,1)" x="-30.05" y="27.995" width="2.0792" height="7.4752" rx="12.1" ry=".92962" style="stroke-width:.88224"/>
 <rect transform="scale(-1,1)" x="-17.772" y="27.995" width="2.0792" height="7.4752" rx="12.1" ry=".92962" style="stroke-width:.88224"/>
 <rect transform="scale(-1,1)" x="-23.911" y="30.025" width="2.0792" height="7.4752" rx="12.1" ry=".92962" style="stroke-width:.88224"/>
 <rect transform="scale(-1,1)" x="-11.634" y="30.025" width="2.0792" height="7.4752" rx="12.1" ry=".92962" style="stroke-width:.88224"/>
 <path d="m17.209 0.96289v0.001953c-2.2289-0.01669-4.3589 1.0142-5.7656 2.8984-0.59782 0.80072-1.1283 1.988-1.2695 2.834-0.03965 0.23764-0.06016 0.26162-0.17773 0.22656-0.31346-0.09349-1.0845-0.21284-1.3789-0.21484-0.39327-0.0026-1.1313 0.13406-1.5039 0.2793-1.0316 0.40218-2.0247 1.3487-2.4277 2.3184l-0.12695 0.30469h-0.32031c-1.6965 0-3.0325 1.8212-2.627 3.5801 0.20069 0.87055 0.90526 1.665 1.7402 2.0137a6.2938 6.2938 0 0 1 0.6543-0.55664 2.2277 2.2277 0 0 1-1.2266-1.9609 2.2277 2.2277 0 0 1 2.2285-2.2266 2.2277 2.2277 0 0 1 0.56055 0.07226 4.2574 4.2574 0 0 1 3.8945-2.5488 4.2574 4.2574 0 0 1 1.8457 0.42383 6.1634 5.9794 0 0 1 6.1484-5.7832 6.1634 5.9794 0 0 1 4.2539 1.6543 5.5074 5.5074 0 0 1 3.9512-1.6895 5.5074 5.5074 0 0 1 5.4883 5.3047 9.0264 9.0264 0 0 1 1.6816 0.3457c7.52e-4 -0.664-0.06527-1.3479-0.19726-1.8477-0.71618-2.7115-2.7987-4.7196-5.4883-5.293-0.63617-0.13562-2.1844-0.15321-2.752-0.03125-0.93059 0.19995-2.0164 0.65365-2.6504 1.1055l-0.30078 0.21485-0.25586-0.18359c-0.4501-0.32056-1.166-0.67757-1.7383-0.86719-0.74208-0.24588-1.4972-0.36944-2.2402-0.375z" style="stroke-width:.06184"/>
</svg>
