<svg version="1.1" viewBox="0 0 40 40" xmlns="http://www.w3.org/2000/svg">
 <rect transform="scale(-1,1)" x="-11.634" y="36.017" width="2.0792" height="3.7129" rx="12.1" ry=".92962" style="stroke-width:.62177"/>
 <rect transform="scale(-1,1)" x="-11.634" y="30.025" width="2.0792" height="3.7129" rx="12.1" ry=".92962" style="stroke-width:.62177"/>
 <rect transform="scale(-1,1)" x="-23.911" y="36.017" width="2.0792" height="3.7129" rx="12.1" ry=".92962" style="stroke-width:.62177"/>
 <rect transform="scale(-1,1)" x="-23.911" y="30.025" width="2.0792" height="3.7129" rx="12.1" ry=".92962" style="stroke-width:.62177"/>
 <rect transform="scale(-1,1)" x="-17.772" y="33.987" width="2.0792" height="3.7129" rx="12.1" ry=".92962" style="stroke-width:.62177"/>
 <rect transform="scale(-1,1)" x="-17.772" y="27.995" width="2.0792" height="3.7129" rx="12.1" ry=".92962" style="stroke-width:.62177"/>
 <rect transform="scale(-1,1)" x="-30.05" y="33.987" width="2.0792" height="3.7129" rx="12.1" ry=".92962" style="stroke-width:.62177"/>
 <rect transform="scale(-1,1)" x="-30.05" y="27.995" width="2.0792" height="3.7129" rx="12.1" ry=".92962" style="stroke-width:.62177"/>
 <path d="m17.64 0.99828c-2.2289-0.01669-4.3589 1.0162-5.7656 2.9004-0.59782 0.80072-1.1283 1.986-1.2695 2.832-0.03965 0.23764-0.06212 0.26358-0.17969 0.22852-0.31346-0.09349-1.0845-0.21284-1.3789-0.21484-0.39327-0.0026-1.1313 0.1321-1.5039 0.27734-1.0316 0.40218-2.0228 1.3506-2.4258 2.3203l-0.12695 0.30469h-0.32031c-1.6965 0-3.0325 1.8212-2.627 3.5801 0.20069 0.87055 0.90526 1.663 1.7402 2.0117a6.2938 6.2938 0 0 1 0.77734-0.66211c-0.12544-0.20887-0.22423-0.43171-0.27734-0.66211-0.35167-1.5254 0.80799-3.1035 2.2793-3.1035h0.2793l0.10938-0.26562c0.34951-0.84098 1.2088-1.661 2.1035-2.0098 0.32314-0.12596 0.96362-0.24444 1.3047-0.24219 0.25532 0.0017 0.92542 0.10642 1.1973 0.1875 0.10196 0.03041 0.11991 0.0069 0.1543-0.19922 0.12246-0.7337 0.5831-1.7626 1.1016-2.457 1.22-1.6341 3.067-2.5281 5-2.5137 0.64437 0.0048 1.2978 0.11098 1.9414 0.32422 0.49633 0.16445 1.1175 0.47394 1.5078 0.75195l0.22266 0.1582 0.26172-0.18555c0.54984-0.39185 1.4898-0.78558 2.2969-0.95898 0.49226-0.10577 1.8369-0.09027 2.3887 0.02734 2.2912 0.48846 4.0695 2.1785 4.7207 4.4668a9.0264 9.0264 0 0 1 2.1113 0.38086c7.52e-4 -0.664-0.06527-1.3498-0.19727-1.8496-0.71618-2.7115-2.7987-4.7176-5.4883-5.291-0.63617-0.13562-2.1844-0.15321-2.752-0.03125-0.93059 0.19995-2.0164 0.6517-2.6504 1.1035l-0.30078 0.2168-0.25781-0.18555c-0.4501-0.32056-1.164-0.67561-1.7363-0.86523-0.74208-0.24588-1.4972-0.36944-2.2402-0.375z" style="stroke-width:.06184"/>
 <path d="m22.138 6.5256a9.6111 9.6111 0 0 0-7.957 4.2461 4.405 4.405 0 0 0-0.36328-0.01758 4.405 4.405 0 0 0-4.2852 3.4277 5.7844 5.7844 0 0 0-0.11914 0 5.7844 5.7844 0 0 0-5.7871 5.7813 5.7844 5.7844 0 0 0 5.7871 5.7891h20.451a8.2959 8.2959 0 0 0 8.2949-8.2969 8.2959 8.2959 0 0 0-8.2949-8.2969 8.2959 8.2959 0 0 0-1.0449 0.07227 9.6111 9.6111 0 0 0-6.6816-2.7051zm-0.2207 3.0703a8.2984 7.1363 0 0 1 5.7715 2.0078 7.1628 6.1597 0 0 1 0.90039-0.05274 7.1628 6.1597 0 0 1 7.1641 6.1602 7.1628 6.1597 0 0 1-7.1641 6.1582h-17.658a4.9944 4.2949 0 0 1-4.9961-4.2969 4.9944 4.2949 0 0 1 4.9961-4.293 4.9944 4.2949 0 0 1 0.10352 0 3.8034 3.2707 0 0 1 3.6992-2.5449 3.8034 3.2707 0 0 1 0.31445 0.01367 8.2984 7.1363 0 0 1 6.8691-3.1523z" style="stroke-width:3.0059"/>
</svg>
