<?xml version="1.0" encoding="UTF-8" standalone="no"?>
<svg
   version="1.1"
   viewBox="0 0 40 40"
   id="svg14"
   sodipodi:docname="rain_heavy_tmpl.svg"
   inkscape:version="1.1.2 (b8e25be833, 2022-02-05)"
   xmlns:inkscape="http://www.inkscape.org/namespaces/inkscape"
   xmlns:sodipodi="http://sodipodi.sourceforge.net/DTD/sodipodi-0.dtd"
   xmlns="http://www.w3.org/2000/svg"
   xmlns:svg="http://www.w3.org/2000/svg">
  <defs
     id="defs18" />
  <sodipodi:namedview
     id="namedview16"
     pagecolor="#ffffff"
     bordercolor="#666666"
     borderopacity="1.0"
     inkscape:pageshadow="2"
     inkscape:pageopacity="0.0"
     inkscape:pagecheckerboard="0"
     showgrid="false"
     inkscape:snap-bbox="true"
     inkscape:snap-bbox-midpoints="true"
     inkscape:zoom="10.1"
     inkscape:cx="17.326733"
     inkscape:cy="19.752475"
     inkscape:window-width="1920"
     inkscape:window-height="1001"
     inkscape:window-x="-9"
     inkscape:window-y="-9"
     inkscape:window-maximized="1"
     inkscape:current-layer="svg14" />
  <path
     id="path2"
     style="stroke-width:.06184"
     d="M 17.638672 0.99804688 C 15.409772 0.98135688 13.279747 2.0142375 11.873047 3.8984375 C 11.275227 4.6991575 10.744716 5.8844687 10.603516 6.7304688 C 10.563866 6.9681087 10.541398 6.9940444 10.423828 6.9589844 C 10.110368 6.8654944 9.3393219 6.7461406 9.0449219 6.7441406 C 8.6516519 6.7415406 7.9136156 6.8762444 7.5410156 7.0214844 C 6.5094156 7.4236644 5.5182344 8.3720969 5.1152344 9.3417969 L 4.9882812 9.6464844 L 4.6679688 9.6464844 C 2.9714688 9.6464844 1.6355156 11.467663 2.0410156 13.226562 C 2.2417056 14.097112 2.94628 14.889581 3.78125 15.238281 A 6.2938 6.2938 0 0 1 4.5585938 14.576172 C 4.4331509 14.3673 4.3343642 14.14446 4.28125 13.914062 C 3.9295758 12.388639 5.0892394 10.810547 6.5605469 10.810547 L 6.8398438 10.810547 L 6.9492188 10.544922 C 7.2987248 9.7039392 8.1580684 8.8839511 9.0527344 8.5351562 C 9.3758757 8.4091954 10.016354 8.2907138 10.357422 8.2929688 C 10.612744 8.2947032 11.282837 8.3993885 11.554688 8.4804688 C 11.656648 8.510875 11.674594 8.4873458 11.708984 8.28125 C 11.831441 7.5475475 12.292081 6.5186516 12.810547 5.8242188 C 14.030523 4.1901266 15.87751 3.2960719 17.810547 3.3105469 C 18.454921 3.3153689 19.108376 3.4215236 19.751953 3.6347656 C 20.248286 3.7992156 20.869412 4.1087098 21.259766 4.3867188 L 21.482422 4.5449219 L 21.744141 4.359375 C 22.293984 3.9675293 23.233952 3.5737993 24.041016 3.4003906 C 24.533273 3.2946195 25.877962 3.3101165 26.429688 3.4277344 C 28.720851 3.916191 30.499194 5.6062272 31.150391 7.8945312 A 9.0264 9.0264 0 0 1 33.261719 8.2753906 C 33.262471 7.6113906 33.196453 6.9255812 33.064453 6.4257812 C 32.348273 3.7142813 30.265772 1.7081656 27.576172 1.1347656 C 26.940002 0.99914563 25.391819 0.98155563 24.824219 1.1035156 C 23.893629 1.3034656 22.807828 1.7552112 22.173828 2.2070312 L 21.873047 2.4238281 L 21.615234 2.2382812 C 21.165134 1.9177213 20.451206 1.5626669 19.878906 1.3730469 C 19.136826 1.1271669 18.381672 1.0036069 17.638672 0.99804688 z " />
  <path
     id="path4"
     style="stroke-width:3.0059;fill:#000000"
     d="M 22.136719 6.5253906 A 9.6111 9.6111 0 0 0 14.179688 10.771484 A 4.405 4.405 0 0 0 13.816406 10.753906 A 4.405 4.405 0 0 0 9.53125 14.181641 A 5.7844 5.7844 0 0 0 9.4121094 14.181641 A 5.7844 5.7844 0 0 0 3.625 19.962891 A 5.7844 5.7844 0 0 0 9.4121094 25.751953 L 29.863281 25.751953 A 8.2959 8.2959 0 0 0 38.158203 17.455078 A 8.2959 8.2959 0 0 0 29.863281 9.1582031 A 8.2959 8.2959 0 0 0 28.818359 9.2304688 A 9.6111 9.6111 0 0 0 22.136719 6.5253906 z M 21.916016 9.5957031 A 8.2983977 7.1362507 0 0 1 27.6875 11.603516 A 7.1628302 6.1597136 0 0 1 28.587891 11.550781 A 7.1628302 6.1597136 0 0 1 35.751953 17.710938 A 7.1628302 6.1597136 0 0 1 28.587891 23.869141 L 10.929688 23.869141 A 4.9943556 4.2949224 0 0 1 5.9335938 19.572266 A 4.9943556 4.2949224 0 0 1 10.929688 15.279297 A 4.9943556 4.2949224 0 0 1 11.033203 15.279297 A 3.8033567 3.2707166 0 0 1 14.732422 12.734375 A 3.8033567 3.2707166 0 0 1 15.046875 12.748047 A 8.2983977 7.1362507 0 0 1 21.916016 9.5957031 z " />
  <rect
     transform="scale(-1,1)"
     x="-30.05"
     y="27.995"
     width="2.0792"
     height="7.4752"
     rx="12.1"
     ry=".92962"
     style="stroke-width:.88224"
     id="rect6" />
  <rect
     transform="scale(-1,1)"
     x="-17.772"
     y="27.995"
     width="2.0792"
     height="7.4752"
     rx="12.1"
     ry=".92962"
     style="stroke-width:.88224"
     id="rect8" />
  <rect
     transform="scale(-1,1)"
     x="-23.911"
     y="30.025"
     width="2.0792"
     height="7.4752"
     rx="12.1"
     ry=".92962"
     style="stroke-width:.88224"
     id="rect10" />
  <rect
     transform="scale(-1,1)"
     x="-11.634"
     y="30.025"
     width="2.0792"
     height="7.4752"
     rx="12.1"
     ry=".92962"
     style="stroke-width:.88224"
     id="rect12" />
</svg>
