<?xml version="1.0" encoding="UTF-8" standalone="no"?>
<svg
   version="1.1"
   viewBox="0 0 40 40"
   id="svg10"
   sodipodi:docname="rain_template_icon.svg"
   inkscape:version="1.1.2 (b8e25be833, 2022-02-05)"
   xmlns:inkscape="http://www.inkscape.org/namespaces/inkscape"
   xmlns:sodipodi="http://sodipodi.sourceforge.net/DTD/sodipodi-0.dtd"
   xmlns="http://www.w3.org/2000/svg"
   xmlns:svg="http://www.w3.org/2000/svg">
  <defs
     id="defs14" />
  <sodipodi:namedview
     id="namedview12"
     pagecolor="#ffffff"
     bordercolor="#666666"
     borderopacity="1.0"
     inkscape:pageshadow="2"
     inkscape:pageopacity="0.0"
     inkscape:pagecheckerboard="0"
     showgrid="false"
     inkscape:snap-bbox="true"
     inkscape:bbox-paths="true"
     inkscape:bbox-nodes="true"
     inkscape:snap-bbox-edge-midpoints="true"
     inkscape:snap-bbox-midpoints="true"
     inkscape:zoom="3.5708892"
     inkscape:cx="22.123341"
     inkscape:cy="43.826618"
     inkscape:window-width="1920"
     inkscape:window-height="1001"
     inkscape:window-x="-9"
     inkscape:window-y="-9"
     inkscape:window-maximized="1"
     inkscape:current-layer="svg10" />
  <path
     id="path1662-2"
     style="fill:#000000;stroke-width:0.0618399"
     d="m 17.638191,0.99840789 c -2.228875,-0.01669 -4.357866,1.01490201 -5.76464,2.89914101 -0.597818,0.800716 -1.129319,1.987787 -1.270477,2.833836 -0.03965,0.237637 -0.06053,0.262644 -0.178105,0.227578 -0.313461,-0.09349 -1.08488,-0.213697 -1.379318,-0.215704 -0.393269,-0.0026 -1.131445,0.133791 -1.503991,0.279029 -1.031613,0.402179 -2.023187,1.349617 -2.426176,2.3193142 L 4.988832,9.6463581 H 4.668245 c -1.696491,0 -3.033529,1.8209599 -2.628027,3.5798959 0.200691,0.870546 0.906526,1.663904 1.741464,2.012577 a 6.2938016,6.2938016 0 0 1 4.482289,-1.929463 6.2938016,6.2938016 0 0 1 0.13061,0 4.7929397,4.7929397 0 0 1 4.662373,-3.7283139 4.7929397,4.7929397 0 0 1 0.395787,0.02176 10.457466,10.457466 0 0 1 8.655867,-4.6208122 10.457466,10.457466 0 0 1 7.272589,2.942678 9.0264361,9.0264361 0 0 1 1.13393,-0.07916 9.0264361,9.0264361 0 0 1 2.746763,0.429429 c 7.52e-4,-0.664001 -0.06589,-1.348532 -0.197893,-1.848317 -0.716184,-2.711499 -2.79796,-4.718292 -5.487589,-5.291674 -0.636167,-0.13561901 -2.185087,-0.15361601 -2.752701,-0.03166 -0.930593,0.199948 -2.015756,0.652375 -2.649794,1.104247 l -0.300799,0.215704 -0.257262,-0.184041 C 21.165751,1.9186459 20.450657,1.5620619 19.878347,1.3724339 19.136264,1.1265519 18.38115,1.0039769 17.638191,0.99841489 Z" />
  <path
     d="m 22.135588,6.5260679 a 9.6111425,9.6111425 0 0 0 -7.956204,4.2462841 4.4050468,4.4050468 0 0 0 -0.363826,-0.0193 4.4050468,4.4050468 0 0 0 -4.284407,3.427622 5.7844438,5.7844438 0 0 0 -0.119675,0 5.7844438,5.7844438 0 0 0 -5.787581,5.782997 5.7844438,5.7844438 0 0 0 5.787581,5.78758 h 20.450641 a 8.295926,8.295926 0 0 0 8.296168,-8.29617 8.295926,8.295926 0 0 0 -8.296168,-8.2961679 8.295926,8.295926 0 0 0 -1.043583,0.07181 9.6111425,9.6111425 0 0 0 -6.682971,-2.7047472 z"
     style="stroke-width:3.00586"
     id="path8" />
  <rect
     style="fill:#000000;stroke-width:0.953321"
     id="rect2623"
     width="1.6349957"
     height="7.7648659"
     x="33.091892"
     y="45.061253"
     rx="12.0997"
     ry="0.92962438"
     transform="rotate(15)" />
  <rect
     style="fill:#000000;stroke-width:0.953321"
     id="rect2623-0"
     width="1.6349957"
     height="7.7648659"
     x="38.592258"
     y="43.587433"
     rx="12.0997"
     ry="0.92962438"
     transform="rotate(15)" />
  <rect
     style="fill:#000000;stroke-width:0.953321"
     id="rect2623-0-2"
     width="1.6349957"
     height="7.7648659"
     x="44.092628"
     y="42.113617"
     rx="12.0997"
     ry="0.92962438"
     transform="rotate(15)" />
  <rect
     style="fill:#000000;stroke-width:0.953321"
     id="rect2623-0-4"
     width="1.6349957"
     height="7.7648659"
     x="49.592999"
     y="40.639797"
     rx="12.0997"
     ry="0.92962438"
     transform="rotate(15)" />
  <rect
     style="fill:#000000;stroke-width:0.953321"
     id="rect2623-0-7"
     width="1.6349957"
     height="7.7648659"
     x="55.093365"
     y="39.165977"
     rx="12.0997"
     ry="0.92962438"
     transform="rotate(15)" />
  <rect
     style="fill:#000000;stroke-width:1.10295"
     id="rect3442-7"
     width="2.0792079"
     height="11.683168"
     x="67.769539"
     y="17.326731"
     rx="12.0997"
     ry="0.92962402" />
  <rect
     style="fill:#000000;stroke-width:1.10295"
     id="rect3442-3-0"
     width="2.0792079"
     height="11.683168"
     x="80.123459"
     y="17.326731"
     rx="12.0997"
     ry="0.92962402" />
  <rect
     style="fill:#000000;stroke-width:0.882242"
     id="rect3442-1-3-6-4"
     width="2.0792079"
     height="7.4752474"
     x="61.559708"
     y="17.326731"
     rx="12.0997"
     ry="0.92962402" />
  <rect
     style="fill:#000000;stroke-width:0.882242"
     id="rect3442-1-3-6-4-8-9-7"
     width="2.0792079"
     height="7.4752474"
     x="-72.52475"
     y="-2.6732664"
     rx="12.0997"
     ry="0.92962402"
     transform="scale(-1,1)" />
  <rect
     style="fill:#000000;stroke-width:0.882242"
     id="rect3442-1-3-6-4-8-6-0-1"
     width="2.0792079"
     height="7.4752474"
     x="-60.247524"
     y="-2.6732664"
     rx="12.0997"
     ry="0.92962402"
     transform="scale(-1,1)" />
  <rect
     style="fill:#000000;stroke-width:0.882242"
     id="rect3442-1-3-6-4-1-4-7"
     width="2.0792079"
     height="7.4752474"
     x="-66.386139"
     y="-0.64356512"
     rx="12.1"
     ry="0.92962402"
     transform="scale(-1,1)" />
  <rect
     style="fill:#000000;stroke-width:0.882242"
     id="rect3442-1-3-6-4-1-8-3-9"
     width="2.0792079"
     height="7.4752474"
     x="-54.108913"
     y="-0.64356512"
     rx="12.1"
     ry="0.92962402"
     transform="scale(-1,1)" />
  <rect
     style="fill:#000000;stroke-width:0.882242"
     id="rect3442-1-3-6-4-8-3"
     width="2.0792079"
     height="7.4752474"
     x="44.603962"
     y="75.841583"
     rx="12.0997"
     ry="0.92962402" />
  <rect
     style="fill:#000000;stroke-width:0.882242"
     id="rect3442-1-3-6-4-8-6-9"
     width="2.0792079"
     height="7.4752474"
     x="56.881191"
     y="75.841583"
     rx="12.0997"
     ry="0.92962402" />
  <rect
     style="fill:#000000;stroke-width:0.882242"
     id="rect3442-1-3-6-4-1-0"
     width="2.0792079"
     height="7.4752474"
     x="50.74258"
     y="77.871284"
     rx="12.1"
     ry="0.92962402" />
  <rect
     style="fill:#000000;stroke-width:0.882242"
     id="rect3442-1-3-6-4-1-8-6"
     width="2.0792079"
     height="7.4752474"
     x="63.019802"
     y="77.871284"
     rx="12.1"
     ry="0.92962402" />
  <rect
     style="fill:#000000;stroke-width:0.882242"
     id="rect3442-1-3-6-9-5"
     width="2.0792079"
     height="7.4752474"
     x="73.913628"
     y="17.326731"
     rx="12.0997"
     ry="0.92962402" />
  <rect
     style="fill:#000000"
     id="rect7578"
     width="6.6831684"
     height="5.2475247"
     x="52.871288"
     y="28.069307"
     rx="12.1"
     ry="0.92962402" />
  <rect
     style="fill:#000000;stroke-width:0.62177"
     id="rect3442-1-3-6-4-1-8-3-9-8-0"
     width="2.0792079"
     height="3.7128711"
     x="-69.455444"
     y="3.3013024"
     rx="12.1"
     ry="0.92962402"
     transform="scale(-1,1)" />
  <rect
     style="fill:#000000;stroke-width:0.62177"
     id="rect3442-1-3-6-4-1-8-3-9-8-0-7"
     width="2.0792079"
     height="3.7128711"
     x="-69.455444"
     y="-1.3246208"
     rx="12.1"
     ry="0.92962402"
     transform="scale(-1,1)" />
  <rect
     style="fill:#000000;stroke-width:0.62177"
     id="rect3442-1-3-6-4-1-8-3-9-8-0-0"
     width="2.0792079"
     height="3.7128711"
     x="-58.514851"
     y="51.638638"
     rx="12.1"
     ry="0.92962402"
     transform="scale(-1,1)" />
  <rect
     style="fill:#000000;stroke-width:0.62177"
     id="rect3442-1-3-6-4-1-8-3-9-8-0-7-1"
     width="2.0792079"
     height="3.7128711"
     x="-58.514851"
     y="45.646351"
     rx="12.1"
     ry="0.92962402"
     transform="scale(-1,1)" />
  <rect
     style="fill:#000000;stroke-width:0.62177"
     id="rect3442-1-3-6-4-1-8-3-9-8-0-0-2"
     width="2.0792079"
     height="3.7128711"
     x="-70.792068"
     y="51.638638"
     rx="12.1"
     ry="0.92962402"
     transform="scale(-1,1)" />
  <rect
     style="fill:#000000;stroke-width:0.62177"
     id="rect3442-1-3-6-4-1-8-3-9-8-0-7-1-6"
     width="2.0792079"
     height="3.7128711"
     x="-70.792068"
     y="45.646351"
     rx="12.1"
     ry="0.92962402"
     transform="scale(-1,1)" />
  <rect
     style="fill:#000000;stroke-width:0.882242"
     id="rect3442-1-3-6-4-8-9-2"
     width="2.0792079"
     height="7.4752474"
     x="-71.732674"
     y="65.148514"
     rx="12.0997"
     ry="0.92962402"
     transform="scale(-1,1)" />
  <rect
     style="fill:#000000;stroke-width:0.882242"
     id="rect3442-1-3-6-4-8-6-0-0"
     width="2.0792079"
     height="7.4752474"
     x="-59.455444"
     y="65.148514"
     rx="12.0997"
     ry="0.92962402"
     transform="scale(-1,1)" />
  <rect
     style="fill:#000000;stroke-width:0.882242"
     id="rect3442-1-3-6-4-1-4-0"
     width="2.0792079"
     height="7.4752474"
     x="-65.594055"
     y="67.178215"
     rx="12.1"
     ry="0.92962402"
     transform="scale(-1,1)" />
  <rect
     style="fill:#000000;stroke-width:0.882242"
     id="rect3442-1-3-6-4-1-8-3-4"
     width="2.0792079"
     height="7.4752474"
     x="-53.316833"
     y="67.178215"
     rx="12.1"
     ry="0.92962402"
     transform="scale(-1,1)" />
  <rect
     style="fill:#000000;stroke-width:0.882242"
     id="rect3442-1-3-6-4-8-9-2-7"
     width="2.0792079"
     height="7.4752474"
     x="-30.049507"
     y="27.995049"
     rx="12.0997"
     ry="0.92962402"
     transform="scale(-1,1)" />
  <rect
     style="fill:#000000;stroke-width:0.882242"
     id="rect3442-1-3-6-4-8-6-0-0-5"
     width="2.0792079"
     height="7.4752474"
     x="-17.772278"
     y="27.995049"
     rx="12.0997"
     ry="0.92962402"
     transform="scale(-1,1)" />
  <rect
     style="fill:#000000;stroke-width:0.882242"
     id="rect3442-1-3-6-4-1-4-0-5"
     width="2.0792079"
     height="7.4752474"
     x="-23.910889"
     y="30.02475"
     rx="12.1"
     ry="0.92962402"
     transform="scale(-1,1)" />
  <rect
     style="fill:#000000;stroke-width:0.882242"
     id="rect3442-1-3-6-4-1-8-3-4-7"
     width="2.0792079"
     height="7.4752474"
     x="-11.633667"
     y="30.02475"
     rx="12.1"
     ry="0.92962402"
     transform="scale(-1,1)" />
  <rect
     style="fill:#000000;stroke-width:0.62177"
     id="rect3442-1-3-6-4-1-8-3-9-8-0-8"
     width="2.0792079"
     height="3.7128711"
     x="-57.178219"
     y="3.3013024"
     rx="12.1"
     ry="0.92962402"
     transform="scale(-1,1)" />
  <rect
     style="fill:#000000;stroke-width:0.62177"
     id="rect3442-1-3-6-4-1-8-3-9-8-0-7-8"
     width="2.0792079"
     height="3.7128711"
     x="-57.178219"
     y="-1.3246207"
     rx="12.1"
     ry="0.92962402"
     transform="scale(-1,1)" />
  <rect
     style="fill:#000000;stroke-width:0.62177"
     id="rect3442-1-3-6-4-1-8-3-9-8-0-0-4"
     width="2.0792079"
     height="3.7128711"
     x="-64.653458"
     y="49.608936"
     rx="12.1"
     ry="0.92962402"
     transform="scale(-1,1)" />
  <rect
     style="fill:#000000;stroke-width:0.62177"
     id="rect3442-1-3-6-4-1-8-3-9-8-0-7-1-3"
     width="2.0792079"
     height="3.7128711"
     x="-64.653458"
     y="43.61665"
     rx="12.1"
     ry="0.92962402"
     transform="scale(-1,1)" />
  <rect
     style="fill:#000000;stroke-width:0.62177"
     id="rect3442-1-3-6-4-1-8-3-9-8-0-0-3"
     width="2.0792079"
     height="3.7128711"
     x="-76.930687"
     y="49.608936"
     rx="12.1"
     ry="0.92962402"
     transform="scale(-1,1)" />
  <rect
     style="fill:#000000;stroke-width:0.62177"
     id="rect3442-1-3-6-4-1-8-3-9-8-0-7-1-8"
     width="2.0792079"
     height="3.7128711"
     x="-76.930687"
     y="43.61665"
     rx="12.1"
     ry="0.92962402"
     transform="scale(-1,1)" />
  <rect
     style="fill:#000000;stroke-width:0.62177"
     id="rect3442-1-3-6-4-1-8-3-9-8-0-0-1"
     width="2.0792079"
     height="3.7128711"
     x="5.7183967"
     y="53.112354"
     rx="12.1"
     ry="0.92962402"
     transform="scale(-1,1)" />
  <rect
     style="fill:#000000;stroke-width:0.62177"
     id="rect3442-1-3-6-4-1-8-3-9-8-0-7-1-5"
     width="2.0792079"
     height="3.7128711"
     x="5.7183967"
     y="47.120068"
     rx="12.1"
     ry="0.92962402"
     transform="scale(-1,1)" />
  <rect
     style="fill:#000000;stroke-width:0.62177"
     id="rect3442-1-3-6-4-1-8-3-9-8-0-0-2-9"
     width="2.0792079"
     height="3.7128711"
     x="-6.5588212"
     y="53.112354"
     rx="12.1"
     ry="0.92962402"
     transform="scale(-1,1)" />
  <rect
     style="fill:#000000;stroke-width:0.62177"
     id="rect3442-1-3-6-4-1-8-3-9-8-0-7-1-6-6"
     width="2.0792079"
     height="3.7128711"
     x="-6.5588212"
     y="47.120068"
     rx="12.1"
     ry="0.92962402"
     transform="scale(-1,1)" />
  <rect
     style="fill:#000000;stroke-width:0.62177"
     id="rect3442-1-3-6-4-1-8-3-9-8-0-0-4-1"
     width="2.0792079"
     height="3.7128711"
     x="-0.42021027"
     y="51.082653"
     rx="12.1"
     ry="0.92962402"
     transform="scale(-1,1)" />
  <rect
     style="fill:#000000;stroke-width:0.62177"
     id="rect3442-1-3-6-4-1-8-3-9-8-0-7-1-3-5"
     width="2.0792079"
     height="3.7128711"
     x="-0.42021027"
     y="45.090366"
     rx="12.1"
     ry="0.92962402"
     transform="scale(-1,1)" />
  <rect
     style="fill:#000000;stroke-width:0.62177"
     id="rect3442-1-3-6-4-1-8-3-9-8-0-0-3-8"
     width="2.0792079"
     height="3.7128711"
     x="-12.697439"
     y="51.082653"
     rx="12.1"
     ry="0.92962402"
     transform="scale(-1,1)" />
  <rect
     style="fill:#000000;stroke-width:0.62177"
     id="rect3442-1-3-6-4-1-8-3-9-8-0-7-1-8-8"
     width="2.0792079"
     height="3.7128711"
     x="-12.697439"
     y="45.090366"
     rx="12.1"
     ry="0.92962402"
     transform="scale(-1,1)" />
</svg>
