<svg version="1.1" viewBox="0 0 40 40" xmlns="http://www.w3.org/2000/svg">
 <path d="m17.638 0.99841c-2.2289-0.01669-4.3579 1.0149-5.7646 2.8991-0.59782 0.80072-1.1293 1.9878-1.2705 2.8338-0.03965 0.23764-0.06053 0.26264-0.1781 0.22758-0.31346-0.09349-1.0849-0.2137-1.3793-0.2157-0.39327-0.0026-1.1314 0.13379-1.504 0.27903-1.0316 0.40218-2.0232 1.3496-2.4262 2.3193l-0.12665 0.30476h-0.32059c-1.6965 0-3.0335 1.821-2.628 3.5799 0.20069 0.87055 0.90653 1.6639 1.7415 2.0126a6.2938 6.2938 0 0 1 4.4823-1.9295 6.2938 6.2938 0 0 1 0.13061 0 4.7929 4.7929 0 0 1 4.6624-3.7283 4.7929 4.7929 0 0 1 0.39579 0.02176 10.457 10.457 0 0 1 8.6559-4.6208 10.457 10.457 0 0 1 7.2726 2.9427 9.0264 9.0264 0 0 1 1.1339-0.07916 9.0264 9.0264 0 0 1 2.7468 0.42943c7.52e-4 -0.664-0.06589-1.3485-0.19789-1.8483-0.71618-2.7115-2.798-4.7183-5.4876-5.2917-0.63617-0.13562-2.1851-0.15362-2.7527-0.03166-0.93059 0.19995-2.0158 0.65238-2.6498 1.1042l-0.3008 0.2157-0.25726-0.18404c-0.4501-0.32056-1.1652-0.67715-1.7375-0.86677-0.74208-0.24588-1.4972-0.36846-2.2402-0.37402z" style="stroke-width:.06184"/>
 <path d="m22.136 6.5261a9.6111 9.6111 0 0 0-7.9562 4.2463 4.405 4.405 0 0 0-0.36383-0.0193 4.405 4.405 0 0 0-4.2844 3.4276 5.7844 5.7844 0 0 0-0.11968 0 5.7844 5.7844 0 0 0-5.7876 5.783 5.7844 5.7844 0 0 0 5.7876 5.7876h20.451a8.2959 8.2959 0 0 0 8.2962-8.2962 8.2959 8.2959 0 0 0-8.2962-8.2962 8.2959 8.2959 0 0 0-1.0436 0.07181 9.6111 9.6111 0 0 0-6.683-2.7047z" style="stroke-width:3.0059"/>
 <rect transform="scale(-1,1)" x="-11.634" y="36.017" width="2.0792" height="3.7129" rx="12.1" ry=".92962" style="stroke-width:.62177"/>
 <rect transform="scale(-1,1)" x="-11.634" y="30.025" width="2.0792" height="3.7129" rx="12.1" ry=".92962" style="stroke-width:.62177"/>
 <rect transform="scale(-1,1)" x="-23.911" y="36.017" width="2.0792" height="3.7129" rx="12.1" ry=".92962" style="stroke-width:.62177"/>
 <rect transform="scale(-1,1)" x="-23.911" y="30.025" width="2.0792" height="3.7129" rx="12.1" ry=".92962" style="stroke-width:.62177"/>
 <rect transform="scale(-1,1)" x="-17.772" y="33.987" width="2.0792" height="3.7129" rx="12.1" ry=".92962" style="stroke-width:.62177"/>
 <rect transform="scale(-1,1)" x="-17.772" y="27.995" width="2.0792" height="3.7129" rx="12.1" ry=".92962" style="stroke-width:.62177"/>
 <rect transform="scale(-1,1)" x="-30.05" y="33.987" width="2.0792" height="3.7129" rx="12.1" ry=".92962" style="stroke-width:.62177"/>
 <rect transform="scale(-1,1)" x="-30.05" y="27.995" width="2.0792" height="3.7129" rx="12.1" ry=".92962" style="stroke-width:.62177"/>
</svg>
