<?xml version="1.0" encoding="UTF-8" standalone="no"?>
<!-- Created with Inkscape (http://www.inkscape.org/) -->

<svg
   width="100"
   height="100"
   viewBox="0 0 26.458333 26.458334"
   version="1.1"
   id="svg5"
   inkscape:version="1.1.2 (b8e25be833, 2022-02-05)"
   sodipodi:docname="search.svg"
   xmlns:inkscape="http://www.inkscape.org/namespaces/inkscape"
   xmlns:sodipodi="http://sodipodi.sourceforge.net/DTD/sodipodi-0.dtd"
   xmlns="http://www.w3.org/2000/svg"
   xmlns:svg="http://www.w3.org/2000/svg">
  <sodipodi:namedview
     id="namedview7"
     pagecolor="#ffffff"
     bordercolor="#666666"
     borderopacity="1.0"
     inkscape:pageshadow="2"
     inkscape:pageopacity="0.0"
     inkscape:pagecheckerboard="0"
     inkscape:document-units="px"
     showgrid="false"
     units="px"
     inkscape:snap-bbox="true"
     inkscape:bbox-paths="true"
     inkscape:bbox-nodes="true"
     inkscape:snap-bbox-edge-midpoints="true"
     inkscape:snap-bbox-midpoints="true"
     inkscape:zoom="4.0718557"
     inkscape:cx="35.855887"
     inkscape:cy="32.049269"
     inkscape:window-width="1920"
     inkscape:window-height="1001"
     inkscape:window-x="-9"
     inkscape:window-y="-9"
     inkscape:window-maximized="1"
     inkscape:current-layer="layer1" />
  <defs
     id="defs2" />
  <g
     inkscape:label="Слой 1"
     inkscape:groupmode="layer"
     id="layer1">
    <path
       id="rect988"
       style="fill:#800080;stroke-width:0.298674"
       d="m 19.349145,16.78136 a 10.415821,10.415821 0 0 1 -2.43781,2.43781 l 6.356741,6.356158 c 0.561279,0.56128 1.556634,0.469916 2.231889,-0.205338 0.675254,-0.675255 0.766618,-1.67061 0.205338,-2.231889 z M 10.870768,0.32511755 A 10.415821,10.415821 0 0 0 0.45509287,10.740793 10.415821,10.415821 0 0 0 10.870768,21.156468 10.415821,10.415821 0 0 0 21.286443,10.740793 10.415821,10.415821 0 0 0 10.870768,0.32511755 Z m 0,1.32011615 a 9.0955051,9.0955051 0 0 1 9.09556,9.0955593 9.0955051,9.0955051 0 0 1 -9.09556,9.09556 9.0955051,9.0955051 0 0 1 -9.0955589,-9.09556 9.0955051,9.0955051 0 0 1 9.0955589,-9.0955593 z" />
  </g>
</svg>
