<?xml version="1.0" encoding="UTF-8" standalone="no"?>
<svg
   version="1.1"
   viewBox="0 0 40 40"
   id="svg10"
   sodipodi:docname="sun_temp_icon.svg"
   inkscape:version="1.1.2 (b8e25be833, 2022-02-05)"
   xmlns:inkscape="http://www.inkscape.org/namespaces/inkscape"
   xmlns:sodipodi="http://sodipodi.sourceforge.net/DTD/sodipodi-0.dtd"
   xmlns="http://www.w3.org/2000/svg"
   xmlns:svg="http://www.w3.org/2000/svg">
  <defs
     id="defs14" />
  <sodipodi:namedview
     id="namedview12"
     pagecolor="#ffffff"
     bordercolor="#666666"
     borderopacity="1.0"
     inkscape:pageshadow="2"
     inkscape:pageopacity="0.0"
     inkscape:pagecheckerboard="0"
     showgrid="false"
     inkscape:snap-bbox="true"
     inkscape:bbox-paths="true"
     inkscape:bbox-nodes="true"
     inkscape:snap-bbox-edge-midpoints="true"
     inkscape:snap-bbox-midpoints="true"
     inkscape:zoom="3.5708892"
     inkscape:cx="12.321861"
     inkscape:cy="13.862094"
     inkscape:window-width="1920"
     inkscape:window-height="1001"
     inkscape:window-x="-9"
     inkscape:window-y="-9"
     inkscape:window-maximized="1"
     inkscape:current-layer="svg10" />
  <path
     d="m -37.175395,32.651601 a 11.109147,11.109147 0 0 0 -9.196266,4.908116 5.0916228,5.0916228 0 0 0 -0.420534,-0.0223 5.0916228,5.0916228 0 0 0 -4.952178,3.961856 6.6860142,6.6860142 0 0 0 -0.138328,0 6.6860142,6.6860142 0 0 0 -6.68964,6.684342 6.6860142,6.6860142 0 0 0 6.68964,6.689639 h 23.638103 a 9.5889392,9.5889392 0 0 0 9.589218,-9.589225 9.5889392,9.5889392 0 0 0 -9.589218,-9.589218 9.5889392,9.5889392 0 0 0 -1.206239,0.083 11.109147,11.109147 0 0 0 -7.724586,-3.126312 z"
     style="fill:#ffccaa;stroke-width:3.47436"
     id="path8-3-3" />
  <path
     d="m 21.435482,9.8865752 a 9.6111425,9.6111425 0 0 0 -7.956204,4.2462838 4.4050468,4.4050468 0 0 0 -0.363826,-0.0193 4.4050468,4.4050468 0 0 0 -4.2844067,3.427622 5.7844438,5.7844438 0 0 0 -0.119675,0 5.7844438,5.7844438 0 0 0 -5.787581,5.782997 5.7844438,5.7844438 0 0 0 5.787581,5.78758 H 29.162011 a 8.295926,8.295926 0 0 0 8.296168,-8.29617 8.295926,8.295926 0 0 0 -8.296168,-8.296168 8.295926,8.295926 0 0 0 -1.043583,0.07181 9.6111425,9.6111425 0 0 0 -6.682971,-2.7047468 z"
     style="stroke-width:3.00586"
     id="path8" />
  <path
     id="path16964"
     style="fill:#000000;stroke-width:0.0322252"
     d="M 13.076172 0.28320312 C 13.004331 0.27580525 12.929448 0.2908785 12.857422 0.328125 C 12.680581 0.419566 12.680486 0.4202061 12.666016 2.203125 L 12.652344 3.8496094 L 12.791016 3.9667969 C 12.970561 4.1204671 13.106424 4.1263846 13.296875 3.9863281 L 13.431641 3.8867188 L 13.431641 2.3984375 C 13.431061 1.5802429 13.416361 0.80954298 13.400391 0.68554688 C 13.375602 0.49311617 13.358218 0.44684475 13.273438 0.37109375 C 13.216939 0.32061375 13.148013 0.290601 13.076172 0.28320312 z M 17.521484 2.7910156 C 17.45187 2.7910542 17.383129 2.8134536 17.322266 2.8613281 C 17.172866 2.9788477 16.522025 4.3494402 16.515625 4.5605469 C 16.512045 4.6782197 16.605072 4.8223868 16.722656 4.8828125 C 16.867656 4.957334 17.007244 4.9337273 17.117188 4.8164062 C 17.298761 4.6226438 17.839821 3.5050349 17.894531 3.2109375 C 17.937131 2.9819303 17.730327 2.7908999 17.521484 2.7910156 z M 8.6035156 2.796875 C 8.5254623 2.7940593 8.4392907 2.8104366 8.3710938 2.8457031 C 8.2756967 2.8950371 8.1796875 3.0407596 8.1796875 3.1347656 C 8.1796875 3.3299683 8.8326591 4.7085838 8.9863281 4.8378906 C 9.1007831 4.9341948 9.3142158 4.9515575 9.4179688 4.8730469 C 9.5107497 4.8028399 9.5974313 4.6579996 9.5976562 4.5722656 C 9.5980723 4.4227498 8.9246376 2.9929965 8.7910156 2.859375 C 8.7518771 2.8202345 8.681569 2.7996907 8.6035156 2.796875 z M 4.0234375 4.2890625 C 3.9888341 4.2838262 3.9538569 4.2936826 3.8886719 4.3144531 C 3.7217289 4.367648 3.6035796 4.5239861 3.6035156 4.6933594 C 3.6034836 4.7987435 3.6376339 4.8435912 3.9667969 5.1660156 C 4.7104409 5.8944362 5.8942425 6.9317674 6.1171875 7.0507812 C 6.1792155 7.0838982 6.2631175 7.1126427 6.3046875 7.1132812 C 6.4165145 7.1153859 6.5594125 6.9988164 6.6015625 6.8710938 C 6.6852585 6.6174906 6.556751 6.4661819 5.375 5.4042969 C 4.602936 4.7105454 4.3142036 4.4638735 4.1503906 4.3554688 C 4.0903771 4.3157523 4.0580409 4.2942988 4.0234375 4.2890625 z M 22.105469 4.3105469 C 21.94984 4.3105469 21.924387 4.330844 20.90625 5.2460938 C 19.721972 6.3106965 19.458984 6.5776424 19.458984 6.7148438 C 19.458984 6.8375529 19.544266 6.9944716 19.644531 7.0566406 C 19.758719 7.1274315 19.9025 7.1274766 20.009766 7.0566406 C 20.20082 6.9304824 22.048772 5.281962 22.367188 4.953125 C 22.467436 4.8495997 22.488281 4.8064194 22.488281 4.6953125 C 22.488281 4.5826951 22.46847 4.5407427 22.363281 4.4355469 C 22.25898 4.331261 22.214694 4.3105469 22.105469 4.3105469 z M 13.289062 5.6210938 C 12.806499 5.601132 12.335324 5.624294 11.9375 5.6933594 C 10.179156 5.9986183 8.6968533 6.8250927 7.5820312 8.1210938 C 5.5414122 10.493352 5.2722658 13.729276 6.7246094 16.324219 A 5.0916228 5.0916228 0 0 1 7.1484375 15.443359 C 7.0218791 15.16001 6.9103589 14.868381 6.8242188 14.5625 C 6.6331498 13.883744 6.5641963 13.071576 6.6289062 12.238281 C 6.6711503 11.694336 6.74063 11.356159 6.921875 10.810547 C 7.672486 8.5509329 9.6344026 6.8777993 12.009766 6.46875 C 12.617783 6.3640454 13.702233 6.39403 14.400391 6.5351562 C 15.267 6.7103321 16.225959 7.1533613 16.976562 7.7265625 C 17.30512 7.977468 17.607058 8.2699659 17.882812 8.5859375 A 11.109147 11.109147 0 0 1 18.734375 8.3730469 C 17.734181 7.1113458 16.313849 6.1880294 14.705078 5.8085938 C 14.265358 5.7048831 13.771626 5.6410555 13.289062 5.6210938 z M 3.0058594 8.6171875 C 2.9398633 8.6270123 2.8956194 8.6649265 2.8339844 8.7265625 C 2.6290574 8.9314864 2.6712196 9.1922547 2.9316406 9.3242188 C 3.1266746 9.4230527 3.7174756 9.6672216 4.1035156 9.8085938 C 4.2630306 9.8670112 4.4438194 9.9150575 4.5058594 9.9160156 C 4.8529124 9.9205951 5.0170624 9.5088492 4.7558594 9.2890625 C 4.6297874 9.182979 4.4903915 9.1204718 3.7109375 8.8242188 C 3.2879794 8.6634591 3.1158529 8.6008129 3.0058594 8.6171875 z M 2.3808594 12.480469 C 1.0906194 12.480469 0.70254437 12.489454 0.64648438 12.521484 C 0.45990037 12.628091 0.42799662 12.945459 0.58789062 13.105469 C 0.67027062 13.187906 0.68120263 13.189177 1.2597656 13.207031 C 1.5828576 13.216996 2.3430767 13.227184 2.9492188 13.230469 L 4.0507812 13.236328 L 4.1503906 13.132812 C 4.2912496 12.982655 4.3264681 12.851874 4.2675781 12.710938 C 4.1675071 12.471392 4.2396174 12.480469 2.3808594 12.480469 z M 4.5585938 15.783203 C 4.4118347 15.783203 3.1240317 16.279598 2.8710938 16.433594 C 2.6576208 16.563501 2.6585199 16.910205 2.8730469 17.041016 C 2.9963679 17.116216 3.0574911 17.118484 3.2832031 17.052734 C 3.5227351 16.982961 4.3863346 16.64116 4.6035156 16.529297 C 4.7940396 16.431159 4.9257812 16.273464 4.9257812 16.144531 C 4.9257812 16.03269 4.6719587 15.783203 4.5585938 15.783203 z " />
  <path
     style="fill:#000000;stroke-width:0.0322252"
     d="m -50.042395,12.375629 c -0.173426,-0.09167 -0.176364,-0.117505 -0.187893,-1.651954 -0.0059,-0.779849 -6.38e-4,-1.526004 0.01149,-1.658127 0.01993,-0.216718 0.03287,-0.251014 0.132365,-0.350513 0.100161,-0.10016 0.123435,-0.108807 0.253406,-0.09417 0.09337,0.01058 0.18186,0.04835 0.254603,0.108833 l 0.111498,0.09269 0.0016,1.51458 c 0.002,1.593988 -0.01607,1.886313 -0.121567,1.991806 -0.07975,0.07975 -0.342215,0.106743 -0.455513,0.04685 z m -4.469671,-2.47239 c -0.131079,-0.07992 -0.215207,-0.237783 -0.187161,-0.351195 0.0682,-0.275817 0.64313,-1.505814 0.766577,-1.640011 0.08193,-0.08907 0.306545,-0.09915 0.440882,-0.0198 0.101898,0.0602 0.194635,0.200903 0.194635,0.295311 0,0.177133 -0.702075,1.617707 -0.834278,1.711844 -0.117715,0.08382 -0.247351,0.08513 -0.380655,0.0039 z m 8.913582,-0.06519 c -0.124009,-0.130357 -0.437366,-0.734919 -0.65495,-1.263586 -0.144798,-0.351821 -0.149815,-0.497831 -0.02181,-0.634863 0.0803,-0.08596 0.116056,-0.100083 0.253456,-0.100083 0.110244,0 0.184997,0.01971 0.240507,0.06336 0.09359,0.07362 0.433566,0.75127 0.65175,1.299108 0.173441,0.435498 0.173217,0.512591 -0.002,0.666366 -0.165701,0.145489 -0.308629,0.136215 -0.467032,-0.03031 z m -13.48955,-1.481626 c -0.195599,-0.119268 -0.254683,-0.345063 -0.139186,-0.531941 0.07825,-0.126595 1.741956,-1.639522 2.29796,-2.089685 0.206361,-0.167076 0.318235,-0.189627 0.476628,-0.09606 0.102669,0.06065 0.190789,0.217593 0.190789,0.339813 0,0.129012 -0.158534,0.311317 -0.714244,0.82135 -1.100309,1.009872 -1.830157,1.619732 -1.938183,1.619549 -0.03883,-6.6e-5 -0.117023,-0.02842 -0.173764,-0.06303 z m 18.213684,0.03347 c -0.182955,-0.07958 -2.298215,-1.96881 -2.47076,-2.206745 -0.109434,-0.150909 -0.117871,-0.298914 -0.02385,-0.418445 0.153939,-0.195701 0.367511,-0.222862 0.571135,-0.07263 0.176555,0.130264 1.912392,1.710162 2.157098,1.963326 0.189624,0.196176 0.233634,0.260865 0.233634,0.343415 0,0.263762 -0.259889,0.481282 -0.467265,0.391083 z m -9.441959,-1.312828 c -1.04448,-0.08462 -1.82644,-0.290132 -2.674683,-0.702977 -0.803789,-0.391209 -1.436871,-0.852462 -2.054116,-1.496613 -2.619273,-2.733421 -2.732989,-6.860529 -0.267991,-9.726136 1.114822,-1.296001 2.597503,-2.122323 4.355847,-2.427582 0.795648,-0.138131 1.88836,-0.09293 2.7678,0.114492 2.348751,0.553963 4.295237,2.264695 5.120202,4.500048 0.344319,0.93298 0.415761,1.357506 0.419588,2.49327998 0.0031,0.951982 -0.02216,1.21386902 -0.174346,1.79889702 -0.647877,2.490819 -2.497575,4.414088 -4.980218,5.178296 -0.777141,0.23922 -1.680297,0.335677 -2.512083,0.268295 z m 1.207721,-0.80274 c 2.391326,-0.278237 4.425307,-1.864801 5.30248,-4.136084 0.436858,-1.131172 0.524857,-2.51313402 0.238191,-3.740681 -0.332088,-1.422054 -1.194683,-2.758562 -2.349663,-3.64057 -0.750603,-0.573202 -1.710224,-1.017275 -2.576833,-1.192451 -0.698158,-0.141126 -1.782673,-0.171369 -2.39069,-0.06666 -2.375363,0.409049 -4.336594,2.083368 -5.087205,4.342982 -0.181245,0.545612 -0.250413,0.882839 -0.292657,1.42678398 -0.06471,0.833295 0.0033,1.645826 0.194369,2.32458202 0.859269,3.051235 3.826716,5.046905 6.962008,4.682102 z M -60.020804,4.071554 c -0.214527,-0.130811 -0.216073,-0.479189 -0.0026,-0.609096 0.252938,-0.153996 1.540465,-0.650057 1.687224,-0.650057 0.113365,0 0.366508,0.249743 0.366508,0.361584 0,0.128933 -0.131728,0.285924 -0.322252,0.384062 -0.217181,0.111863 -1.079491,0.454827 -1.319023,0.5246 -0.225712,0.06575 -0.286434,0.0641 -0.409755,-0.0111 z m 19.62983,-0.09444 c -0.532567,-0.18338 -1.07807,-0.423133 -1.18972,-0.52289 -0.08519,-0.07612 -0.09929,-0.111014 -0.09929,-0.245842 0,-0.20435 0.0749,-0.317596 0.243476,-0.368102 0.152447,-0.04567 0.174458,-0.03932 0.966801,0.278848 0.777965,0.312403 0.876831,0.367162 0.924942,0.512303 0.05069,0.152913 0.0055,0.348623 -0.09703,0.420453 -0.118367,0.08291 -0.361823,0.05862 -0.749194,-0.07477 z m -0.466148,-3.72037802 c -0.128189,-0.04416 -0.258978,-0.21663 -0.258799,-0.341307 1.63e-4,-0.118369 0.112791,-0.288834 0.216999,-0.328454 0.123892,-0.04711 2.259353,-0.07455 2.90309,-0.03731 0.500455,0.02893 0.530062,0.03441 0.607752,0.112097 0.120222,0.120222 0.135972,0.328653 0.03596,0.47585 -0.04746,0.06986 -0.112843,0.120457 -0.172027,0.133142 -0.186309,0.03994 -3.213288,0.0272 -3.332971,-0.01403 z m -20.777589,-0.02035 c -0.578563,-0.01785 -0.588697,-0.01938 -0.671077,-0.101819 -0.159894,-0.16001 -0.128124,-0.477408 0.05846,-0.584015 0.05606,-0.03203 0.442934,-0.04123 1.733174,-0.04123 1.858758,0 1.78797,-0.0087 1.888041,0.230846 0.05889,0.140937 0.0221,0.271554 -0.118759,0.421712 l -0.09825,0.104732 -1.102077,-0.006 c -0.606142,-0.0033 -1.366421,-0.01423 -1.689513,-0.02419 z M -58.791516,-3.16201 c -0.38604,-0.141372 -0.975678,-0.385114 -1.170712,-0.483948 -0.260421,-0.131964 -0.303387,-0.392784 -0.09846,-0.597708 0.16436,-0.164363 0.199818,-0.160451 0.876551,0.09676 0.779454,0.296253 0.919842,0.358629 1.045914,0.464713 0.261203,0.219787 0.09658,0.632457 -0.250473,0.627878 -0.06204,-9.58e-4 -0.243301,-0.04928 -0.402816,-0.1077 z m 17.332445,0.07819 c -0.03802,-0.01574 -0.108768,-0.08061 -0.157219,-0.144134 -0.07162,-0.09391 -0.08457,-0.137256 -0.06922,-0.231865 0.02568,-0.158247 0.0932,-0.223823 0.376115,-0.365247 0.265426,-0.132685 1.100945,-0.460104 1.33141,-0.521743 0.13513,-0.03614 0.153948,-0.03329 0.26093,0.03953 0.192026,0.130709 0.257448,0.332672 0.165413,0.510642 -0.06266,0.121186 -0.388428,0.276074 -1.177703,0.559955 -0.440167,0.158314 -0.623748,0.196771 -0.729733,0.152866 z m -15.318374,-2.835386 c -0.222945,-0.119013 -1.407421,-1.157471 -2.151065,-1.885891 -0.329163,-0.322425 -0.362564,-0.365841 -0.362532,-0.471225 6.4e-5,-0.169373 0.117283,-0.325608 0.284226,-0.378803 0.13037,-0.04154 0.143585,-0.03954 0.263612,0.03989 0.163813,0.108404 0.452516,0.355857 1.22458,1.049609 1.181751,1.061885 1.30843,1.213646 1.224734,1.467249 -0.04215,0.127722 -0.183352,0.242911 -0.295179,0.240806 -0.04157,-6.38e-4 -0.126348,-0.02852 -0.188376,-0.06164 z m 13.526673,0.0065 c -0.100265,-0.06217 -0.185476,-0.219294 -0.185476,-0.342004 0,-0.137201 0.263561,-0.404661 1.447839,-1.469264 1.018137,-0.915249 1.044454,-0.935768 1.200083,-0.935768 0.109225,0 0.151829,0.02082 0.25613,0.125108 0.105189,0.105196 0.125106,0.146431 0.125106,0.259048 0,0.111107 -0.0206,0.155216 -0.120849,0.258742 -0.318416,0.328837 -2.16492,1.97792 -2.355974,2.104078 -0.107266,0.07084 -0.25268,0.07086 -0.366868,6.7e-5 z m -10.656826,-2.218725 c -0.153669,-0.129307 -0.807441,-1.509871 -0.807441,-1.705073 0,-0.09401 0.0969,-0.239584 0.192297,-0.288918 0.136394,-0.07053 0.341272,-0.06314 0.419549,0.01514 0.133622,0.133622 0.806264,1.563382 0.805848,1.712897 -2.25e-4,0.08573 -0.08683,0.230875 -0.179611,0.301082 -0.103753,0.07851 -0.316187,0.06118 -0.430642,-0.03512 z m 7.735322,0.04323 c -0.117584,-0.06043 -0.209621,-0.204225 -0.206041,-0.321898 0.0064,-0.211106 0.656323,-1.581687 0.805723,-1.699206 0.243452,-0.191498 0.630293,0.04445 0.573493,0.34979 -0.05471,0.294097 -0.5957,1.411084 -0.777273,1.604846 -0.109944,0.117321 -0.250902,0.140989 -0.395902,0.06647 z m -3.932071,-0.915221 -0.138006,-0.118126 0.01335,-1.6462 c 0.01447,-1.782919 0.01443,-1.78275 0.191271,-1.874191 0.144052,-0.07449 0.30289,-0.05814 0.415887,0.04283 0.08478,0.07575 0.103569,0.121764 0.128358,0.314195 0.01597,0.123996 0.0295,0.894878 0.03008,1.713073 l 9.58e-4,1.487624 -0.13525,0.09946 c -0.190451,0.140056 -0.327212,0.13502 -0.506757,-0.01865 z"
     id="path16964-7" />
  <path
     style="fill:#000000;stroke-width:0.0781537"
     d="M 10.559308,16.467854 C 9.1098438,16.162049 7.6430875,15.35844 6.5749537,14.284898 5.5559562,13.260739 4.8766434,12.069156 4.498058,10.641811 4.3177148,9.9618907 4.2907622,9.7078467 4.2907622,8.6879667 c 0,-1.012553 0.027499,-1.275675 0.2018424,-1.930852 0.3906782,-1.468217 1.0663608,-2.647579 2.1211846,-3.7024 1.3969957,-1.396999 3.0820097,-2.17244895 4.9475278,-2.27687395 1.195312,-0.0669 1.306425,0.12849 0.645533,1.13519795 -0.739818,1.126933 -1.108397,2.368127 -1.118321,3.766009 -0.02698,3.796042 2.799699,6.7836163 6.70204,7.0835743 0.561399,0.04315 0.69681,0.07979 0.790772,0.213939 0.181219,0.258723 0.137777,0.396843 -0.283322,0.900802 -1.060036,1.268625 -2.723248,2.24789 -4.408739,2.59577 -0.927866,0.191509 -2.408347,0.189162 -3.329972,-0.0053 z m 2.804212,-0.866028 c 1.207477,-0.195946 2.569033,-0.822231 3.394089,-1.561202 l 0.412685,-0.369626 -0.351478,-0.05505 C 16.161261,13.512961 15.140477,13.167672 14.47442,12.822934 12.412771,11.75586 10.95345,9.9280107 10.361986,7.6719627 c -0.171299,-0.653377 -0.206047,-0.960962 -0.211903,-1.87569 -0.0092,-1.446701 0.20321,-2.420302 0.780314,-3.575534 0.144941,-0.290146 0.234546,-0.527537 0.199114,-0.527537 -0.204935,0 -1.3200365,0.343325 -1.768224,0.544412 -1.0701666,0.480151 -2.2553649,1.474219 -2.9344324,2.461209 -0.3521893,0.511891 -0.8246487,1.549004 -0.9793093,2.149721 -0.4208451,1.634634 -0.2702971,3.2833583 0.4350747,4.7645863 1.008574,2.117944 2.9576575,3.608201 5.217972,3.989629 0.537743,0.09074 1.700939,0.09026 2.262928,-9.44e-4 z M 11.569513,14.901051 C 8.9575526,14.448325 6.9042589,12.576117 6.2594717,10.059314 6.129898,9.5535437 6.1249963,9.4620587 6.2222907,9.3647807 c 0.1978619,-0.19786 0.334552,-0.04201 0.4785699,0.545678 0.076932,0.3139023 0.2908116,0.8706403 0.4752981,1.2371953 0.6118695,1.215706 1.5011498,2.097225 2.726287,2.702488 0.7980853,0.394286 1.3995363,0.564089 2.2810953,0.644004 0.584435,0.05299 0.610591,0.06372 0.610591,0.250736 0,0.183271 -0.02667,0.19613 -0.429845,0.207402 -0.236417,0.0066 -0.594054,-0.01645 -0.794759,-0.05123 z M 6.1584758,8.9375247 c -0.09882,-0.07226 -0.1291493,-0.184179 -0.1108157,-0.408982 0.022115,-0.2713 0.049347,-0.309498 0.2206185,-0.309498 0.1727136,0 0.1980983,0.03706 0.218792,0.319373 0.027986,0.381942 -0.1148309,0.555415 -0.3285948,0.399107 z M 15.08107,7.3927067 c -0.07469,-0.04352 -0.173909,-0.150315 -0.220478,-0.237325 -0.115992,-0.216737 0.09463,-0.538488 0.352508,-0.538488 0.408008,0 0.587204,0.508796 0.259931,0.738028 -0.201864,0.14139 -0.212388,0.142404 -0.391961,0.03778 z m -1.88041,-1.803299 c -0.242788,-0.135871 -0.313651,-0.369576 -0.175836,-0.579907 0.224397,-0.342473 0.746212,-0.177642 0.746212,0.235715 0,0.277647 -0.331656,0.477785 -0.570376,0.344192 z m 2.731719,-2.163434 c -0.267039,-0.295076 -0.09656,-0.716768 0.289782,-0.716768 0.326958,0 0.476538,0.497722 0.219489,0.730347 -0.185762,0.168112 -0.348778,0.163767 -0.509271,-0.013579 z"
     id="path17723" />
  <path
     style="fill:#000000;stroke-width:0.0781537"
     d="m -46.854295,90.109669 c -1.449464,-0.305805 -2.91622,-1.109414 -3.984354,-2.182956 -1.018998,-1.024159 -1.698311,-2.215742 -2.076896,-3.643087 -0.180343,-0.67992 -0.207296,-0.933964 -0.207296,-1.953844 0,-1.012553 0.0275,-1.275675 0.201843,-1.930852 0.390678,-1.468217 1.06636,-2.647579 2.121184,-3.7024 1.396996,-1.396999 3.08201,-2.172449 4.947528,-2.276874 1.195312,-0.0669 1.306425,0.12849 0.645533,1.135198 -0.739818,1.126933 -1.108397,2.368127 -1.118321,3.766009 -0.02698,3.796042 2.799699,6.783616 6.70204,7.083574 0.561399,0.04315 0.69681,0.07979 0.790772,0.213939 0.181219,0.258723 0.137777,0.396843 -0.283322,0.900802 -1.060036,1.268625 -2.723248,2.24789 -4.408739,2.59577 -0.927866,0.191509 -2.408347,0.189162 -3.329972,-0.0053 z m 2.804212,-0.866028 c 1.207477,-0.195946 2.569033,-0.822231 3.394089,-1.561202 l 0.412685,-0.369626 -0.351478,-0.05505 c -0.657555,-0.102987 -1.678339,-0.448276 -2.344396,-0.793014 -2.061649,-1.067074 -3.52097,-2.894923 -4.112434,-5.150971 -0.171299,-0.653377 -0.206047,-0.960962 -0.211903,-1.87569 -0.0092,-1.446701 0.20321,-2.420302 0.780314,-3.575534 0.144941,-0.290146 0.234546,-0.527537 0.199114,-0.527537 -0.204935,0 -1.320036,0.343325 -1.768224,0.544412 -1.070167,0.480151 -2.255365,1.474219 -2.934432,2.461209 -0.35219,0.511891 -0.824649,1.549004 -0.97931,2.149721 -0.420845,1.634634 -0.270297,3.283358 0.435075,4.764586 1.008574,2.117944 2.957658,3.608201 5.217972,3.989629 0.537743,0.09074 1.700939,0.09026 2.262928,-9.44e-4 z m -1.794007,-0.700775 c -2.61196,-0.452726 -4.665254,-2.324934 -5.310041,-4.841737 -0.129574,-0.50577 -0.134476,-0.597255 -0.03718,-0.694533 0.197862,-0.19786 0.334552,-0.04201 0.47857,0.545678 0.07693,0.313902 0.290811,0.87064 0.475298,1.237195 0.611869,1.215706 1.50115,2.097225 2.726287,2.702488 0.798085,0.394286 1.399536,0.564089 2.281095,0.644004 0.584435,0.05299 0.610591,0.06372 0.610591,0.250736 0,0.183271 -0.02667,0.19613 -0.429845,0.207402 -0.236417,0.0066 -0.594054,-0.01645 -0.794759,-0.05123 z m -5.411037,-5.963526 c -0.09882,-0.07226 -0.129149,-0.184179 -0.110816,-0.408982 0.02211,-0.2713 0.04935,-0.309498 0.220619,-0.309498 0.172713,0 0.198098,0.03706 0.218792,0.319373 0.02799,0.381942 -0.114831,0.555415 -0.328595,0.399107 z m 8.922594,-1.544818 c -0.07469,-0.04352 -0.173909,-0.150315 -0.220478,-0.237325 -0.115992,-0.216737 0.09463,-0.538488 0.352508,-0.538488 0.408008,0 0.587204,0.508796 0.259931,0.738028 -0.201864,0.14139 -0.212388,0.142404 -0.391961,0.03778 z m -1.88041,-1.803299 c -0.242788,-0.135871 -0.313651,-0.369576 -0.175836,-0.579907 0.224397,-0.342473 0.746212,-0.177642 0.746212,0.235715 0,0.277647 -0.331656,0.477785 -0.570376,0.344192 z m 2.731719,-2.163434 c -0.267039,-0.295076 -0.09656,-0.716768 0.289782,-0.716768 0.326958,0 0.476538,0.497722 0.219489,0.730347 -0.185762,0.168112 -0.348778,0.163767 -0.509271,-0.01358 z"
     id="path17723-7" />
</svg>
