<?xml version="1.0" encoding="UTF-8" standalone="no"?>
<svg
   version="1.1"
   viewBox="0 0 40 40"
   id="svg10"
   sodipodi:docname="sun_temp2_icon.svg"
   inkscape:version="1.1.2 (b8e25be833, 2022-02-05)"
   xmlns:inkscape="http://www.inkscape.org/namespaces/inkscape"
   xmlns:sodipodi="http://sodipodi.sourceforge.net/DTD/sodipodi-0.dtd"
   xmlns="http://www.w3.org/2000/svg"
   xmlns:svg="http://www.w3.org/2000/svg">
  <defs
     id="defs14" />
  <sodipodi:namedview
     id="namedview12"
     pagecolor="#ffffff"
     bordercolor="#666666"
     borderopacity="1.0"
     inkscape:pageshadow="2"
     inkscape:pageopacity="0.0"
     inkscape:pagecheckerboard="0"
     showgrid="false"
     inkscape:snap-bbox="true"
     inkscape:bbox-paths="true"
     inkscape:bbox-nodes="true"
     inkscape:snap-bbox-edge-midpoints="true"
     inkscape:snap-bbox-midpoints="true"
     inkscape:zoom="5.0499999"
     inkscape:cx="-36.039604"
     inkscape:cy="13.960396"
     inkscape:window-width="1920"
     inkscape:window-height="1001"
     inkscape:window-x="-9"
     inkscape:window-y="-9"
     inkscape:window-maximized="1"
     inkscape:current-layer="svg10" />
  <path
     style="fill:#000000;stroke-width:0.0461441"
     d="m 19.91195,37.42062 c -0.248335,-0.131264 -0.252541,-0.168259 -0.269049,-2.365477 -0.0084,-1.116688 -9.14e-4,-2.185128 0.01646,-2.374319 0.02854,-0.310323 0.04706,-0.359433 0.189538,-0.501908 0.143424,-0.143422 0.176749,-0.155803 0.362859,-0.134844 0.133699,0.01515 0.26041,0.06923 0.364572,0.155841 l 0.159657,0.132725 0.0023,2.168767 c 0.0028,2.282476 -0.02301,2.701064 -0.174075,2.852122 -0.114196,0.114197 -0.490027,0.152849 -0.652262,0.06709 z m -6.400244,-3.540283 c -0.187695,-0.114439 -0.308162,-0.340487 -0.268001,-0.502885 0.09766,-0.394951 0.920915,-2.156216 1.097682,-2.348376 0.117317,-0.127543 0.43895,-0.141975 0.631311,-0.02835 0.145911,0.0862 0.278704,0.287678 0.278704,0.422864 0,0.253642 -1.00532,2.316438 -1.194625,2.451236 -0.16856,0.120024 -0.35419,0.1219 -0.545071,0.0057 z m 12.763601,-0.09335 c -0.177573,-0.186662 -0.626276,-1.052351 -0.937841,-1.809363 -0.20734,-0.503782 -0.214524,-0.712858 -0.03123,-0.909078 0.114985,-0.123088 0.166185,-0.143311 0.362931,-0.143311 0.157862,0 0.264903,0.02822 0.34439,0.09073 0.134014,0.105419 0.620835,1.075764 0.933258,1.860227 0.248354,0.623602 0.248033,0.733994 -0.0028,0.954188 -0.237272,0.20833 -0.441934,0.19505 -0.668756,-0.0434 z M 6.9592524,31.665409 c -0.280084,-0.170782 -0.364687,-0.494105 -0.199304,-0.7617 0.112048,-0.181274 2.494354,-2.347676 3.2905116,-2.992277 0.295494,-0.239241 0.45569,-0.271532 0.682496,-0.137551 0.147016,0.08685 0.273196,0.311578 0.273196,0.486589 0,0.184735 -0.227009,0.445782 -1.0227446,1.176112 -1.575563,1.446064 -2.620653,2.319338 -2.775338,2.319077 -0.0556,-9.5e-5 -0.167568,-0.0407 -0.248817,-0.09026 z m 26.0806716,0.04793 c -0.26198,-0.113952 -3.290878,-2.819191 -3.53795,-3.159898 -0.156701,-0.216091 -0.168782,-0.428023 -0.03415,-0.599182 0.220428,-0.28023 0.526248,-0.319123 0.817823,-0.104008 0.252814,0.186529 2.738405,2.448828 3.088808,2.81134 0.271528,0.28091 0.334546,0.37354 0.334546,0.491746 0,0.377688 -0.372142,0.68916 -0.66909,0.560002 z m -13.5202,-1.879873 c -1.495619,-0.12117 -2.61533,-0.415448 -3.829951,-1.006613 -1.150967,-0.560182 -2.057494,-1.220663 -2.941345,-2.14304 -3.7506086,-3.91406 -3.9134406,-9.823779 -0.383743,-13.92712 1.596344,-1.855779 3.719435,-3.0390116 6.237256,-3.4761206 1.139309,-0.197793 2.703995,-0.133069 3.963288,0.163945 3.363241,0.7932326 6.150466,3.2428776 7.331757,6.4437406 0.493039,1.335959 0.59534,1.943851 0.60082,3.570196 0.0044,1.363168 -0.03172,1.738171 -0.249651,2.57589 -0.927712,3.566671 -3.576346,6.320652 -7.13131,7.414943 -1.112809,0.342545 -2.406064,0.480664 -3.597121,0.384179 z m 1.729369,-1.149465 c 3.424206,-0.398416 6.336718,-2.67026 7.592766,-5.922572 0.625549,-1.619756 0.751556,-3.598626 0.341073,-5.356384 -0.475527,-2.036278 -1.710701,-3.95006 -3.364547,-5.213031 -1.074809,-0.820783 -2.448917,-1.456664 -3.689838,-1.707504 -0.999711,-0.202082 -2.552657,-0.245388 -3.423294,-0.09545 -3.401346,0.585728 -6.209686,2.983233 -7.284508,6.218835 -0.259529,0.781277 -0.358573,1.264162 -0.419063,2.043051 -0.09267,1.193218 0.0047,2.356704 0.278322,3.328632 1.230411,4.369147 5.479579,7.226802 9.969089,6.70443 z M 5.6235934,25.529793 c -0.307187,-0.187312 -0.309401,-0.686165 -0.0037,-0.872183 0.362189,-0.220509 2.205834,-0.930832 2.415981,-0.930832 0.162331,0 0.524813,0.357613 0.524813,0.517761 0,0.184623 -0.188624,0.409421 -0.461441,0.549949 -0.310988,0.160179 -1.545752,0.651278 -1.888745,0.751189 -0.323203,0.09415 -0.410153,0.09178 -0.586739,-0.01589 z M 33.732083,25.394561 c -0.762598,-0.262587 -1.543719,-0.605895 -1.703592,-0.74874 -0.121987,-0.108998 -0.142176,-0.158965 -0.142176,-0.352029 0,-0.292614 0.107251,-0.454773 0.348639,-0.527094 0.218293,-0.0654 0.249812,-0.0563 1.384389,0.399289 1.113989,0.447339 1.255557,0.52575 1.324449,0.733582 0.07259,0.21896 0.0079,0.499203 -0.138939,0.602057 -0.169493,0.118721 -0.518105,0.08394 -1.072792,-0.107065 z m -0.667491,-5.32731 c -0.183557,-0.06324 -0.370837,-0.310199 -0.370581,-0.488727 2.33e-4,-0.169495 0.16151,-0.41359 0.310727,-0.470322 0.177405,-0.06747 3.235229,-0.10675 4.157013,-0.05342 0.716616,0.04142 0.759012,0.04927 0.870258,0.160514 0.172148,0.17215 0.194702,0.470608 0.05148,0.681383 -0.06796,0.100031 -0.161582,0.172485 -0.24633,0.19065 -0.266782,0.0572 -4.601195,0.03894 -4.772572,-0.02009 z M 3.3125954,20.038102 c -0.82846,-0.02556 -0.842971,-0.02776 -0.960933,-0.145796 -0.228957,-0.229123 -0.183464,-0.683613 0.08371,-0.836267 0.08027,-0.04586 0.634249,-0.05904 2.48178,-0.05904 2.661606,0 2.560243,-0.01246 2.703537,0.330554 0.08432,0.201812 0.03165,0.388845 -0.170054,0.603861 l -0.140687,0.149973 -1.578094,-0.0086 c -0.867952,-0.0047 -1.956616,-0.02038 -2.41926,-0.03464 z m 4.071249,-4.86625 c -0.552781,-0.202435 -1.3971,-0.551455 -1.676374,-0.692979 -0.372904,-0.188962 -0.434429,-0.562437 -0.140988,-0.855873 0.235352,-0.235356 0.286125,-0.229754 1.255157,0.138553 1.116122,0.424213 1.317147,0.513529 1.497673,0.665435 0.374024,0.314719 0.138295,0.905633 -0.358659,0.899076 -0.08884,-0.0014 -0.34839,-0.07057 -0.576803,-0.15422 z m 24.8187996,0.111961 c -0.05444,-0.02254 -0.155746,-0.115427 -0.225124,-0.206389 -0.102556,-0.134472 -0.121099,-0.19654 -0.09912,-0.332014 0.03677,-0.226597 0.133456,-0.320497 0.538569,-0.523006 0.380072,-0.189996 1.576474,-0.658836 1.906483,-0.747098 0.193496,-0.05176 0.220443,-0.04767 0.373632,0.0566 0.274968,0.187165 0.368648,0.476362 0.23686,0.731202 -0.08972,0.173529 -0.5562,0.395318 -1.686384,0.801814 -0.630288,0.226694 -0.893162,0.281763 -1.044926,0.218893 z M 10.267848,11.223747 C 9.9486064,11.053329 8.2525234,9.5663334 7.1876794,8.5232884 c -0.471338,-0.461688 -0.519166,-0.523857 -0.51912,-0.674759 9.2e-5,-0.24253 0.167941,-0.466248 0.406991,-0.542419 0.18668,-0.05948 0.205604,-0.05662 0.377473,0.05712 0.234569,0.155227 0.64797,0.509561 1.75351,1.502964 1.6921816,1.5205406 1.8735766,1.7378516 1.7537306,2.1009936 -0.06035,0.182888 -0.262548,0.347831 -0.422675,0.344817 -0.05952,-9.14e-4 -0.180921,-0.04083 -0.269741,-0.08827 z m 19.369212,0.0094 c -0.143573,-0.08903 -0.265589,-0.314017 -0.265589,-0.489728 0,-0.196463 0.377401,-0.579445 2.0732,-2.1038786 1.457899,-1.31057 1.495583,-1.339952 1.718432,-1.339952 0.156403,0 0.217408,0.02981 0.36676,0.179146 0.150623,0.150632 0.179142,0.209679 0.179142,0.370938 0,0.159097 -0.02949,0.222257 -0.173047,0.370499 -0.455948,0.470871 -3.100007,2.8322366 -3.373582,3.0128866 -0.153598,0.10143 -0.36182,0.101462 -0.525329,9.6e-5 z M 14.377259,8.0559984 c -0.220042,-0.185158 -1.156196,-2.162025 -1.156196,-2.44154 0,-0.134616 0.138753,-0.343067 0.275356,-0.41371 0.195307,-0.100988 0.488677,-0.09041 0.600762,0.02168 0.191338,0.191337 1.154513,2.238649 1.153917,2.452744 -3.22e-4,0.122759 -0.124335,0.330596 -0.25719,0.431128 -0.148567,0.11242 -0.452757,0.0876 -0.616649,-0.0503 z m 11.076419,0.0619 c -0.168371,-0.08653 -0.300161,-0.292435 -0.295035,-0.460934 0.0092,-0.302288 0.939807,-2.26486 1.153737,-2.43314 0.348605,-0.27421 0.902533,0.06365 0.821201,0.500874 -0.07835,0.421126 -0.853,2.02057 -1.113,2.298023 -0.157432,0.167995 -0.359273,0.201886 -0.566903,0.09518 z m -5.630439,-1.31053 -0.197615,-0.169148 0.01912,-2.357238 c 0.02072,-2.55301 0.02067,-2.552768 0.273887,-2.683705 0.206272,-0.106664 0.433716,-0.08325 0.59552,0.06133 0.121398,0.108468 0.148302,0.174357 0.183799,0.449904 0.02287,0.177553 0.04223,1.2814 0.04307,2.452996 l 0.0014,2.130169 -0.193668,0.14242 c -0.272718,0.200549 -0.468549,0.193338 -0.725645,-0.0267 z"
     id="path16964-7" />
  <path
     style="fill:#000000;stroke-width:0.101315"
     d="m 18.988802,29.58114 c -1.879012,-0.39643 -3.78044,-1.438188 -5.165116,-2.829874 -1.320977,-1.327668 -2.201605,-2.872377 -2.692383,-4.722715 -0.233787,-0.881414 -0.268728,-1.210744 -0.268728,-2.532865 0,-1.312623 0.03565,-1.653721 0.261659,-2.503059 0.506455,-1.903323 1.382376,-3.432188 2.749796,-4.799605 1.810996,-1.810999 3.995363,-2.8162545 6.413727,-2.9516255 1.549542,-0.08673 1.693583,0.166568 0.836836,1.4716145 -0.959063,1.460898 -1.43687,3.06992 -1.449735,4.882064 -0.03498,4.920998 3.629389,8.793938 8.688188,9.182789 0.727769,0.05593 0.903309,0.103436 1.025117,0.277339 0.234923,0.335396 0.178607,0.514448 -0.367285,1.167755 -1.374178,1.644582 -3.530281,2.914052 -5.715268,3.365026 -1.202838,0.248263 -3.122059,0.245219 -4.316808,-0.0069 z m 3.63524,-1.122675 c 1.565312,-0.254015 3.330365,-1.065899 4.399926,-2.023864 l 0.534984,-0.479164 -0.455638,-0.07137 c -0.852421,-0.133507 -2.175715,-0.581122 -3.039157,-1.028023 -2.672618,-1.383301 -4.564408,-3.752833 -5.331153,-6.67746 -0.222063,-0.847005 -0.267109,-1.245743 -0.274701,-2.43155 -0.01193,-1.87543 0.263432,-3.137558 1.01156,-4.635143 0.187894,-0.37613 0.304054,-0.683872 0.258122,-0.683872 -0.265668,0 -1.711228,0.445069 -2.292237,0.705749 -1.38731,0.622443 -2.923741,1.911103 -3.80405,3.190587 -0.456561,0.66359 -1.069033,2.008051 -1.269528,2.78679 -0.545562,2.119057 -0.3504,4.25638 0.564009,6.17657 1.307465,2.745596 3.834159,4.67749 6.764317,5.171953 0.697103,0.117631 2.205011,0.117009 2.933546,-0.0012 z m -2.32566,-0.908449 c -3.386014,-0.586891 -6.047801,-3.013928 -6.88367,-6.276585 -0.167974,-0.655654 -0.174328,-0.774251 -0.0482,-0.900357 0.256499,-0.256496 0.433696,-0.05446 0.620394,0.707389 0.09973,0.406927 0.376993,1.128654 0.616153,1.603838 0.793196,1.57598 1.946015,2.718737 3.534221,3.503369 1.034597,0.511133 1.814287,0.731257 2.957097,0.834855 0.757631,0.06869 0.791539,0.0826 0.791539,0.325041 0,0.237583 -0.03457,0.254253 -0.55723,0.268866 -0.306478,0.0085 -0.770101,-0.02132 -1.030285,-0.06641 z m -7.014597,-7.730815 c -0.128105,-0.09367 -0.167422,-0.238761 -0.143656,-0.530184 0.02866,-0.3517 0.06397,-0.401218 0.285999,-0.401218 0.223896,0 0.256805,0.04804 0.283631,0.414019 0.03629,0.495131 -0.148861,0.720012 -0.425974,0.517383 z m 11.566802,-2.002625 c -0.09682,-0.05642 -0.225447,-0.194861 -0.285816,-0.307656 -0.150367,-0.280967 0.122673,-0.698069 0.456974,-0.698069 0.52892,0 0.761221,0.659578 0.33696,0.956743 -0.261686,0.183291 -0.275328,0.184605 -0.508118,0.04898 z M 22.412918,15.47887 c -0.314738,-0.176136 -0.406601,-0.4791 -0.227945,-0.751762 0.290897,-0.443965 0.967352,-0.230286 0.967352,0.305569 0,0.359928 -0.429942,0.619376 -0.739407,0.446193 z m 3.541263,-2.804567 c -0.346176,-0.382521 -0.125176,-0.929182 0.375659,-0.929182 0.423852,0 0.61776,0.645222 0.284535,0.946785 -0.240813,0.217932 -0.452138,0.2123 -0.660194,-0.0176 z"
     id="path17723-7" />
</svg>
