<?xml version="1.0" encoding="UTF-8" standalone="no"?>
<!-- Created with Inkscape (http://www.inkscape.org/) -->

<svg
   width="100"
   height="100"
   viewBox="0 0 26.458333 26.458334"
   version="1.1"
   id="svg5"
   inkscape:version="1.1.2 (b8e25be833, 2022-02-05)"
   sodipodi:docname="temp.svg"
   xmlns:inkscape="http://www.inkscape.org/namespaces/inkscape"
   xmlns:sodipodi="http://sodipodi.sourceforge.net/DTD/sodipodi-0.dtd"
   xmlns="http://www.w3.org/2000/svg"
   xmlns:svg="http://www.w3.org/2000/svg">
  <sodipodi:namedview
     id="namedview7"
     pagecolor="#ffffff"
     bordercolor="#666666"
     borderopacity="1.0"
     inkscape:pageshadow="2"
     inkscape:pageopacity="0.0"
     inkscape:pagecheckerboard="0"
     inkscape:document-units="mm"
     showgrid="false"
     units="px"
     inkscape:snap-bbox="true"
     inkscape:bbox-paths="true"
     inkscape:bbox-nodes="true"
     inkscape:snap-bbox-midpoints="true"
     inkscape:zoom="2.8792368"
     inkscape:cx="43.761597"
     inkscape:cy="33.86314"
     inkscape:window-width="1920"
     inkscape:window-height="1001"
     inkscape:window-x="-9"
     inkscape:window-y="-9"
     inkscape:window-maximized="1"
     inkscape:current-layer="layer1" />
  <defs
     id="defs2" />
  <g
     inkscape:label="Слой 1"
     inkscape:groupmode="layer"
     id="layer1">
    <path
       style="fill:#000000;stroke-width:0.0717051"
       d="M 10.898797,25.849687 C 9.9308964,25.693787 9.0310214,25.296501 8.2625004,24.685786 6.4769424,23.266867 5.8012624,20.804747 6.6047024,18.6449 c 0.36121,-0.971022 0.999093,-1.823443 1.822969,-2.436083 l 0.496993,-0.369566 0.01904,-6.4265118 0.01904,-6.4265129 0.206092,-0.4461757 c 0.544466,-1.1787326 1.8763896,-1.81619124 3.1259376,-1.496072 0.850072,0.2177791 1.425775,0.7054193 1.823381,1.5444733 l 0.222476,0.4694803 0.02011,6.4186255 0.02011,6.4186243 0.302568,0.191508 c 0.333977,0.211389 1.118851,0.975908 1.347278,1.312338 0.638432,0.940288 0.950159,1.960957 0.952621,3.119109 0.0032,1.527421 -0.470257,2.665723 -1.567099,3.767314 -0.537878,0.540206 -0.758786,0.704923 -1.326546,0.989128 -0.374659,0.187544 -0.858669,0.388952 -1.075578,0.447573 -0.404807,0.109401 -1.731332,0.189379 -2.115301,0.127535 z m 2.132623,-1.264008 c 0.721736,-0.264602 1.237236,-0.605198 1.748426,-1.155207 1.874089,-2.016403 1.426817,-5.131597 -0.949427,-6.612645 l -0.5295,-0.330023 -0.0032,-6.5356739 c -0.0025,-5.2721742 -0.02169,-6.5876846 -0.09913,-6.8047121 -0.30514,-0.8550566 -1.180727,-1.2997852 -2.071851,-1.0523342 -0.350009,0.097188 -0.822521,0.5223065 -0.990503,0.8911425 -0.12331,0.2707524 -0.130717,0.6570666 -0.132203,6.8954501 l -0.0016,6.6086296 -0.4796536,0.268238 c -0.720702,0.403039 -1.382449,1.103892 -1.730454,1.832717 -0.15766,0.330181 -0.321827,0.771322 -0.364818,0.980311 -0.109742,0.533487 -0.09576,1.555247 0.02763,2.018891 0.414153,1.556245 1.660926,2.764301 3.2284996,3.128243 0.649382,0.150766 1.742619,0.08883 2.347738,-0.133027 z M 10.836706,23.850934 C 9.2919074,23.459731 8.2073764,22.059628 8.2107054,20.460829 c 0.003,-1.425705 1.032233,-2.783538 2.4543306,-3.237816 l 0.268174,-0.08567 0.01865,-3.275187 0.01865,-3.275187 0.663273,-0.0014 0.663273,-0.0014 v 3.267634 3.267633 l 0.43327,0.155894 c 0.548985,0.197526 1.144855,0.591585 1.47247,0.973763 0.634143,0.739761 0.959941,1.850575 0.814377,2.776643 -0.08703,0.55366 -0.455121,1.353948 -0.810212,1.761519 -0.779432,0.894625 -2.230034,1.352462 -3.370247,1.063717 z m -1.0597376,-2.78963 c 0.217781,-0.11262 0.3689246,-0.381539 0.3689246,-0.656402 0,-0.255835 0.191622,-0.678257 0.416109,-0.917294 0.106362,-0.113255 0.392611,-0.296345 0.63611,-0.406868 0.482301,-0.218912 0.597,-0.360014 0.597,-0.734427 0,-0.370229 -0.268814,-0.624693 -0.659849,-0.62462 -0.426097,7.1e-5 -1.130117,0.348149 -1.5240916,0.75352 -0.856335,0.881104 -1.107347,2.349905 -0.447043,2.615877 0.230377,0.09279 0.390874,0.08499 0.61284,-0.02979 z m 6.6220586,-7.142545 0.02107,-0.504439 2.025672,-0.01542 2.025672,-0.01542 -10e-7,0.519862 -1e-6,0.519862 H 18.4247 16.377961 Z m -0.01479,-2.327913 v -0.537789 h 1.183135 1.183135 v 0.537789 0.537788 h -1.183134 -1.183135 z m 0,-2.2945662 V 8.7584916 h 2.043597 2.043597 V 9.2962798 9.834069 h -2.043597 -2.043597 z m 0,-2.3304175 V 6.4639271 h 1.183135 1.183135 v 0.5019352 0.5019363 h -1.183134 -1.183135 z m 0,-2.3304175 V 4.0976566 h 2.043597 2.043597 V 4.6354448 5.173234 h -2.043597 -2.043597 z"
       id="path836" />
  </g>
</svg>
