<svg version="1.1" viewBox="0 0 40 40" xmlns="http://www.w3.org/2000/svg">
 <path d="m6.0021 31.937c-0.17242-0.13947-0.18857-0.21775-0.21345-1.0329-0.030327-0.9923 0.00314-1.2025 0.22644-1.4259 0.15417-0.15417 0.32077-0.15602 13.985-0.15602 13.664 0 13.831 0.0018 13.985 0.15602 0.22335 0.22335 0.25673 0.43358 0.22644 1.4259-0.02475 0.8152-0.04105 0.89348-0.21345 1.0329-0.18201 0.14724-0.52203 0.15092-13.998 0.15092-13.476 0-13.816-0.0038-13.998-0.15092zm10.793-3.721c-0.55457-0.02785-0.85487-0.07949-0.99483-0.17149-0.12586-0.08273-0.40381-0.53874-0.74658-1.2248-0.30035-0.60117-0.56386-1.1108-0.58561-1.1325-0.02166-0.02166-0.23291-0.43067-0.46928-0.90876-0.23637-0.4781-0.82671-1.6338-1.3118-2.5682s-1.4705-2.8546-2.1897-4.2671c-0.7192-1.4125-1.6584-3.2439-2.0872-4.0697-0.42875-0.82578-1.1481-2.2339-1.5985-3.1291-0.99548-1.9786-1.0012-1.8847 0.14943-2.4648 1.125-0.5672 0.98988-0.68155 2.3873 2.0207 0.63424 1.2264 1.7129 3.3324 2.3969 4.6795 0.68405 1.3473 1.2697 2.4852 1.3014 2.5287 0.03174 0.04346 0.75435 1.4481 1.6058 3.1214 2.1658 4.2562 2.0393 4.0288 2.2406 4.0294 0.11927 4.77e-4 0.22715-0.09616 0.34852-0.31214 0.29147-0.51862 0.50356-0.53676 1.3186-0.11277 0.75784 0.39422 0.96535 0.58208 0.96535 0.87402 0 0.20843-1.0756 2.3935-1.3497 2.742-0.27408 0.34846-0.50449 0.40947-1.3807 0.3657zm5.3375-0.09111c-0.31811-0.19352-0.42841-0.3803-1.6498-2.7934-1.0154-2.006-1.1632-2.2543-1.5829-2.6594-0.45331-0.4376-0.46207-0.45418-0.42287-0.80196 0.04394-0.38967 0.11738-0.22362-1.4405-3.2554-0.40199-0.78232-1.2736-2.4892-1.9369-3.7931-0.66335-1.3038-1.2322-2.4062-1.2642-2.4497-0.22288-0.30335-1.5799-3.126-1.5799-3.2863 0-0.28662 0.12313-0.40468 0.79023-0.75756 0.70497-0.37297 0.90592-0.43311 1.1443-0.34249 0.21855 0.083105 0.37294 0.35898 2.0566 3.6752 1.9649 3.8701 3.4413 6.6988 3.5777 6.8551 0.15711 0.18 0.24516 0.1744 0.46207-0.0294 0.23817-0.22372 0.52135-0.16512 1.3331 0.276 0.79243 0.43057 0.9035 0.61088 0.68313 1.1091-0.2283 0.51606-0.60491 0.65547-1.0889 0.40301-0.28423-0.14823-0.50291-0.15225-0.50291-0.0093 0 0.10541 1.1387 2.3845 1.8699 3.7426 0.28052 0.52101 0.38692 0.65194 0.5298 0.65194 0.127 0 0.21756-0.08126 0.31263-0.28068 0.08241-0.17289 0.2312-0.32161 0.38732-0.38726 0.24117-0.10141 0.29045-0.08802 1.0149 0.27551 1.1482 0.57617 1.1442 0.54319 0.27356 2.2693-0.84568 1.6766-0.85558 1.6851-1.9868 1.7051-0.58991 0.01049-0.81418-0.01641-0.97955-0.11692zm3.4438-5.2818c-0.56138-0.28439-0.72622-0.40793-0.80636-0.60436-0.08892-0.2179-0.08028-0.28745 0.07342-0.59216 0.09739-0.19306 0.27019-0.39082 0.39199-0.44858 0.20116-0.09545 0.27665-0.07409 0.98778 0.27928 0.93234 0.4633 1.0569 0.63399 0.85273 1.1686-0.25147 0.65847-0.5194 0.69371-1.4996 0.19714zm1.4958-2.7395c-0.7041-0.35799-0.90876-0.54632-0.90876-0.83627 0-0.38358 0.37185-0.9293 0.63319-0.9293 0.22146 0 1.711 0.76539 1.7654 0.90712 0.02815 0.07321 0.05096 0.2102 0.05077 0.30444-3.15e-4 0.1804-0.27337 0.68378-0.42451 0.78256-0.18811 0.12292-0.58446 0.04176-1.1161-0.22851zm-4.1882-2.5448c-0.42108-0.13932-1.3149-0.66558-1.4308-0.8424-0.12144-0.18532-0.12113-0.22338 5e-3 -0.55318 0.14495-0.37949 0.37297-0.59096 0.63734-0.59096 0.22072 0 1.3854 0.57648 1.5645 0.77436 0.07865 0.08691 0.14603 0.2644 0.14974 0.39438 0.0087 0.30088-0.2812 0.77449-0.51163 0.83624-0.19887 0.05333-0.19674 0.05337-0.41396-0.01825zm5.5906-0.28216c-0.93528-0.4552-1.0376-0.6361-0.72502-1.2818 0.25261-0.52184 0.50492-0.53351 1.4114-0.06531 0.39626 0.20466 0.75837 0.44289 0.80465 0.52942 0.19015 0.3553-0.24101 1.1679-0.61964 1.1679-0.08351 0-0.47565-0.1576-0.87139-0.35023zm-4.7729-2.7913c-0.91213-0.46287-1.0385-0.63619-0.81882-1.1233 0.16732-0.37105 0.38395-0.55547 0.65237-0.55547 0.25261 0 1.5801 0.67895 1.6593 0.84865 0.09486 0.2033 0.06262 0.50022-0.08538 0.78643-0.14606 0.28247-0.16633 0.29874-0.45919 0.3686-0.15766 0.03763-0.39236-0.04281-0.94827-0.32492zm6.7978 0.29311c-0.28618-0.07788-1.0975-0.5276-1.3135-0.72808-0.39734-0.36879-0.02166-1.2438 0.53391-1.2438 0.21283 0 1.5733 0.66679 1.6775 0.82216 0.11459 0.17087 0.0572 0.58168-0.11732 0.83992-0.19609 0.29014-0.46318 0.39614-0.78061 0.30976zm0.82226-3.0833c-0.42327-0.2201-0.79639-0.44233-0.82916-0.49384-0.10074-0.15841-0.06922-0.38438 0.10323-0.7407 0.16772-0.34645 0.39951-0.47989 0.74352-0.42797 0.20364 0.03063 1.1321 0.53861 1.3631 0.74568 0.34085 0.30546 0.13124 1.0141-0.35914 1.2142-0.23872 0.09743-0.29259 0.08174-1.0216-0.29735zm-6.2252-0.0062c-0.34769-0.17561-0.67663-0.37621-0.73096-0.44576-0.25729-0.32947 0.04279-1.0952 0.47413-1.2101 0.1697-0.045164 0.36969 0.01641 0.91263 0.28055 0.83779 0.40777 1.026 0.6313 0.89617 1.0646-0.12354 0.41229-0.36142 0.63873-0.66608 0.63396-0.13956-0.0023-0.53821-0.14761-0.88593-0.32322zm1.473-2.7689c-0.82322-0.41362-1.0362-0.61989-0.92884-0.89966 0.08483-0.22103 0.59282-0.093987 1.3664 0.34172 0.4922 0.27721 0.71883 0.45341 0.77108 0.59941 0.08553 0.23903 0.07311 0.25979-0.19265 0.32294-0.14315 0.03397-0.42237-0.066151-1.016-0.3644zm6.2317 0.020725c-0.76418-0.3919-1.087-0.68504-1.0011-0.90898 0.07966-0.20754 0.45628-0.14374 1.1633 0.19708 0.96754 0.46643 1.3049 0.82847 0.94929 1.0188-0.23486 0.1257-0.30691 0.10581-1.1115-0.30688z" style="stroke-width:.079024"/>
</svg>
