<?xml version="1.0" encoding="UTF-8" standalone="no"?>
<!-- Created with Inkscape (http://www.inkscape.org/) -->

<svg
   width="100"
   height="100"
   viewBox="0 0 26.458333 26.458334"
   version="1.1"
   id="svg5"
   inkscape:version="1.1.2 (b8e25be833, 2022-02-05)"
   sodipodi:docname="wind_dir.svg"
   xmlns:inkscape="http://www.inkscape.org/namespaces/inkscape"
   xmlns:sodipodi="http://sodipodi.sourceforge.net/DTD/sodipodi-0.dtd"
   xmlns="http://www.w3.org/2000/svg"
   xmlns:svg="http://www.w3.org/2000/svg">
  <sodipodi:namedview
     id="namedview7"
     pagecolor="#ffffff"
     bordercolor="#666666"
     borderopacity="1.0"
     inkscape:pageshadow="2"
     inkscape:pageopacity="0.0"
     inkscape:pagecheckerboard="0"
     inkscape:document-units="mm"
     showgrid="false"
     units="px"
     inkscape:snap-bbox="true"
     inkscape:snap-bbox-midpoints="true"
     inkscape:snap-bbox-edge-midpoints="true"
     inkscape:bbox-nodes="true"
     inkscape:bbox-paths="true"
     inkscape:zoom="4.0718557"
     inkscape:cx="47.152947"
     inkscape:cy="57.344861"
     inkscape:window-width="1920"
     inkscape:window-height="1001"
     inkscape:window-x="-9"
     inkscape:window-y="-9"
     inkscape:window-maximized="1"
     inkscape:current-layer="layer1" />
  <defs
     id="defs2" />
  <g
     inkscape:label="Слой 1"
     inkscape:groupmode="layer"
     id="layer1">
    <path
       style="fill:#000000;stroke-width:0.0433405"
       d="m 19.750838,23.747605 c -0.128507,-0.06567 -1.647631,-1.134518 -3.375834,-2.375226 -1.728203,-1.240708 -3.167335,-2.271033 -3.198069,-2.289616 -0.03074,-0.01858 -0.141874,-0.03379 -0.246976,-0.03379 -0.186757,0 -0.257794,0.05243 -3.1296469,2.310232 -1.6162042,1.270627 -3.0060626,2.344931 -3.0885739,2.38734 -0.1814694,0.09327 -0.4819601,0.09991 -0.6474957,0.01432 -0.2433494,-0.125846 -0.3717316,-0.466211 -0.306195,-0.811783 0.022355,-0.117856 0.4685692,-1.524673 0.9915968,-3.126261 0.5230275,-1.601589 1.9571051,-5.99349 3.1868398,-9.759782 1.3783369,-4.2214105 2.2815199,-6.9226061 2.3548759,-7.0428358 0.305643,-0.5009523 0.94708,-0.4934082 1.241998,0.014607 0.08414,0.1449337 2.476165,6.7232094 6.787167,18.6652818 0.210849,0.584078 0.403046,1.149796 0.427103,1.25715 0.08004,0.357154 -0.05628,0.686602 -0.345036,0.833841 -0.208424,0.106276 -0.381251,0.09475 -0.651754,-0.04349 z"
       id="path2551" />
    <path
       id="path2551-4-4"
       style="fill:#55ddff;stroke-width:0.033138"
       d="m 12.697392,5.6755502 c -0.180009,-0.00212 -0.361159,0.09219 -0.478007,0.2837038 -0.05609,0.091927 -0.746532,2.157 -1.800407,5.384684 -0.9402537,2.879701 -2.0366375,6.238021 -2.4365436,7.462593 -0.3999061,1.224571 -0.7409931,2.299925 -0.7580932,2.390036 -0.050109,0.264224 0.04803,0.524931 0.2340941,0.62115 0.126569,0.06544 0.3563094,0.05994 0.4950603,-0.01137 0.063088,-0.03242 1.1253491,-0.853691 2.3610964,-1.825211 2.195814,-1.726309 2.617917,-2.024752 2.634356,-2.679493 0,-1.111022 0.0088,-9.6072459 0.0079,-11.3047147 0,-0.2565155 -0.17,-0.320326 -0.259414,-0.321378 z"
       sodipodi:nodetypes="ssssccssccss" />
  </g>
</svg>
