<?xml version="1.0" encoding="UTF-8" standalone="no"?>
<svg
   width="100"
   height="100"
   version="1.1"
   viewBox="0 0 26.458 26.458"
   id="svg4"
   sodipodi:docname="windmill_o5svg.svg"
   inkscape:version="1.1.2 (b8e25be833, 2022-02-05)"
   inkscape:dataloss="true"
   xmlns:inkscape="http://www.inkscape.org/namespaces/inkscape"
   xmlns:sodipodi="http://sodipodi.sourceforge.net/DTD/sodipodi-0.dtd"
   xmlns="http://www.w3.org/2000/svg"
   xmlns:svg="http://www.w3.org/2000/svg">
  <defs
     id="defs8" />
  <sodipodi:namedview
     id="namedview6"
     pagecolor="#ffffff"
     bordercolor="#666666"
     borderopacity="1.0"
     inkscape:pageshadow="2"
     inkscape:pageopacity="0.0"
     inkscape:pagecheckerboard="0"
     showgrid="false"
     inkscape:snap-bbox="true"
     inkscape:bbox-paths="true"
     inkscape:bbox-nodes="true"
     inkscape:snap-bbox-edge-midpoints="true"
     inkscape:snap-bbox-midpoints="true"
     inkscape:zoom="5.7134228"
     inkscape:cx="60.384119"
     inkscape:cy="41.568777"
     inkscape:window-width="1920"
     inkscape:window-height="1001"
     inkscape:window-x="-9"
     inkscape:window-y="-9"
     inkscape:window-maximized="1"
     inkscape:current-layer="svg4" />
  <path
     id="rect8677-4-7"
     style="fill:#bc5fd3;fill-opacity:1;stroke-width:0.647524"
     d="M 28.582031 26.558594 L 19.339844 61.048828 L 27.537109 91.642578 C 28.164517 93.984094 30.554968 95.363736 32.896484 94.736328 L 41.6875 92.380859 C 44.029016 91.753452 45.410611 89.363001 44.783203 87.021484 L 28.582031 26.558594 z "
     transform="scale(0.26458)" />
  <path
     id="path9408"
     style="fill:#bc5fd3;fill-opacity:1;stroke-width:0.647524"
     d="M 19.339844 3.3203125 C 19.254198 3.3270086 19.168586 3.3320732 19.083984 3.34375 C 18.943196 3.3631818 18.803204 3.3890586 18.666016 3.421875 C 18.528827 3.4546914 18.394423 3.4933721 18.261719 3.5390625 C 18.129015 3.5847529 17.998429 3.6372588 17.871094 3.6953125 C 17.743759 3.7533662 17.619128 3.8168123 17.498047 3.8867188 C 17.376965 3.9566252 17.258475 4.0320328 17.144531 4.1132812 C 17.030588 4.1945297 16.920374 4.2829202 16.814453 4.375 C 16.708532 4.4670798 16.60678 4.563615 16.509766 4.6660156 C 16.412751 4.7684162 16.321598 4.8760705 16.234375 4.9882812 C 16.147152 5.100492 16.064828 5.2183336 15.988281 5.3398438 C 15.911734 5.4613539 15.840377 5.5864979 15.775391 5.7167969 C 15.710404 5.8470959 15.652151 5.9825165 15.599609 6.1210938 C 15.547067 6.259671 15.50015 6.4005302 15.460938 6.546875 L 10.099609 26.560547 L 19.339844 61.048828 L 28.582031 26.558594 L 23.21875 6.546875 C 22.72456 4.7025333 21.136127 3.4604306 19.339844 3.3203125 z "
     transform="scale(0.26458)" />
  <path
     id="path9406"
     style="fill:#bc5fd3;fill-opacity:1;stroke-width:0.647524"
     d="M 19.169922 3.3046875 C 18.739409 3.2880777 18.300362 3.3354861 17.861328 3.453125 L 9.0683594 5.8085938 C 6.726843 6.4360012 5.347202 8.8264524 5.9746094 11.167969 L 10.099609 26.560547 L 15.460938 6.546875 C 15.50015 6.4005302 15.547067 6.259671 15.599609 6.1210938 C 15.652151 5.9825165 15.710404 5.8470959 15.775391 5.7167969 C 15.840377 5.5864979 15.911734 5.4613539 15.988281 5.3398438 C 16.064828 5.2183336 16.147152 5.100492 16.234375 4.9882812 C 16.321598 4.8760705 16.412751 4.7684162 16.509766 4.6660156 C 16.60678 4.563615 16.708532 4.4670798 16.814453 4.375 C 16.920374 4.2829202 17.030588 4.1945297 17.144531 4.1132812 C 17.258475 4.0320328 17.376965 3.9566252 17.498047 3.8867188 C 17.619128 3.8168123 17.743759 3.7533662 17.871094 3.6953125 C 17.998429 3.6372588 18.129015 3.5847529 18.261719 3.5390625 C 18.394423 3.4933721 18.528827 3.4546914 18.666016 3.421875 C 18.803204 3.3890586 18.943196 3.3631818 19.083984 3.34375 C 19.168586 3.3320732 19.254198 3.3270086 19.339844 3.3203125 C 19.283218 3.3158955 19.226934 3.3068871 19.169922 3.3046875 z "
     transform="scale(0.26458)" />
  <rect
     style="fill:#bc5fd3;fill-opacity:1;stroke-width:0.171322"
     id="rect8677-4-7-9"
     width="4.7234664"
     height="24.358267"
     x="11.261529"
     y="5.3264699"
     ry="1.1577123"
     rx="1.1577123"
     transform="rotate(-15)" />
  <rect
     style="fill:#672178;fill-opacity:1;stroke-width:0.171322"
     id="rect8677-4-7-9-7"
     width="4.7234664"
     height="24.358267"
     x="11.220134"
     y="-14.91618"
     ry="1.1577123"
     rx="1.1577123"
     transform="rotate(-15)" />
</svg>
