<svg width="100" height="100" version="1.1" viewBox="0 0 26.458 26.458" xmlns="http://www.w3.org/2000/svg">
 <path d="m-9.6468 25.617c-0.0162-3.44e-4 -0.03305-0.0012-0.04961-0.0026l-6.2548-0.52554c-0.04716-4e-3 -0.09133-0.01303-0.13332-0.0248-0.1708-0.02441-0.3023-0.19083-0.3023-0.39429 0-0.22037 0.1543-0.39739 0.34571-0.39739h7.7829c0.19141 0 0.34519 0.17702 0.34519 0.39739 0 0.16956-0.0914 0.31358-0.22066 0.37103l-0.0217 0.0093c-1.57e-4 5.6e-5 -3.71e-4 -5.6e-5 -5.29e-4 0l-1.1978 0.50849c-6e-3 0.0025-0.012 0.0051-0.01809 0.0072-5.03e-4 1.82e-4 -1e-3 3.44e-4 -0.0016 5.3e-4 -0.07614 0.03415-0.17054 0.05276-0.27336 0.05064zm-6.7039-0.71261c-0.01542-0.01971-0.02735-0.04011-0.03617-0.0615 0.01039 0.02177 0.02255 0.04247 0.03617 0.0615z" style="stroke-width:.29121"/>
 <rect x="-20.853" y="20.421" width="8.4987" height=".79555" rx=".3455" ry=".5848" style="stroke-width:.13849"/>
 <rect x="-19.929" y="27.451" width="8.4987" height=".79555" rx=".3455" ry=".5848" style="stroke-width:.13849"/>
 <rect transform="rotate(-4.8028)" x="-22.157" y="25.686" width="7.2368" height=".60201" rx=".47987" ry=".5848" style="stroke-width:.29121"/>
 <rect transform="rotate(22.991)" x="-1.6866" y="29.821" width="2.4068" height=".88412" rx=".37709" ry=".5848" style="stroke-width:.26458"/>
 <path d="m-10.48 22.419-8.9068 0.43046-0.59841 0.72036h11.462v-0.72036z" style="stroke-width:.31507"/>
 <path transform="scale(.26458)" d="m47.607 36.336-1.459 61.783h6.4219l-1.457-61.758a2.5557 2.5557 0 0 1-3.0176 0.3418 2.5557 2.5557 0 0 1-0.48828-0.36719z" style="fill:#666;stroke-width:1.3417"/>
 <path d="m5.6862 13.537c0.015741 0.0097 0.033754 0.01694 0.054587 0.02217-0.019041-0.0057-0.037295-0.0131-0.054587-0.02217zm-0.065628-0.11367c0.00428 0.0075 0.00893 0.01393 0.013791 0.02069 0.082983 0.11701 0.24909 0.15282 0.39766 0.08726 0.040823-0.01329 0.082397-0.02961 0.12476-0.05055l5.6163-2.7819c0.01489-0.0073 0.02983-0.01515 0.04401-0.02299 0.08985-0.05003 0.16464-0.10928 0.21762-0.1698 4.49e-4 -4.22e-4 6.76e-4 -8.28e-4 1e-3 -0.0012 0.0045-0.0044 0.0088-0.0089 0.01307-0.01355l0.84436-0.93323 4.47e-4 -2.57e-4 0.0152-0.01709c0.09014-0.10239 0.11463-0.24277 0.05028-0.35423-4.64e-4 -8.03e-4 -1e-3 -0.0018-0.0015-0.0027-5.4e-4 -9.59e-4 -1e-3 -0.0018-0.0016-0.0027-0.06428-0.11146-0.19791-0.15999-0.33165-0.13313l-0.0224 0.0046-4.48e-4 2.58e-4 -1.2304 0.26462c-0.0062 0.0013-0.01241 0.0025-0.01852 0.0041-5.1e-4 1.36e-4 -0.0011 1.73e-4 -0.0015 3.26e-4 -0.0789 0.01562-0.16762 0.05076-0.25586 0.10357-0.01392 0.0083-0.02814 0.01736-0.04191 0.02662l-5.2174 3.4729c-0.039342 0.02618-0.074244 0.05407-0.10616 0.08277-0.13105 0.09588-0.1831 0.25764-0.12326 0.38801 0.00349 0.0076 0.00687 0.0149 0.011019 0.02229 5.518e-4 9.52e-4 1e-3 0.0018 0.00152 0.0027 4.565e-4 8.07e-4 1e-3 0.0018 0.00159 0.0027zm-0.068729-0.11904c7.516e-4 -0.0195 0.00349-0.03904 0.00807-0.05836-0.00592 0.02065-0.00855 0.03989-0.00807 0.05836zm7.5538-3.8641c0.01213 0.02142 0.02683 0.04207 0.04373 0.06128l0.01513 0.01693 2.59e-4 4.47e-4 0.84478 0.93301c0.0042 0.0047 0.0084 0.0096 0.01289 0.01403 3.74e-4 3.74e-4 6e-4 2.63e-4 9.47e-4 6.08e-4 0.05298 0.06052 0.12781 0.12028 0.21766 0.1703 0.01414 0.0079 0.02889 0.01571 0.04375 0.02306l5.6167 2.7821c0.04234 0.02098 0.08373 0.03714 0.12457 0.0504 0.14856 0.06555 0.31486 0.02993 0.39784-0.08708 0.0048-0.0068 0.0094-0.01361 0.01356-0.02096 5.5e-4 -9.52e-4 0.0015-0.0019 0.0019-3e-3 4.71e-4 -7.98e-4 5.15e-4 -0.0016 1e-3 -0.0024 0.0042-0.0073 0.0078-0.01516 0.01137-0.02269 0.05984-0.13038 0.0076-0.29167-0.12351-0.38755-0.03192-0.02871-0.06662-0.05703-0.10594-0.08324l-5.2175-3.4726c-0.01386-0.0092-0.02775-0.01833-0.04164-0.0267-0.08825-0.0528-0.17711-0.08778-0.25601-0.1034-5.9e-4 -1.78e-4 -9.02e-4 -2.55e-4 -0.0014-3.51e-4 -0.0061-0.0017-0.01249-0.0028-0.01853-0.0042l-1.2304-0.26462-2.59e-4 -4.47e-4 -0.02251-0.0049c-0.08359-0.0168-0.16713-0.0039-0.2338 0.03533-0.04 0.02352-0.07414 0.05671-0.09827 0.0985-4.63e-4 8.01e-4 -5.74e-4 0.0015-1e-3 0.0024-5.61e-4 9.47e-4 -0.0013 2e-3 -0.0019 3e-3 -0.05229 0.09056-0.04589 0.19984 0.0067 0.2927zm0.09451-0.39647c0.06728-0.03814 0.12025-0.10402 0.1475-0.18481l0.0066-0.02169 4.47e-4 -2.581e-4 0.38604-1.1979c0.0019-0.00594 4e-3 -0.012035 0.0056-0.018165 1.47e-4 -5.04e-4 -5e-6 -0.00127 1.18e-4 -0.00192 0.02592-0.07614 0.04032-0.17014 0.03872-0.27297-3.01e-4 -0.0162-0.0015-0.033278-0.0025-0.049854l-0.39858-6.2548c-3e-3 -0.047152-0.01-0.090932-0.01886-0.13292-0.01752-0.16143-0.13131-0.28782-0.27414-0.30119-0.0082-7.236e-4 -0.01694-0.00147-0.02533-0.00149-1e-3 -1.26e-5 -0.0019 4.278e-4 -0.0028 3.67e-4 -1e-3 -1.046e-4 -0.0019-6.34e-5 -3e-3 9e-7 -0.0084-9.6e-6 -0.0166 4.604e-4 -0.02493 0.00126-0.14283 0.013365-0.25683 0.13957-0.27434 0.301-0.0089 0.04199-0.01564 0.085923-0.01864 0.13308l-0.39923 6.2548c-0.0011 0.016537-0.0017 0.033232-0.0019 0.04942-0.0016 0.10282 0.01273 0.19751 0.03865 0.27365 1.41e-4 5.041e-4 1.71e-4 0.00106 3.26e-4 0.00154 0.0017 0.00606 3e-3 0.012011 5e-3 0.017991l0.38607 1.1978 2.58e-4 4.481e-4 0.0071 0.021568c0.0436 0.12926 0.15264 0.22065 0.28134 0.22065 1e-3 1.05e-4 0.0022 4.9e-4 0.0033 5.29e-4 9.94e-4 2.2e-5 0.0018-4.38e-4 0.0027-4.19e-4 0.04826 0 0.09407-0.01297 0.13444-0.03585zm7.1172 4.4768c0.02085-0.0052 0.03867-0.01286 0.05447-0.02244-0.01727 0.0091-0.03544 0.01676-0.05447 0.02244zm-7.4354-12.878c0.01445-0.013632 0.02991-0.025963 0.04644-0.036349-0.01627 0.00878-0.03148 0.020912-0.04644 0.036349zm7.624 12.623c5.2e-4 -0.0185-0.0018-0.03814-0.0077-0.05881 0.0046 0.01933 7e-3 0.0393 0.0077 0.05881zm-7.309-12.66c0.01653 0.010389 0.03217 0.022733 0.04666 0.03629-0.01494-0.01544-0.03033-0.027559-0.04666-0.03629z" style="stroke-width:.25371"/>
 <circle transform="rotate(-60)" cx="-1.3712" cy="15.876" r=".67618" style="stroke-width:.43928"/>
</svg>
