<?xml version="1.0" encoding="UTF-8" standalone="no"?>
<svg
   width="100"
   height="100"
   version="1.1"
   viewBox="0 0 26.458 26.458"
   id="svg4"
   sodipodi:docname="windmill_o4svg.svg"
   inkscape:version="1.1.2 (b8e25be833, 2022-02-05)"
   xmlns:inkscape="http://www.inkscape.org/namespaces/inkscape"
   xmlns:sodipodi="http://sodipodi.sourceforge.net/DTD/sodipodi-0.dtd"
   xmlns="http://www.w3.org/2000/svg"
   xmlns:svg="http://www.w3.org/2000/svg">
  <defs
     id="defs8" />
  <sodipodi:namedview
     id="namedview6"
     pagecolor="#ffffff"
     bordercolor="#666666"
     borderopacity="1.0"
     inkscape:pageshadow="2"
     inkscape:pageopacity="0.0"
     inkscape:pagecheckerboard="0"
     showgrid="false"
     inkscape:snap-bbox="true"
     inkscape:bbox-paths="true"
     inkscape:bbox-nodes="true"
     inkscape:snap-bbox-edge-midpoints="true"
     inkscape:snap-bbox-midpoints="true"
     inkscape:zoom="5.7134228"
     inkscape:cx="60.384119"
     inkscape:cy="41.568777"
     inkscape:window-width="1920"
     inkscape:window-height="1001"
     inkscape:window-x="-9"
     inkscape:window-y="-9"
     inkscape:window-maximized="1"
     inkscape:current-layer="svg4" />
  <path
     id="rect5572"
     style="fill:#666666;stroke-width:0.374651"
     d="M 8.3883637,9.1254316 7.9583677,25.472031 h 1.892671 L 9.4216187,9.1321486 v -0.0067 z" />
  <rect
     style="fill:#e9afaf;stroke-width:0.26458"
     id="rect7113"
     width="17.038185"
     height="17.038185"
     x="0.38561082"
     y="0.60535061" />
  <rect
     style="fill:#ffe680;stroke-width:0.19491"
     id="rect7113-1"
     width="12.551639"
     height="12.551639"
     x="13.350137"
     y="7.0901308" />
  <path
     id="rect1155"
     style="fill:#ffffff;stroke-width:0.25371"
     d="m 1.5275902,13.536637 c 0.015741,0.0097 0.033754,0.01694 0.054587,0.02217 -0.019041,-0.0057 -0.037295,-0.0131 -0.054587,-0.02217 z m -0.065628,-0.113672 c 0.00428,0.0075 0.00893,0.01393 0.013791,0.02069 0.082983,0.117011 0.2490907,0.152819 0.3976588,0.08726 0.040823,-0.01329 0.082397,-0.02961 0.1247602,-0.05055 l 5.6163145,-2.781928 c 0.01489,-0.0073 0.02983,-0.01515 0.04401,-0.02299 0.08985,-0.05003 0.16464,-0.109281 0.217621,-0.1698 4.49e-4,-4.22e-4 6.76e-4,-8.28e-4 0.001,-0.0012 0.0045,-0.0044 0.0088,-0.0089 0.01307,-0.01355 l 0.844355,-0.9332254 4.47e-4,-2.57e-4 0.0152,-0.01709 c 0.09014,-0.102388 0.114626,-0.242771 0.05028,-0.354228 -4.64e-4,-8.03e-4 -0.001,-0.0018 -0.0015,-0.0027 -5.4e-4,-9.59e-4 -0.001,-0.0018 -0.0016,-0.0027 -0.06428,-0.111462 -0.197911,-0.15999 -0.331649,-0.13313 l -0.0224,0.0046 -4.48e-4,2.58e-4 -1.230373,0.264621 c -0.0062,0.0013 -0.01241,0.0025 -0.01852,0.0041 -5.1e-4,1.36e-4 -0.0011,1.73e-4 -0.0015,3.26e-4 -0.0789,0.01562 -0.167618,0.05076 -0.255861,0.103566 -0.01392,0.0083 -0.02814,0.01736 -0.04191,0.02662 L 1.6773309,12.924563 c -0.039342,0.02618 -0.074244,0.05407 -0.1061628,0.08277 -0.1310492,0.09588 -0.1831007,0.257638 -0.1232602,0.388013 0.00349,0.0076 0.00687,0.0149 0.011019,0.02229 5.518e-4,9.52e-4 10e-4,0.0018 0.00152,0.0027 4.565e-4,8.07e-4 0.001,0.0018 0.00159,0.0027 z m -0.068729,-0.119044 c 7.516e-4,-0.0195 0.00349,-0.03904 0.00807,-0.05836 -0.00592,0.02065 -0.00855,0.03989 -0.00807,0.05836 z M 8.9469837,9.4398146 c 0.01213,0.02142 0.02683,0.04207 0.04373,0.06128 l 0.01513,0.01693 2.59e-4,4.47e-4 0.84478,0.9330104 c 0.0042,0.0047 0.0084,0.0096 0.01289,0.01403 3.74e-4,3.74e-4 6e-4,2.63e-4 9.47e-4,6.08e-4 0.05298,0.06052 0.127808,0.120278 0.2176613,0.170296 0.01414,0.0079 0.02889,0.01571 0.04375,0.02306 l 5.616668,2.78211 c 0.04234,0.02098 0.08373,0.03714 0.124573,0.0504 0.14856,0.06555 0.314857,0.02993 0.397844,-0.08708 0.0048,-0.0068 0.0094,-0.01361 0.01356,-0.02096 5.5e-4,-9.52e-4 0.0015,-0.0019 0.0019,-0.003 4.71e-4,-7.98e-4 5.15e-4,-0.0016 0.001,-0.0024 0.0042,-0.0073 0.0078,-0.01516 0.01137,-0.02269 0.05984,-0.130377 0.0076,-0.291669 -0.123509,-0.387554 -0.03192,-0.02871 -0.06662,-0.05703 -0.105937,-0.08324 L 10.846062,9.4124676 c -0.01386,-0.0092 -0.02775,-0.01833 -0.04164,-0.0267 -0.08825,-0.0528 -0.177114,-0.08778 -0.256014,-0.1034 -5.9e-4,-1.78e-4 -9.02e-4,-2.55e-4 -0.0014,-3.51e-4 -0.0061,-0.0017 -0.01249,-0.0028 -0.01853,-0.0042 l -1.2304213,-0.264625 -2.59e-4,-4.47e-4 -0.02251,-0.0049 c -0.08359,-0.0168 -0.16713,-0.0039 -0.233795,0.03533 -0.04,0.02352 -0.07414,0.05671 -0.09827,0.0985 -4.63e-4,8.01e-4 -5.74e-4,0.0015 -10e-4,0.0024 -5.61e-4,9.47e-4 -0.0013,0.002 -0.0019,0.003 -0.05229,0.09056 -0.04589,0.199844 0.0067,0.292699 z m 0.09451,-0.396474 c 0.06728,-0.03814 0.120246,-0.104019 0.147495,-0.1848071 l 0.0066,-0.02169 4.47e-4,-2.581e-4 0.38604,-1.1978886 c 0.0019,-0.00594 0.004,-0.012035 0.0056,-0.018165 1.47e-4,-5.04e-4 -5e-6,-0.00127 1.18e-4,-0.00192 0.02592,-0.07614 0.04032,-0.1701428 0.03872,-0.2729671 -3.01e-4,-0.0162 -0.0015,-0.033278 -0.0025,-0.049854 l -0.398578,-6.254767 c -0.003,-0.047152 -0.01,-0.090932 -0.01886,-0.1329157 -0.01752,-0.1614342 -0.131306,-0.2878209 -0.274136,-0.3011864 -0.0082,-7.236e-4 -0.01694,-0.00147 -0.02533,-0.00149 -10e-4,-1.26e-5 -0.0019,4.278e-4 -0.0028,3.67e-4 -0.001,-1.046e-4 -0.0019,-6.34e-5 -0.003,9e-7 -0.0084,-9.6e-6 -0.0166,4.604e-4 -0.02493,0.00126 -0.14283,0.013365 -0.256827,0.1395727 -0.274336,0.3010031 -0.0089,0.04199 -0.01564,0.085923 -0.01864,0.1330822 l -0.399227,6.254787 c -0.0011,0.016537 -0.0017,0.033232 -0.0019,0.04942 -0.0016,0.1028191 0.01273,0.1975083 0.03865,0.2736484 1.41e-4,5.041e-4 1.71e-4,0.00106 3.26e-4,0.00154 0.0017,0.00606 0.003,0.012011 0.005,0.017991 l 0.386067,1.1978476 2.58e-4,4.481e-4 0.0071,0.021568 c 0.0436,0.1292594 0.152642,0.2206494 0.28134,0.2206514 10e-4,1.05e-4 0.0022,4.9e-4 0.0033,5.29e-4 9.94e-4,2.2e-5 0.0018,-4.38e-4 0.0027,-4.19e-4 0.04826,0 0.09407,-0.01297 0.134441,-0.03585 z m 7.1172173,4.4767984 c 0.02085,-0.0052 0.03867,-0.01286 0.05447,-0.02244 -0.01727,0.0091 -0.03544,0.01676 -0.05447,0.02244 z M 8.7233387,0.6416996 c 0.01445,-0.013632 0.02991,-0.025963 0.04644,-0.036349 -0.01627,0.00878 -0.03148,0.020912 -0.04644,0.036349 z M 16.347363,13.265027 c 5.2e-4,-0.0185 -0.0018,-0.03814 -0.0077,-0.05881 0.0046,0.01933 0.007,0.0393 0.0077,0.05881 z M 9.0383397,0.6054276 c 0.01653,0.010389 0.03217,0.022733 0.04666,0.03629 -0.01494,-0.01544 -0.03033,-0.027559 -0.04666,-0.03629 z" />
  <circle
     style="fill:#000000;stroke-width:0.43928"
     id="path4904"
     cx="-3.4505038"
     cy="12.274415"
     r="0.67618173"
     transform="rotate(-60)" />
  <path
     id="rect5572-7"
     style="fill:#666666;stroke-width:0.277461"
     d="M 19.271709,13.365975 18.95326,25.472031 h 1.401685 L 20.036923,13.37095 v -0.005 z" />
  <path
     id="rect1155-4"
     style="fill:#ffffff;stroke-width:0.187894"
     d="m 15.222409,17.935537 c 0.01313,0.0039 0.02739,0.0056 0.0433,0.0054 -0.01471,-4.08e-4 -0.02919,-0.0022 -0.0433,-0.0054 z m -0.06873,-0.06873 c 0.0045,0.0046 0.009,0.0083 0.01383,0.01216 0.08179,0.0678 0.207479,0.06157 0.30119,-0.0138 0.02666,-0.01729 0.05328,-0.03698 0.07956,-0.06008 l 3.484402,-3.066577 c 0.0093,-0.0081 0.01843,-0.01655 0.02707,-0.02488 0.05468,-0.05301 0.09683,-0.10973 0.123128,-0.163179 2.41e-4,-3.88e-4 3.26e-4,-7.22e-4 4.86e-4,-0.001 0.0023,-0.004 0.0046,-0.0081 0.0068,-0.0122 l 0.425131,-0.829427 2.71e-4,-2.7e-4 0.0076,-0.01514 c 0.04486,-0.09052 0.03546,-0.195637 -0.03193,-0.263035 -4.86e-4,-4.86e-4 -0.0011,-0.0011 -0.0016,-0.0016 -5.7e-4,-5.83e-4 -0.0011,-0.0011 -0.0017,-0.0016 -0.06735,-0.06741 -0.172242,-0.07651 -0.262764,-0.03167 l -0.01515,0.0076 -2.7e-4,2.7e-4 -0.829427,0.425132 c -0.0042,0.0021 -0.0084,0.0042 -0.01248,0.0064 -3.38e-4,1.95e-4 -7.53e-4,3.34e-4 -10e-4,5.19e-4 -0.05344,0.0263 -0.110177,0.06844 -0.163179,0.123129 -0.0084,0.0086 -0.0168,0.01782 -0.02488,0.02707 L 15.21219,17.46903 c -0.02313,0.02627 -0.04274,0.05291 -0.06007,0.07956 -0.07537,0.09371 -0.0816,0.219398 -0.01381,0.301193 0.004,0.0047 0.0078,0.0093 0.01219,0.01383 5.77e-4,5.76e-4 0.0011,0.0011 0.0016,0.0016 4.81e-4,4.89e-4 0.0011,0.0011 0.0017,0.0016 z m -0.07198,-0.07198 c -0.0032,-0.01409 -0.005,-0.0286 -0.0054,-0.0433 -2.93e-4,0.01591 0.0016,0.03016 0.0054,0.0433 z m 4.662918,-4.212077 c 0.0128,0.01299 0.02726,0.02496 0.04303,0.03545 l 0.01407,0.0092 2.71e-4,2.7e-4 0.783152,0.505504 c 0.0039,0.0026 0.0078,0.0053 0.01187,0.0076 3.39e-4,1.96e-4 4.79e-4,7.4e-5 7.94e-4,2.53e-4 0.0495,0.03314 0.11448,0.06155 0.188346,0.0801 0.01164,0.003 0.02367,0.0057 0.03572,0.0081 l 4.551156,0.913594 c 0.03431,0.0069 0.06702,0.01052 0.09878,0.01218 0.118838,0.01842 0.230971,-0.03894 0.267906,-0.13855 0.0022,-0.0058 0.0042,-0.01155 0.0057,-0.01759 2.11e-4,-7.86e-4 7.01e-4,-0.0016 7.83e-4,-0.0025 1.84e-4,-6.62e-4 5.8e-5,-0.0013 2.49e-4,-0.0019 0.0016,-0.006 0.0027,-0.01235 0.0038,-0.0184 0.01782,-0.104741 -0.0505,-0.210095 -0.162639,-0.253563 -0.02834,-0.01442 -0.05859,-0.02803 -0.09174,-0.03924 L 21.097879,13.19922 c -0.01167,-0.0039 -0.02336,-0.0078 -0.03491,-0.01112 -0.07325,-0.02085 -0.143524,-0.02885 -0.20296,-0.0249 -4.56e-4,-1.5e-5 -6.94e-4,-10e-6 -0.001,7e-6 -0.0047,-9.1e-5 -0.0094,3.53e-4 -0.01405,5.57e-4 l -0.930905,0.04655 -2.71e-4,-2.7e-4 -0.01703,8.37e-4 c -0.06302,0.004 -0.120307,0.02923 -0.160474,0.07008 -0.0241,0.02449 -0.04217,0.05478 -0.05142,0.0893 -1.77e-4,6.63e-4 -1.25e-4,0.0012 -2.49e-4,0.0019 -2.2e-4,7.84e-4 -5.41e-4,0.0017 -7.83e-4,0.0025 -0.02004,0.07481 0.0055,0.151755 0.06093,0.208088 z m -0.0084,-0.301733 c 0.04082,-0.04018 0.06608,-0.09746 0.07009,-0.160474 l 5.77e-4,-0.01678 2.7e-4,-2.7e-4 0.04655,-0.930905 c 2.13e-4,-0.0046 5.94e-4,-0.0094 4.79e-4,-0.01405 9e-6,-3.9e-4 -2.52e-4,-9.3e-4 -2.77e-4,-0.0014 0.004,-0.05944 -0.0038,-0.129439 -0.02463,-0.202687 -0.0033,-0.01153 -0.0074,-0.02353 -0.01139,-0.03517 L 18.333859,7.5213209 c -0.01116,-0.033161 -0.02458,-0.06313 -0.03897,-0.09147 -0.04347,-0.1121254 -0.149096,-0.1807253 -0.253834,-0.1629089 -0.006,0.00106 -0.0124,0.00218 -0.01841,0.00379 -7.17e-4,1.829e-4 -0.0013,6.686e-4 -0.002,8.063e-4 -7.35e-4,1.162e-4 -0.0014,3.169e-4 -0.0021,5.694e-4 -0.006,0.0016 -0.01178,0.00351 -0.01759,0.00568 -0.09961,0.03694 -0.156967,0.1490718 -0.13855,0.2679072 0.0017,0.031748 0.0053,0.064459 0.01217,0.098776 L 18.78789,12.19536 c 0.0024,0.01204 0.0051,0.02411 0.0081,0.03572 0.01855,0.07387 0.04694,0.138856 0.0801,0.188349 1.97e-4,3.33e-4 3.33e-4,7.54e-4 5.17e-4,0.001 0.0024,0.004 0.0044,0.008 0.007,0.01191 l 0.505774,0.78288 2.7e-4,2.72e-4 0.0093,0.01405 c 0.05597,0.08411 0.151487,0.128584 0.243551,0.103917 7.36e-4,-1.16e-4 0.0016,-6.4e-5 0.0024,-2.43e-4 7.16e-4,-1.75e-4 0.0012,-6.49e-4 0.0019,-8.17e-4 0.03452,-0.0092 0.06481,-0.0273 0.0893,-0.05141 z m 5.949408,1.83827 c 0.01391,-0.0078 0.02521,-0.01659 0.03466,-0.0265 -0.01062,0.0098 -0.02214,0.01878 -0.03466,0.0265 z m -7.7874,-7.7874131 c 0.0077,-0.012525 0.01642,-0.024308 0.02625,-0.034904 -0.01,0.0094 -0.01851,0.020995 -0.02625,0.034904 z m 7.873461,7.5687521 c -0.0032,-0.01333 -0.0086,-0.02695 -0.01678,-0.04059 0.007,0.01294 0.01256,0.02677 0.01678,0.04059 z m -7.65508,-7.6550827 c 0.01382,0.00427 0.02737,0.010101 0.04034,0.017019 -0.01364,-0.00818 -0.02698,-0.013902 -0.04034,-0.017019 z" />
  <circle
     style="fill:#000000;stroke-width:0.325324"
     id="path4904-4"
     cx="-7.8236604"
     cy="22.443768"
     r="0.50077045"
     transform="rotate(-75)" />
</svg>
