<?xml version="1.0" encoding="UTF-8" standalone="no"?>
<svg
   width="100"
   height="100"
   version="1.1"
   viewBox="0 0 26.458 26.458"
   id="svg4"
   sodipodi:docname="windmill.svg"
   inkscape:version="1.1.2 (b8e25be833, 2022-02-05)"
   xmlns:inkscape="http://www.inkscape.org/namespaces/inkscape"
   xmlns:sodipodi="http://sodipodi.sourceforge.net/DTD/sodipodi-0.dtd"
   xmlns="http://www.w3.org/2000/svg"
   xmlns:svg="http://www.w3.org/2000/svg">
  <defs
     id="defs8" />
  <sodipodi:namedview
     id="namedview6"
     pagecolor="#ffffff"
     bordercolor="#666666"
     borderopacity="1.0"
     inkscape:pageshadow="2"
     inkscape:pageopacity="0.0"
     inkscape:pagecheckerboard="0"
     showgrid="false"
     inkscape:snap-bbox="true"
     inkscape:bbox-paths="true"
     inkscape:bbox-nodes="true"
     inkscape:snap-bbox-edge-midpoints="true"
     inkscape:snap-bbox-midpoints="true"
     inkscape:zoom="4.04"
     inkscape:cx="48.267327"
     inkscape:cy="37.747525"
     inkscape:window-width="1920"
     inkscape:window-height="1001"
     inkscape:window-x="-9"
     inkscape:window-y="-9"
     inkscape:window-maximized="1"
     inkscape:current-layer="svg4" />
  <path
     id="rect1155-7-3"
     style="fill:#000000;stroke-width:0.29121"
     d="m -9.6468054,25.61706 c -0.0162,-3.44e-4 -0.03305,-0.0012 -0.04961,-0.0026 l -6.2548376,-0.525543 c -0.04716,-0.004 -0.09133,-0.01303 -0.133323,-0.0248 -0.170795,-0.02441 -0.302304,-0.190832 -0.302304,-0.394286 0,-0.220368 0.154302,-0.397387 0.345711,-0.397387 h 7.7828906 c 0.191409,0 0.345194,0.177019 0.345194,0.397387 0,0.169557 -0.0914,0.313584 -0.220656,0.371031 l -0.0217,0.0093 c -1.57e-4,5.6e-5 -3.71e-4,-5.6e-5 -5.29e-4,0 l -1.197845,0.50849 c -0.006,0.0025 -0.012,0.0051 -0.01809,0.0072 -5.03e-4,1.82e-4 -10e-4,3.44e-4 -0.0016,5.3e-4 -0.07614,0.03415 -0.170543,0.05276 -0.273365,0.05064 z m -6.7038996,-0.712609 c -0.01542,-0.01971 -0.02735,-0.04011 -0.03617,-0.0615 0.01039,0.02177 0.02255,0.04247 0.03617,0.0615 z" />
  <rect
     style="fill:#000000;stroke-width:0.138486"
     id="rect927-6"
     width="8.4987106"
     height="0.79555142"
     x="-20.852665"
     y="20.421164"
     rx="0.34550375"
     ry="0.58479851" />
  <rect
     style="fill:#000000;stroke-width:0.138486"
     id="rect927-5"
     width="8.4987106"
     height="0.79555142"
     x="-19.928879"
     y="27.450901"
     rx="0.34550375"
     ry="0.58479851" />
  <rect
     style="fill:#000000;stroke-width:0.291209"
     id="rect1155-5"
     width="7.2368054"
     height="0.60201043"
     x="-22.157286"
     y="25.685926"
     rx="0.47986835"
     ry="0.58479851"
     transform="rotate(-4.8028284)" />
  <rect
     style="fill:#000000;stroke-width:0.26458"
     id="rect1485-6"
     width="2.4067612"
     height="0.88411635"
     x="-1.6866441"
     y="29.821295"
     rx="0.37708524"
     ry="0.58479851"
     transform="rotate(22.990826)" />
  <path
     id="rect2574"
     style="fill:#000000;stroke-width:0.31507"
     d="m -10.479708,22.418601 -8.906838,0.430459 -0.598406,0.720361 h 0.598406 0.359663 10.5036196 V 22.84906 Z" />
  <path
     id="rect5572"
     style="fill:#666666;stroke-width:0.354976"
     d="M 12.650231,9.1243927 12.251294,26.025613 h 1.6991 L 13.551457,9.1243927 13.100844,9.1440746 Z" />
  <path
     id="rect1155"
     style="fill:#000000;stroke-width:0.25371"
     d="m 13.197581,17.761635 c 0.01624,-0.0088 0.03155,-0.02076 0.04649,-0.03619 -0.01444,0.01365 -0.02999,0.02575 -0.04649,0.03619 z m -0.131257,-10e-7 c 0.0086,2.4e-5 0.01653,-7.69e-4 0.02481,-0.0016 0.142826,-0.01336 0.256891,-0.139309 0.274398,-0.300753 0.0089,-0.042 0.01556,-0.08616 0.0186,-0.133322 l 0.398937,-6.254835 c 0.0011,-0.01656 0.0018,-0.03341 0.0021,-0.04961 0.0016,-0.102825 -0.01232,-0.197223 -0.03824,-0.273365 -1.41e-4,-6e-4 -3.79e-4,-0.001 -5.16e-4,-0.0015 -0.0016,-0.0061 -0.0033,-0.01211 -0.0052,-0.01809 l -0.386019,-1.1978449 1e-6,-5.162e-4 -0.0072,-0.021703 c -0.0436,-0.1292586 -0.152933,-0.2206548 -0.281633,-0.2206548 -9.27e-4,6e-7 -0.0021,-5.27e-5 -0.0031,-4.07e-5 -0.0011,-1.16e-5 -0.0021,-5.76e-5 -0.0031,4.1e-5 -0.128669,-6.43e-5 -0.237511,0.091401 -0.281119,0.2206511 l -0.0072,0.021705 v 5.172e-4 l -0.386018,1.1978443 c -0.002,0.006 -0.004,0.01202 -0.0057,0.01809 -1.37e-4,5.1e-4 -3.78e-4,0.001 -4.89e-4,0.0015 -0.02592,0.07614 -0.03985,0.170541 -0.03824,0.273365 2.39e-4,0.01621 9.67e-4,0.03305 0.0021,0.04961 l 0.398936,6.254834 c 0.003,0.04716 0.0097,0.09133 0.0186,0.133325 0.01751,0.161432 0.131571,0.287389 0.274399,0.300753 0.0083,7.57e-4 0.01634,0.0015 0.02481,0.0016 0.0011,-2e-6 0.0021,5.3e-5 0.0031,3.6e-5 9.27e-4,8e-6 0.0021,5.2e-5 0.0031,-5.1e-5 z m -0.137459,-1e-6 c -0.01651,-0.0104 -0.03206,-0.02254 -0.04651,-0.03617 0.01492,0.01545 0.03027,0.02735 0.04651,0.03617 z m 0.430461,-8.4737926 c 0.02462,2.061e-4 0.04985,-0.0022 0.07493,-0.00723 l 0.02223,-0.00464 5.16e-4,-3e-7 1.230401,-0.2650964 c 0.0062,-0.00127 0.01253,-0.0025 0.01859,-0.00415 5.11e-4,-1.368e-4 5.28e-4,-3.877e-4 0.001,-5.153e-4 0.0789,-0.015623 0.168068,-0.050546 0.256311,-0.1033523 0.0139,-0.0083 0.02805,-0.017169 0.04185,-0.026359 l 5.217712,-3.473122 c 0.03934,-0.026178 0.07403,-0.053945 0.105933,-0.082684 0.13105,-0.09588 0.183346,-0.2577107 0.123505,-0.3880851 -0.0035,-0.00756 -0.0071,-0.014929 -0.01137,-0.02222 -5.5e-4,-9.527e-4 -9.02e-4,-0.00225 -0.0016,-0.00314 -4.55e-4,-8.065e-4 -0.0011,-0.00123 -0.0016,-0.0021 -0.0042,-0.00727 -0.0092,-0.014375 -0.01396,-0.021191 -0.08299,-0.1170114 -0.248813,-0.1523802 -0.397386,-0.086815 -0.04082,0.013288 -0.0827,0.029178 -0.125057,0.050124 l -5.616124,2.7822233 c -0.01486,0.00742 -0.02975,0.014865 -0.04394,0.022712 -0.08985,0.050025 -0.164574,0.1094968 -0.217554,0.1700147 -4.49e-4,4.221e-4 -6.72e-4,6.534e-4 -0.001,0.00103 -0.0045,0.00445 -0.0087,0.0094 -0.01293,0.013932 L 13.1654,8.77044 l -5.16e-4,3e-7 -0.01551,0.017038 c -0.05634,0.063993 -0.08691,0.142807 -0.0863,0.2201383 3.69e-4,0.046403 0.01204,0.09256 0.03617,0.134358 4.63e-4,8.019e-4 10e-4,0.00124 0.0016,0.0021 5.39e-4,9.592e-4 0.0011,0.00211 0.0016,0.00314 0.05228,0.090559 0.150127,0.1396608 0.256829,0.1405579 z M 13.063223,9.0077575 c 6.14e-4,-0.077338 -0.02996,-0.156146 -0.0863,-0.220138 l -0.0155,-0.016533 V 8.7705703 L 12.117041,7.8373056 c -0.0042,-0.00461 -0.0084,-0.00952 -0.01292,-0.013951 -3.63e-4,-3.794e-4 -0.0011,-6.287e-4 -0.0016,-0.00106 -0.05298,-0.060517 -0.127189,-0.1199878 -0.217038,-0.1700133 -0.01418,-0.00784 -0.02958,-0.015321 -0.04444,-0.022736 L 6.2249669,4.8473403 C 6.1826171,4.8263881 6.1412386,4.8104986 6.1004292,4.7972146 5.951863,4.7316704 5.7855159,4.7670187 5.7025261,4.8840302 c -0.00475,0.00678 -0.00974,0.013935 -0.013956,0.021187 -5.107e-4,8.595e-4 -5.625e-4,0.00183 -0.00106,0.00257 -6.002e-4,8.304e-4 -0.00102,0.00164 -0.0015,0.0026 -0.00422,0.00729 -0.0079,0.014604 -0.011372,0.022223 -0.05984,0.1303769 -0.00754,0.2922051 0.1235086,0.388083 0.031899,0.02873 0.066593,0.056503 0.1059336,0.082682 l 5.2171907,3.4731346 c 0.01376,0.00924 0.02795,0.018053 0.04185,0.026354 0.08824,0.052802 0.177412,0.08773 0.256312,0.1033514 5.07e-4,1.3e-4 0.001,3.798e-4 0.0015,4.892e-4 0.0061,0.00156 0.0119,0.00341 0.01809,0.00465 l 1.2304,0.26458 5.17e-4,6e-7 0.02222,0.00465 c 0.133744,0.026868 0.267409,-0.021867 0.33176,-0.1333215 6e-4,-8.302e-4 0.0015,-0.00162 0.0021,-0.00258 5.16e-4,-8.5e-4 5.45e-4,-0.00182 0.001,-0.00257 0.02413,-0.041795 0.0358,-0.087956 0.03617,-0.1343568 z m 7.435629,-3.9252916 c 0.0059,-0.02067 0.0082,-0.039923 0.0078,-0.05839 -7.48e-4,0.019507 -0.0032,0.039071 -0.0078,0.05839 z m -14.8707398,-4e-7 c -0.00458,-0.019331 -0.00753,-0.038884 -0.00826,-0.058392 -5.305e-4,0.018481 0.00237,0.03772 0.00826,0.058392 z M 20.372246,4.791531 c -0.01576,-0.0097 -0.03393,-0.017512 -0.05478,-0.022738 0.01904,0.00568 0.03753,0.013594 0.05478,0.022738 z m -14.6180457,-5e-7 c 0.017261,-0.00912 0.035774,-0.016497 0.054756,-0.02226 -0.020842,0.00522 -0.039034,0.012491 -0.054756,0.02226 z" />
  <circle
     style="fill:#000000;stroke-width:0.43928"
     id="path4904"
     cx="-1.3711932"
     cy="15.875887"
     r="0.67618173"
     transform="rotate(-60)" />
</svg>
