<svg width="100" height="100" version="1.1" viewBox="0 0 26.458 26.458" xmlns="http://www.w3.org/2000/svg">
 <path d="m8.3884 9.1254-0.43 16.347h1.8927l-0.42942-16.34v-0.0067z" style="fill:#666;stroke-width:.37465"/>
 <rect x=".38561" y=".60535" width="17.038" height="17.038" style="fill:#e9afaf;stroke-width:.26458"/>
 <rect x="13.35" y="7.0901" width="12.552" height="12.552" style="fill:#ffe680;stroke-width:.19491"/>
 <path d="m1.5276 13.537c0.015741 0.0097 0.033754 0.01694 0.054587 0.02217-0.019041-0.0057-0.037295-0.0131-0.054587-0.02217zm-0.065628-0.11367c0.00428 0.0075 0.00893 0.01393 0.013791 0.02069 0.082983 0.11701 0.24909 0.15282 0.39766 0.08726 0.040823-0.01329 0.082397-0.02961 0.12476-0.05055l5.6163-2.7819c0.01489-0.0073 0.02983-0.01515 0.04401-0.02299 0.08985-0.05003 0.16464-0.10928 0.21762-0.1698 4.49e-4 -4.22e-4 6.76e-4 -8.28e-4 1e-3 -0.0012 0.0045-0.0044 0.0088-0.0089 0.01307-0.01355l0.84436-0.93323 4.47e-4 -2.57e-4 0.0152-0.01709c0.09014-0.10239 0.11463-0.24277 0.05028-0.35423-4.64e-4 -8.03e-4 -1e-3 -0.0018-0.0015-0.0027-5.4e-4 -9.59e-4 -1e-3 -0.0018-0.0016-0.0027-0.06428-0.11146-0.19791-0.15999-0.33165-0.13313l-0.0224 0.0046-4.48e-4 2.58e-4 -1.2304 0.26462c-0.0062 0.0013-0.01241 0.0025-0.01852 0.0041-5.1e-4 1.36e-4 -0.0011 1.73e-4 -0.0015 3.26e-4 -0.0789 0.01562-0.16762 0.05076-0.25586 0.10357-0.01392 0.0083-0.02814 0.01736-0.04191 0.02662l-5.2174 3.4729c-0.039342 0.02618-0.074244 0.05407-0.10616 0.08277-0.13105 0.09588-0.1831 0.25764-0.12326 0.38801 0.00349 0.0076 0.00687 0.0149 0.011019 0.02229 5.518e-4 9.52e-4 1e-3 0.0018 0.00152 0.0027 4.565e-4 8.07e-4 1e-3 0.0018 0.00159 0.0027zm-0.068729-0.11904c7.516e-4 -0.0195 0.00349-0.03904 0.00807-0.05836-0.00592 0.02065-0.00855 0.03989-0.00807 0.05836zm7.5538-3.8641c0.01213 0.02142 0.02683 0.04207 0.04373 0.06128l0.01513 0.01693 2.59e-4 4.47e-4 0.84478 0.93301c0.0042 0.0047 0.0084 0.0096 0.01289 0.01403 3.74e-4 3.74e-4 6e-4 2.63e-4 9.47e-4 6.08e-4 0.05298 0.06052 0.12781 0.12028 0.21766 0.1703 0.01414 0.0079 0.02889 0.01571 0.04375 0.02306l5.6167 2.7821c0.04234 0.02098 0.08373 0.03714 0.12457 0.0504 0.14856 0.06555 0.31486 0.02993 0.39784-0.08708 0.0048-0.0068 0.0094-0.01361 0.01356-0.02096 5.5e-4 -9.52e-4 0.0015-0.0019 0.0019-3e-3 4.71e-4 -7.98e-4 5.15e-4 -0.0016 1e-3 -0.0024 0.0042-0.0073 0.0078-0.01516 0.01137-0.02269 0.05984-0.13038 0.0076-0.29167-0.12351-0.38755-0.03192-0.02871-0.06662-0.05703-0.10594-0.08324l-5.2175-3.4726c-0.01386-0.0092-0.02775-0.01833-0.04164-0.0267-0.08825-0.0528-0.17711-0.08778-0.25601-0.1034-5.9e-4 -1.78e-4 -9.02e-4 -2.55e-4 -0.0014-3.51e-4 -0.0061-0.0017-0.01249-0.0028-0.01853-0.0042l-1.2304-0.26462-2.59e-4 -4.47e-4 -0.02251-0.0049c-0.08359-0.0168-0.16713-0.0039-0.2338 0.03533-0.04 0.02352-0.07414 0.05671-0.09827 0.0985-4.63e-4 8.01e-4 -5.74e-4 0.0015-1e-3 0.0024-5.61e-4 9.47e-4 -0.0013 2e-3 -0.0019 3e-3 -0.05229 0.09056-0.04589 0.19984 0.0067 0.2927zm0.09451-0.39647c0.06728-0.03814 0.12025-0.10402 0.1475-0.18481l0.0066-0.02169 4.47e-4 -2.581e-4 0.38604-1.1979c0.0019-0.00594 4e-3 -0.012035 0.0056-0.018165 1.47e-4 -5.04e-4 -5e-6 -0.00127 1.18e-4 -0.00192 0.02592-0.07614 0.04032-0.17014 0.03872-0.27297-3.01e-4 -0.0162-0.0015-0.033278-0.0025-0.049854l-0.39858-6.2548c-3e-3 -0.047152-0.01-0.090932-0.01886-0.13292-0.01752-0.16143-0.13131-0.28782-0.27414-0.30119-0.0082-7.236e-4 -0.01694-0.00147-0.02533-0.00149-1e-3 -1.26e-5 -0.0019 4.278e-4 -0.0028 3.67e-4 -1e-3 -1.046e-4 -0.0019-6.34e-5 -3e-3 9e-7 -0.0084-9.6e-6 -0.0166 4.604e-4 -0.02493 0.00126-0.14283 0.013365-0.25683 0.13957-0.27434 0.301-0.0089 0.04199-0.01564 0.085923-0.01864 0.13308l-0.39923 6.2548c-0.0011 0.016537-0.0017 0.033232-0.0019 0.04942-0.0016 0.10282 0.01273 0.19751 0.03865 0.27365 1.41e-4 5.041e-4 1.71e-4 0.00106 3.26e-4 0.00154 0.0017 0.00606 3e-3 0.012011 5e-3 0.017991l0.38607 1.1978 2.58e-4 4.481e-4 0.0071 0.021568c0.0436 0.12926 0.15264 0.22065 0.28134 0.22065 1e-3 1.05e-4 0.0022 4.9e-4 0.0033 5.29e-4 9.94e-4 2.2e-5 0.0018-4.38e-4 0.0027-4.19e-4 0.04826 0 0.09407-0.01297 0.13444-0.03585zm7.1172 4.4768c0.02085-0.0052 0.03867-0.01286 0.05447-0.02244-0.01727 0.0091-0.03544 0.01676-0.05447 0.02244zm-7.4354-12.878c0.01445-0.013632 0.02991-0.025963 0.04644-0.036349-0.01627 0.00878-0.03148 0.020912-0.04644 0.036349zm7.624 12.623c5.2e-4 -0.0185-0.0018-0.03814-0.0077-0.05881 0.0046 0.01933 7e-3 0.0393 0.0077 0.05881zm-7.309-12.66c0.01653 0.010389 0.03217 0.022733 0.04666 0.03629-0.01494-0.01544-0.03033-0.027559-0.04666-0.03629z" style="fill:#fff;stroke-width:.25371"/>
 <circle transform="rotate(-60)" cx="-3.4505" cy="12.274" r=".67618" style="stroke-width:.43928"/>
 <path d="m19.272 13.366-0.31845 12.106h1.4017l-0.31802-12.101v-5e-3z" style="fill:#666;stroke-width:.27746"/>
 <path d="m15.222 17.936c0.01313 0.0039 0.02739 0.0056 0.0433 0.0054-0.01471-4.08e-4 -0.02919-0.0022-0.0433-0.0054zm-0.06873-0.06873c0.0045 0.0046 9e-3 0.0083 0.01383 0.01216 0.08179 0.0678 0.20748 0.06157 0.30119-0.0138 0.02666-0.01729 0.05328-0.03698 0.07956-0.06008l3.4844-3.0666c0.0093-0.0081 0.01843-0.01655 0.02707-0.02488 0.05468-0.05301 0.09683-0.10973 0.12313-0.16318 2.41e-4 -3.88e-4 3.26e-4 -7.22e-4 4.86e-4 -1e-3 0.0023-4e-3 0.0046-0.0081 0.0068-0.0122l0.42513-0.82943 2.71e-4 -2.7e-4 0.0076-0.01514c0.04486-0.09052 0.03546-0.19564-0.03193-0.26304l-0.0016-0.0016c-5.7e-4 -5.83e-4 -0.0011-0.0011-0.0017-0.0016-0.06735-0.06741-0.17224-0.07651-0.26276-0.03167l-0.01515 0.0076-2.7e-4 2.7e-4 -0.82943 0.42513c-0.0042 0.0021-0.0084 0.0042-0.01248 0.0064-3.38e-4 1.95e-4 -7.53e-4 3.34e-4 -1e-3 5.19e-4 -0.05344 0.0263-0.11018 0.06844-0.16318 0.12313-0.0084 0.0086-0.0168 0.01782-0.02488 0.02707l-3.0666 3.4844c-0.02313 0.02627-0.04274 0.05291-0.06007 0.07956-0.07537 0.09371-0.0816 0.2194-0.01381 0.30119 4e-3 0.0047 0.0078 0.0093 0.01219 0.01383 5.77e-4 5.76e-4 0.0011 0.0011 0.0016 0.0016 4.81e-4 4.89e-4 0.0011 0.0011 0.0017 0.0016zm-0.07198-0.07198c-0.0032-0.01409-5e-3 -0.0286-0.0054-0.0433-2.93e-4 0.01591 0.0016 0.03016 0.0054 0.0433zm4.6629-4.2121c0.0128 0.01299 0.02726 0.02496 0.04303 0.03545l0.01407 0.0092 2.71e-4 2.7e-4 0.78315 0.5055c0.0039 0.0026 0.0078 0.0053 0.01187 0.0076 3.39e-4 1.96e-4 4.79e-4 7.4e-5 7.94e-4 2.53e-4 0.0495 0.03314 0.11448 0.06155 0.18835 0.0801 0.01164 3e-3 0.02367 0.0057 0.03572 0.0081l4.5512 0.91359c0.03431 0.0069 0.06702 0.01052 0.09878 0.01218 0.11884 0.01842 0.23097-0.03894 0.26791-0.13855 0.0022-0.0058 0.0042-0.01155 0.0057-0.01759 2.11e-4 -7.86e-4 7.01e-4 -0.0016 7.83e-4 -0.0025 1.84e-4 -6.62e-4 5.8e-5 -0.0013 2.49e-4 -0.0019 0.0016-6e-3 0.0027-0.01235 0.0038-0.0184 0.01782-0.10474-0.0505-0.2101-0.16264-0.25356-0.02834-0.01442-0.05859-0.02803-0.09174-0.03924l-4.398-1.484c-0.01167-0.0039-0.02336-0.0078-0.03491-0.01112-0.07325-0.02085-0.14352-0.02885-0.20296-0.0249-4.56e-4 -1.5e-5 -6.94e-4 -1e-5 -1e-3 7e-6 -0.0047-9.1e-5 -0.0094 3.53e-4 -0.01405 5.57e-4l-0.9309 0.04655-2.71e-4 -2.7e-4 -0.01703 8.37e-4c-0.06302 4e-3 -0.12031 0.02923-0.16047 0.07008-0.0241 0.02449-0.04217 0.05478-0.05142 0.0893-1.77e-4 6.63e-4 -1.25e-4 0.0012-2.49e-4 0.0019-2.2e-4 7.84e-4 -5.41e-4 0.0017-7.83e-4 0.0025-0.02004 0.07481 0.0055 0.15176 0.06093 0.20809zm-0.0084-0.30173c0.04082-0.04018 0.06608-0.09746 0.07009-0.16047l5.77e-4 -0.01678 2.7e-4 -2.7e-4 0.04655-0.9309c2.13e-4 -0.0046 5.94e-4 -0.0094 4.79e-4 -0.01405 9e-6 -3.9e-4 -2.52e-4 -9.3e-4 -2.77e-4 -0.0014 4e-3 -0.05944-0.0038-0.12944-0.02463-0.20269-0.0033-0.01153-0.0074-0.02353-0.01139-0.03517l-1.484-4.398c-0.01116-0.033161-0.02458-0.06313-0.03897-0.09147-0.04347-0.11213-0.1491-0.18073-0.25383-0.16291-6e-3 0.00106-0.0124 0.00218-0.01841 0.00379-7.17e-4 1.829e-4 -0.0013 6.686e-4 -2e-3 8.063e-4 -7.35e-4 1.162e-4 -0.0014 3.169e-4 -0.0021 5.694e-4 -6e-3 0.0016-0.01178 0.00351-0.01759 0.00568-0.09961 0.03694-0.15697 0.14907-0.13855 0.26791 0.0017 0.031748 0.0053 0.064459 0.01217 0.098776l0.91332 4.5509c0.0024 0.01204 0.0051 0.02411 0.0081 0.03572 0.01855 0.07387 0.04694 0.13886 0.0801 0.18835 1.97e-4 3.33e-4 3.33e-4 7.54e-4 5.17e-4 1e-3 0.0024 4e-3 0.0044 8e-3 7e-3 0.01191l0.50577 0.78288 2.7e-4 2.72e-4 0.0093 0.01405c0.05597 0.08411 0.15149 0.12858 0.24355 0.10392 7.36e-4 -1.16e-4 0.0016-6.4e-5 0.0024-2.43e-4 7.16e-4 -1.75e-4 0.0012-6.49e-4 0.0019-8.17e-4 0.03452-0.0092 0.06481-0.0273 0.0893-0.05141zm5.9494 1.8383c0.01391-0.0078 0.02521-0.01659 0.03466-0.0265-0.01062 0.0098-0.02214 0.01878-0.03466 0.0265zm-7.7874-7.7874c0.0077-0.012525 0.01642-0.024308 0.02625-0.034904-0.01 0.0094-0.01851 0.020995-0.02625 0.034904zm7.8735 7.5688c-0.0032-0.01333-0.0086-0.02695-0.01678-0.04059 7e-3 0.01294 0.01256 0.02677 0.01678 0.04059zm-7.6551-7.6551c0.01382 0.00427 0.02737 0.010101 0.04034 0.017019-0.01364-0.00818-0.02698-0.013902-0.04034-0.017019z" style="fill:#fff;stroke-width:.18789"/>
 <circle transform="rotate(-75)" cx="-7.8237" cy="22.444" r=".50077" style="stroke-width:.32532"/>
</svg>
